<?xml version="1.0" encoding="UTF-8"?>
<svg width="567px" height="425px" viewBox="0 0 567 425" version="1.1" xmlns="http://www.w3.org/2000/svg" xmlns:xlink="http://www.w3.org/1999/xlink">
    <title>logo BYD</title>
    <g id="logo-BYD" stroke="none" stroke-width="1" fill="none" fill-rule="evenodd">
        <path d="M126.123,288.4064 C130.718,289.5974 135.038,290.1934 139.08,290.1934 C150.331,290.1934 158.968,286.9584 164.991,280.4824 C171.012,274.0084 174.025,264.4964 174.025,251.9434 C174.025,243.7614 172.656,237.0684 169.923,231.8654 C167.19,226.6634 163.425,222.7914 158.631,220.2474 C153.837,217.7064 147.002,216.4344 138.128,216.4344 L126.123,216.5534 L126.123,219.6514 L125.885,250.5134 L126.123,281.7324 L126.123,288.4064 Z M125.766,203.6844 L131.962,203.6844 C145.386,203.6844 154.82,201.2624 160.263,196.4164 C165.702,191.5714 168.424,183.9844 168.424,173.6564 C168.424,164.6004 166.22,157.9274 161.811,153.6374 C157.402,149.3484 150.152,147.2034 140.065,147.2034 C136.33,147.2034 131.763,147.5214 126.361,148.1574 C125.885,172.5454 125.647,187.4794 125.647,192.9604 L125.766,203.6844 Z M80.009,301.9904 L80.009,296.3894 C84.537,293.6904 87.993,291.2264 90.376,289.0024 C91.33,278.0394 91.806,253.8114 91.806,216.3154 C91.806,189.1474 91.408,169.9244 90.614,158.6424 C90.216,152.5264 89.382,148.9514 88.112,147.9184 C86.364,146.3304 80.326,145.2974 70,144.8204 L70,134.8114 L92.878,135.2874 L110.394,135.6444 C115.715,135.6444 123.58,135.5074 133.988,135.2284 C144.075,134.9504 151.305,134.8114 155.675,134.8114 C173.31,134.8114 185.94,137.7564 193.567,143.6454 C201.193,149.5344 205.006,157.5774 205.006,167.7744 C205.006,178.2914 201.238,186.8684 193.703,193.5084 C186.166,200.1464 175.539,204.8914 161.816,207.7354 L161.816,208.6884 C175.937,210.1214 185.855,212.2674 191.567,215.1314 C197.279,217.9944 201.88,222.4504 205.371,228.4964 C208.86,234.5414 210.606,241.4204 210.606,249.1354 C210.606,258.6014 207.726,267.5494 201.967,275.9794 C196.207,284.4124 188.581,290.8554 179.089,295.3094 C169.595,299.7634 156.229,301.9904 138.992,301.9904 C135.576,301.9904 130.452,301.8504 123.621,301.5734 C117.265,301.2944 112.063,301.1564 108.011,301.1564 C103.483,301.1564 94.148,301.4334 80.009,301.9904 L80.009,301.9904 Z" id="Fill-1" fill="#191C66"></path>
        <path d="M262.7305,205.6803 C267.8775,202.2803 271.4545,199.0563 273.4625,196.0113 C275.4695,192.9643 276.4735,189.9533 276.4735,186.9783 C276.4735,185.0903 276.0955,183.3783 275.3395,181.8433 C274.5835,180.3083 273.4505,179.0933 271.9395,178.1953 C270.4285,177.2993 269.0575,176.8493 267.8305,176.8493 C265.7525,176.8493 263.6265,177.7343 261.4555,179.5053 C259.2825,181.2763 258.1965,184.0753 258.1965,187.9003 C258.1965,193.1893 259.7085,199.1163 262.7305,205.6803 M252.1755,219.2803 C246.8855,222.6803 244.2425,227.5463 244.2425,233.8733 C244.2425,240.8143 246.8145,246.9783 251.9635,252.3623 C257.1095,257.7453 262.8725,260.4373 269.2485,260.4373 C273.6855,260.4373 278.2915,258.8323 283.0615,255.6203 C276.4025,250.1423 270.7705,244.6873 266.1665,239.2573 C261.5625,233.8273 256.8975,227.1683 252.1755,219.2803 M334.9145,250.0953 L337.1805,254.7703 C332.3635,259.5403 327.9475,264.3103 323.9335,269.0803 C320.8645,269.8343 318.0305,270.2123 315.4325,270.2123 C307.0265,270.2123 298.2665,266.8603 289.1525,260.1533 C284.3825,263.7913 279.7185,266.3763 275.1625,267.9103 C270.6055,269.4443 265.5175,270.2123 259.8975,270.2123 C249.7435,270.2123 241.6675,267.4723 235.6705,261.9903 C229.6725,256.5093 226.6745,249.7503 226.6745,241.7173 C226.6745,236.0943 228.2205,231.1323 231.3135,226.8303 C234.4065,222.5303 240.3925,218.0413 249.2715,213.3613 C246.1065,206.4623 244.5255,200.4373 244.5255,195.2853 C244.5255,192.3553 244.8325,189.9693 245.4465,188.1263 C245.7765,187.0873 246.7215,185.7173 248.2795,184.0143 L253.3795,178.4153 C257.2515,174.0683 260.1565,171.4443 262.0935,170.5473 C265.7285,168.8453 269.2935,167.9943 272.7895,167.9943 C275.6225,167.9943 278.3375,168.6913 280.9355,170.0863 C283.5325,171.4813 285.4925,173.3593 286.8155,175.7223 C288.1365,178.0863 288.7975,180.8283 288.7975,183.9473 C288.7975,189.0053 287.0755,193.5553 283.6275,197.5973 C280.1795,201.6383 274.2525,206.3773 265.8475,211.8123 C273.3085,223.3463 283.1075,234.3123 295.2455,244.7113 C297.0855,241.9733 298.3365,239.6353 299.0005,237.6983 C299.6605,235.7633 299.9915,233.6143 299.9915,231.2533 C299.9915,227.8053 299.0225,224.2873 297.0855,220.6973 L293.5455,220.6973 C291.7505,220.6503 288.7975,220.7673 284.6905,221.0523 L283.9105,219.9103 C285.7055,217.2473 287.2635,214.3223 288.5855,211.1343 C296.2835,211.5133 303.2505,211.7013 309.4835,211.7013 C319.2585,211.7013 327.2405,211.2763 333.4265,210.4263 L334.4185,211.1383 C333.0955,214.6543 332.2695,218.0753 331.9385,221.4003 L331.0185,222.2563 C321.7615,221.5483 314.9845,221.1463 310.6875,221.0523 C311.3015,222.9883 311.6085,224.7343 311.6085,226.2933 C311.6085,233.5193 308.2545,240.9813 301.5495,248.6793 C309.5775,253.3533 317.1335,255.6903 324.2165,255.6903 C325.3515,255.6903 326.3415,255.4783 327.1925,255.0543 C329.6485,253.7783 332.2215,252.1263 334.9145,250.0953" id="Fill-3" fill="#191C66"></path>
        <path d="M388.0684,286.6222 C393.9064,287.8142 396.8584,288.4102 402.9744,288.4102 C418.4704,288.4102 430.2874,285.8702 438.4184,280.7912 C446.5494,275.7122 453.1334,267.3962 458.1734,255.8482 C463.2124,244.3012 465.7304,230.1112 465.7304,213.2842 C465.7304,191.1402 460.7264,174.2732 450.7194,162.6852 C441.8924,152.3662 427.4724,147.2072 407.4574,147.2072 C403.1464,147.2072 398.7014,147.6062 388.0684,148.3992 L387.2334,222.6252 C387.2334,253.8702 387.5114,275.2032 388.0684,286.6222 M342.8244,301.3972 L342.8244,295.2012 C347.6204,292.0262 351.0234,289.6452 353.0404,288.0582 C354.0114,274.0892 354.4994,247.9332 354.4994,209.5942 C354.4994,193.0052 354.3424,179.1342 354.0314,167.9812 C353.7174,156.8302 353.2484,150.4592 352.6244,148.8712 C352.3444,148.0782 351.8924,147.4852 351.2684,147.0862 C350.2254,146.4512 345.1174,145.4982 335.9444,144.2282 L335.9444,134.2192 C346.4364,134.6172 358.4954,134.8152 372.1184,134.8152 L423.5104,134.2192 C442.2064,134.2192 456.4014,136.9202 466.0954,142.3222 C475.7914,147.7252 483.4864,155.9852 489.1864,167.1062 C494.8844,178.2292 497.7344,191.7332 497.7344,207.6212 C497.7344,228.0372 493.2874,245.6322 484.3914,260.4072 C475.4944,275.1842 464.6534,285.7102 451.8654,291.9842 C439.0784,298.2612 425.4214,301.3972 410.8974,301.3972 L371.3864,300.5632 C365.0624,300.5632 355.5424,300.8412 342.8244,301.3972" id="Fill-5" fill="#191C66"></path>
    </g>
</svg>