<?xml version="1.0" encoding="UTF-8" standalone="no"?>
<!-- Generator: Adobe Illustrator 23.0.2, SVG Export Plug-In . SVG Version: 6.00 Build 0)  -->

<svg
   xmlns:dc="http://purl.org/dc/elements/1.1/"
   xmlns:cc="http://creativecommons.org/ns#"
   xmlns:rdf="http://www.w3.org/1999/02/22-rdf-syntax-ns#"
   xmlns:svg="http://www.w3.org/2000/svg"
   xmlns="http://www.w3.org/2000/svg"
   xmlns:sodipodi="http://sodipodi.sourceforge.net/DTD/sodipodi-0.dtd"
   xmlns:inkscape="http://www.inkscape.org/namespaces/inkscape"
   version="1.1"
   id="Layer_1"
   x="0px"
   y="0px"
   viewBox="0 0 300 300.04427"
   xml:space="preserve"
   sodipodi:docname="rueda-black.svg"
   inkscape:version="0.92.3 (2405546, 2018-03-11)"
   width="300"
   height="300.04428"><metadata
   id="metadata24"><rdf:RDF><cc:Work
       rdf:about=""><dc:format>image/svg+xml</dc:format><dc:type
         rdf:resource="http://purl.org/dc/dcmitype/StillImage" /><dc:title></dc:title></cc:Work></rdf:RDF></metadata><defs
   id="defs22">
	
	
</defs><sodipodi:namedview
   pagecolor="#ffffff"
   bordercolor="#666666"
   borderopacity="1"
   objecttolerance="10"
   gridtolerance="10"
   guidetolerance="10"
   inkscape:pageopacity="0"
   inkscape:pageshadow="2"
   inkscape:window-width="1920"
   inkscape:window-height="986"
   id="namedview20"
   showgrid="false"
   inkscape:zoom="2.9364409"
   inkscape:cx="149.66312"
   inkscape:cy="37.997214"
   inkscape:window-x="-11"
   inkscape:window-y="-11"
   inkscape:window-maximized="1"
   inkscape:current-layer="Layer_1"
   fit-margin-top="0"
   fit-margin-left="0"
   fit-margin-right="0"
   fit-margin-bottom="0"
   showguides="false" />
<style
   type="text/css"
   id="style2">
	.st0{fill:#177CD6;}
	.st1{fill:#606060;}
	.st2{fill:#58595B;}
</style>
<g
   id="g10"
   transform="matrix(4.5071872,0,0,4.5071872,2.0410006e-4,8.1825833e-4)">
		<path
   style="fill:#177cd6"
   inkscape:connector-curvature="0"
   id="path4"
   d="M 33.24,66.57 C 14.85,66.57 -0.03,51.56 0,33.05 0.03,14.76 15.01,-0.06 33.38,0 51.75,0.06 66.48,14.92 66.56,33.46 66.64,51.44 51.41,66.58 33.24,66.57 Z M 33.32,5.97 C 18.23,5.88 6.37,17.99 5.97,32.11 5.51,48.51 18.31,60.44 33.15,60.54 48.07,60.63 60.47,48.42 60.55,33.52 60.64,18.32 48.53,6.07 33.32,5.97 Z"
   class="st0" />
		<path
   style="fill:#606060"
   inkscape:connector-curvature="0"
   id="path6"
   d="M 33.47,4.01 C 49.86,4.3 62.74,17.62 62.42,33.96 62.11,49.87 48.64,62.72 32.58,62.42 16.39,62.12 3.66,48.5 4.05,31.91 4.4,16.66 18.04,3.73 33.47,4.01 Z M 9.73,22.73 c 0.22,0.1 0.34,0.2 0.47,0.22 3.65,0.59 7.3,1.21 10.96,1.72 0.45,0.06 1.1,-0.37 1.45,-0.76 5.1,-5.79 13.96,-6.67 19.63,-1.44 2.13,1.96 3.95,2.33 6.5,1.75 2.63,-0.6 5.33,-0.91 8.02,-1.35 C 53.67,14.99 44.93,7.57 33.66,7.4 22.5,7.22 13.23,14.24 9.73,22.73 Z M 22.46,33.24 C 22.5,39.36 27.31,44.17 33.32,44.09 39.21,44.01 44.14,39.11 44.1,33.37 44.05,27.27 39.26,22.46 33.24,22.48 27.21,22.49 22.42,27.27 22.46,33.24 Z M 38.9,58.22 c 9.74,-1.46 19.53,-11.41 19.96,-22.91 -0.09,-0.02 -0.19,-0.08 -0.26,-0.05 -4.05,1.42 -8.11,2.84 -12.15,4.3 -0.35,0.13 -0.63,0.49 -0.91,0.78 -1.48,1.54 -2.97,3.07 -4.4,4.66 -0.43,0.47 -0.9,1.08 -0.97,1.67 -0.47,3.79 -0.85,7.61 -1.27,11.55 z M 7.67,35.22 C 7.97,45.98 16.83,56.04 26.76,58.05 26.3,53.79 25.85,49.57 25.35,45.35 25.31,45.01 24.91,44.69 24.64,44.4 23.49,43.12 22.34,41.85 21.17,40.58 20.87,40.25 20.58,39.8 20.19,39.66 16.08,38.17 11.94,36.73 7.67,35.22 Z"
   class="st1" />
		<path
   style="fill:#177cd6"
   inkscape:connector-curvature="0"
   id="path8"
   d="m 33.27,39.1 c -3.24,0.02 -5.84,-2.61 -5.85,-5.91 0,-3.13 2.7,-5.78 5.87,-5.76 3.19,0.02 5.83,2.75 5.8,6 -0.02,3.03 -2.72,5.65 -5.82,5.67 z M 33.2,35.72 c 1.42,0.02 2.52,-1.03 2.54,-2.41 0.02,-1.38 -1.08,-2.54 -2.43,-2.57 -1.34,-0.03 -2.53,1.11 -2.55,2.46 -0.02,1.39 1.06,2.5 2.44,2.52 z"
   class="st0" />
	</g>
</svg>