<?xml version="1.0" encoding="UTF-8" standalone="no"?>
<!-- Created with Inkscape (http://www.inkscape.org/) -->

<svg
   xmlns:dc="http://purl.org/dc/elements/1.1/"
   xmlns:cc="http://creativecommons.org/ns#"
   xmlns:rdf="http://www.w3.org/1999/02/22-rdf-syntax-ns#"
   xmlns:svg="http://www.w3.org/2000/svg"
   xmlns="http://www.w3.org/2000/svg"
   xmlns:sodipodi="http://sodipodi.sourceforge.net/DTD/sodipodi-0.dtd"
   xmlns:inkscape="http://www.inkscape.org/namespaces/inkscape"
   width="7.2889228mm"
   height="7.2887435mm"
   viewBox="0 0 7.2889227 7.2887435"
   version="1.1"
   id="svg8343"
   inkscape:version="0.92.5 (2060ec1f9f, 2020-04-08)"
   sodipodi:docname="icono1.svg">
  <defs
     id="defs8337">
    <clipPath
       id="clipPath6657"
       clipPathUnits="userSpaceOnUse">
      <path
         inkscape:connector-curvature="0"
         id="path6655"
         d="M 0,500 H 750 V 0 H 0 Z" />
    </clipPath>
  </defs>
  <sodipodi:namedview
     id="base"
     pagecolor="#ffffff"
     bordercolor="#666666"
     borderopacity="1.0"
     inkscape:pageopacity="0.0"
     inkscape:pageshadow="2"
     inkscape:zoom="2.8"
     inkscape:cx="57.888891"
     inkscape:cy="34.418624"
     inkscape:document-units="mm"
     inkscape:current-layer="layer1"
     showgrid="false"
     fit-margin-top="0"
     fit-margin-left="0"
     fit-margin-right="0"
     fit-margin-bottom="0"
     inkscape:window-width="2880"
     inkscape:window-height="1526"
     inkscape:window-x="2869"
     inkscape:window-y="-11"
     inkscape:window-maximized="1" />
  <metadata
     id="metadata8340">
    <rdf:RDF>
      <cc:Work
         rdf:about="">
        <dc:format>image/svg+xml</dc:format>
        <dc:type
           rdf:resource="http://purl.org/dc/dcmitype/StillImage" />
        <dc:title></dc:title>
      </cc:Work>
    </rdf:RDF>
  </metadata>
  <g
     inkscape:label="Capa 1"
     inkscape:groupmode="layer"
     id="layer1"
     transform="translate(-92.452647,-96.391872)">
    <g
       id="g13521"
       transform="matrix(0.01434792,0,0,0.01434792,92.452647,96.391786)"
       style="fill:#476c9b;fill-opacity:1">
      <g
         id="g13428"
         style="fill:#476c9b;fill-opacity:1">
        <g
           id="g13426"
           style="fill:#476c9b;fill-opacity:1">
          <path
             id="path13424"
             d="m 298.1,172.506 c 5,-5.7 8.1,-13 8.1,-21.2 0,-17.9 -14.6,-32.5 -32.5,-32.5 -17.9,0 -32.5,14.6 -32.5,32.5 0,8.1 3.1,15.5 8.1,21.2 -6.2,2.7 -12,6.4 -17.1,11 -4.6,-2.6 -9.4,-4.7 -14.4,-6.5 9.5,-8.3 15.6,-20.5 15.6,-34.2 0,-25 -20.3,-45.3 -45.4,-45.3 -25.1,0 -45.3,20.3 -45.3,45.3 0,13.6 6.1,25.8 15.6,34.2 -5,1.8 -9.8,3.9 -14.4,6.5 -5.1,-4.6 -10.8,-8.3 -17.1,-11 5,-5.7 8.1,-13.1 8.1,-21.2 0,-17.9 -14.6,-32.5 -32.5,-32.5 -17.9,0 -32.5,14.6 -32.5,32.5 0,8.1 3.1,15.5 8.1,21.2 -21.9,9.5 -37.2,31.2 -37.2,56.5 h 16.4 c 0,-25 20.3,-45.3 45.2,-45.3 10,0 19.7,3.4 27.5,9.4 -19.5,16.5 -31.9,41.1 -31.9,68.6 h 16.4 c 0,-40.6 33,-73.6 73.6,-73.6 40.6,0 73.6,33 73.6,73.6 H 278 c 0,-27.5 -12.4,-52.1 -31.8,-68.6 7.8,-6 17.5,-9.4 27.5,-9.4 24.9,0 45.2,20.3 45.2,45.3 h 16.4 c 0,-25.3 -15.3,-47.1 -37.2,-56.5 z m -195.6,-5.1 c -8.9,0 -16.1,-7.3 -16.1,-16.1 0,-8.9 7.2,-16.1 16.1,-16.1 8.9,0 16.1,7.2 16.1,16.1 0,8.9 -7.2,16.1 -16.1,16.1 z m 85.6,4.4 c -16,0 -29,-13.1 -29,-29 0,-16 13,-29 29,-29 16,0 29,13 29,29 0,16 -13,29 -29,29 z m 85.6,-4.4 c -8.9,0 -16.1,-7.3 -16.1,-16.1 0,-8.9 7.2,-16.1 16.1,-16.1 8.9,0 16.1,7.2 16.1,16.1 0,8.9 -7.2,16.1 -16.1,16.1 z"
             inkscape:connector-curvature="0"
             style="fill:#476c9b;fill-opacity:1" />
        </g>
      </g>
      <g
         id="g13434"
         style="fill:#476c9b;fill-opacity:1">
        <g
           id="g13432"
           style="fill:#476c9b;fill-opacity:1">
          <path
             id="path13430"
             d="m 491.2,410.306 -104.9,-104.9 -15.5,15.5 -27.2,-27.2 c 20.5,-30.1 32.6,-66.5 32.6,-105.6 0,-103.7 -84.4,-188.1 -188.1,-188.1 -103.7,0 -188.1,84.4 -188.1,188.1 0,103.7 84.4,188.1 188.1,188.1 39.1,0 75.5,-12 105.6,-32.6 l 27.2,27.2 -15.5,15.5 104.9,104.9 c 10.8,10.8 25.2,16.8 40.5,16.8 15.3,0 29.7,-6 40.5,-16.8 22.3,-22.3 22.3,-58.6 -0.1,-80.9 z m -195.1,-88.9 c -29.5,24 -67.1,38.4 -108,38.4 -94.7,0 -171.7,-77 -171.7,-171.7 0,-94.7 77,-171.7 171.7,-171.7 94.7,0 171.7,77 171.7,171.7 0,40.9 -14.4,78.5 -38.4,108 -0.4,0.6 -0.9,1.1 -1.3,1.7 -6.7,8.1 -14.2,15.6 -22.3,22.3 -0.5,0.5 -1.1,0.9 -1.7,1.3 z m 183.6,158.3 c -7.7,7.7 -18,12 -28.9,12 -10.9,0 -21.2,-4.3 -28.9,-12 l -93.3,-93.3 15.5,-15.5 -37,-37 c 0.4,-0.4 0.8,-0.8 1.2,-1.1 3.8,-3.2 7.5,-6.5 11.1,-10 1.1,-1.1 2.3,-2.2 3.4,-3.4 3.5,-3.6 6.8,-7.2 10,-11 0.4,-0.4 0.8,-0.8 1.1,-1.2 l 37,37 15.5,-15.5 93.3,93.3 c 15.9,15.8 15.9,41.7 0,57.7 z"
             inkscape:connector-curvature="0"
             style="fill:#476c9b;fill-opacity:1" />
        </g>
      </g>
      <g
         id="g13440"
         style="fill:#476c9b;fill-opacity:1">
        <g
           id="g13438"
           style="fill:#476c9b;fill-opacity:1">
          <rect
             id="rect13436"
             height="16.4"
             width="16.4"
             transform="matrix(0.7071,-0.7071,0.7071,0.7071,-180.3576,436.2286)"
             y="427.625"
             x="428.19601"
             style="fill:#476c9b;fill-opacity:1" />
        </g>
      </g>
      <g
         id="g13446"
         style="fill:#476c9b;fill-opacity:1">
        <g
           id="g13444"
           style="fill:#476c9b;fill-opacity:1">
          <rect
             id="rect13442"
             height="16.4"
             width="16.4"
             transform="matrix(0.7068,-0.7074,0.7074,0.7068,-170.7359,413.3615)"
             y="404.453"
             x="405.103"
             style="fill:#476c9b;fill-opacity:1" />
        </g>
      </g>
      <g
         id="g13452"
         style="fill:#476c9b;fill-opacity:1">
        <g
           id="g13450"
           style="fill:#476c9b;fill-opacity:1">
          <rect
             id="rect13448"
             height="16.4"
             width="16.4"
             transform="matrix(0.7071,-0.7071,0.7071,0.7071,-161.1777,390.0266)"
             y="381.37201"
             x="382.01501"
             style="fill:#476c9b;fill-opacity:1" />
        </g>
      </g>
      <g
         id="g13454"
         style="fill:#476c9b;fill-opacity:1" />
      <g
         id="g13456"
         style="fill:#476c9b;fill-opacity:1" />
      <g
         id="g13458"
         style="fill:#476c9b;fill-opacity:1" />
      <g
         id="g13460"
         style="fill:#476c9b;fill-opacity:1" />
      <g
         id="g13462"
         style="fill:#476c9b;fill-opacity:1" />
      <g
         id="g13464"
         style="fill:#476c9b;fill-opacity:1" />
      <g
         id="g13466"
         style="fill:#476c9b;fill-opacity:1" />
      <g
         id="g13468"
         style="fill:#476c9b;fill-opacity:1" />
      <g
         id="g13470"
         style="fill:#476c9b;fill-opacity:1" />
      <g
         id="g13472"
         style="fill:#476c9b;fill-opacity:1" />
      <g
         id="g13474"
         style="fill:#476c9b;fill-opacity:1" />
      <g
         id="g13476"
         style="fill:#476c9b;fill-opacity:1" />
      <g
         id="g13478"
         style="fill:#476c9b;fill-opacity:1" />
      <g
         id="g13480"
         style="fill:#476c9b;fill-opacity:1" />
      <g
         id="g13482"
         style="fill:#476c9b;fill-opacity:1" />
    </g>
  </g>
</svg>
