<?xml version="1.0" encoding="UTF-8" standalone="no"?>
<!-- Created with Inkscape (http://www.inkscape.org/) -->

<svg
   xmlns:dc="http://purl.org/dc/elements/1.1/"
   xmlns:cc="http://creativecommons.org/ns#"
   xmlns:rdf="http://www.w3.org/1999/02/22-rdf-syntax-ns#"
   xmlns:svg="http://www.w3.org/2000/svg"
   xmlns="http://www.w3.org/2000/svg"
   xmlns:sodipodi="http://sodipodi.sourceforge.net/DTD/sodipodi-0.dtd"
   xmlns:inkscape="http://www.inkscape.org/namespaces/inkscape"
   width="7.2901783mm"
   height="6.4651728mm"
   viewBox="0 0 7.2901782 6.4651727"
   version="1.1"
   id="svg8343"
   inkscape:version="0.92.5 (2060ec1f9f, 2020-04-08)"
   sodipodi:docname="icono10.svg">
  <defs
     id="defs8337">
    <clipPath
       id="clipPath6657"
       clipPathUnits="userSpaceOnUse">
      <path
         inkscape:connector-curvature="0"
         id="path6655"
         d="M 0,500 H 750 V 0 H 0 Z" />
    </clipPath>
  </defs>
  <sodipodi:namedview
     id="base"
     pagecolor="#ffffff"
     bordercolor="#666666"
     borderopacity="1.0"
     inkscape:pageopacity="0.0"
     inkscape:pageshadow="2"
     inkscape:zoom="2.8"
     inkscape:cx="-69.173701"
     inkscape:cy="13.078773"
     inkscape:document-units="mm"
     inkscape:current-layer="layer1"
     showgrid="false"
     fit-margin-top="0"
     fit-margin-left="0"
     fit-margin-right="0"
     fit-margin-bottom="0"
     inkscape:window-width="2880"
     inkscape:window-height="1526"
     inkscape:window-x="2869"
     inkscape:window-y="-11"
     inkscape:window-maximized="1" />
  <metadata
     id="metadata8340">
    <rdf:RDF>
      <cc:Work
         rdf:about="">
        <dc:format>image/svg+xml</dc:format>
        <dc:type
           rdf:resource="http://purl.org/dc/dcmitype/StillImage" />
        <dc:title></dc:title>
      </cc:Work>
    </rdf:RDF>
  </metadata>
  <g
     inkscape:label="Capa 1"
     inkscape:groupmode="layer"
     id="layer1"
     transform="translate(-126.07129,-99.128801)">
    <g
       id="g17346"
       transform="matrix(0.01434792,0,0,0.01434792,126.07129,98.716298)"
       style="fill:#476c9b;fill-opacity:1">
      <g
         id="g17253"
         style="fill:#476c9b;fill-opacity:1">
        <g
           id="g17251"
           style="fill:#476c9b;fill-opacity:1">
          <path
             id="path17249"
             d="m 190.9,415.75 c 3.6,-5.2 5.6,-11.6 5.6,-18.3 0,-18.1 -14.7,-32.8 -32.8,-32.8 H 49.2 c -18.1,0 -32.8,14.7 -32.8,32.8 0,6.8 2.1,13.1 5.6,18.3 -12.8,4.5 -22,16.5 -22,30.8 0,18.1 14.7,32.8 32.8,32.8 h 147.4 c 18.1,0 32.8,-14.7 32.8,-32.8 -0.1,-14.2 -9.3,-26.3 -22.1,-30.8 z M 49.2,381.05 h 114.6 c 9,0 16.4,7.3 16.4,16.4 0,9 -7.4,16.4 -16.4,16.4 H 49.2 c -9,0 -16.4,-7.3 -16.4,-16.4 0,-9.1 7.3,-16.4 16.4,-16.4 z m 131,81.9 H 32.8 c -9,0 -16.4,-7.3 -16.4,-16.4 0,-9 7.4,-16.4 16.4,-16.4 h 16.4 114.6 16.4 c 9,0 16.4,7.3 16.4,16.4 -0.1,9.1 -7.4,16.4 -16.4,16.4 z"
             inkscape:connector-curvature="0"
             style="fill:#476c9b;fill-opacity:1" />
        </g>
      </g>
      <g
         id="g17259"
         style="fill:#476c9b;fill-opacity:1">
        <g
           id="g17257"
           style="fill:#476c9b;fill-opacity:1">
          <path
             id="path17255"
             d="m 475.2,110.65 c -11.8,0 -22.5,6.4 -28.3,16.4 H 188.7 c -10.7,0 -19.7,6.9 -23.1,16.4 h -17 c 2.3,-6.8 5.5,-13.6 9.7,-20.1 0.2,-0.2 0.2,-0.5 0.4,-0.8 3.2,-3 5.2,-7.2 5.2,-11.9 v -65.5 c 0,-9 -7.4,-16.4 -16.4,-16.4 H 49.1 c -9,0 -16.4,7.3 -16.4,16.4 v 65.5 c 0,4.7 2,8.9 5.2,11.9 0.1,0.3 0.2,0.5 0.4,0.8 18.5,28.4 18.5,61 0,89.4 -0.2,0.2 -0.2,0.5 -0.4,0.8 -3.2,3 -5.2,7.2 -5.2,11.9 v 65.5 c 0,9 7.4,16.4 16.4,16.4 h 98.4 c 9,0 16.4,-7.3 16.4,-16.4 v -65.5 c 0,-4.7 -2,-8.9 -5.2,-11.9 -0.1,-0.3 -0.2,-0.5 -0.4,-0.8 -4.2,-6.5 -7.4,-13.3 -9.7,-20.1 h 17 c 3.4,9.5 12.4,16.4 23.1,16.4 H 447 c 5.8,10 16.5,16.4 28.3,16.4 18.1,0 32.8,-14.7 32.8,-32.8 v -49.2 c -0.1,-18.1 -14.8,-32.8 -32.9,-32.8 z m -426.1,0 v -65.5 h 8.3 v 16.4 h 16.4 v -16.4 h 16.3 v 16.4 h 16.4 v -16.4 h 16.3 v 16.4 h 16.4 v -16.4 h 8.3 v 65.5 z m 81.9,80 v 1.9 h 0.5 c 1.6,5.6 3.5,11.1 6,16.4 H 59 c 12.5,-26.4 12.5,-55.6 0,-81.9 h 78.5 c -2.5,5.4 -4.4,10.8 -5.9,16.4 H 131 v 1.9 c -3.7,15 -3.7,30.4 0,45.3 z m 16.5,100.3 h -8.3 v -16.4 h -16.4 v 16.4 h -16.3 v -16.4 H 90.1 v 16.4 H 73.7 v -16.4 H 57.4 v 16.4 h -8.3 v -65.5 h 98.4 z M 145,176.25 c -0.6,-5.5 -0.6,-10.9 0,-16.4 h 18.6 v 16.4 z m 346.7,16.3 h -0.1 c 0,9 -7.4,16.4 -16.4,16.4 -6.9,0 -13,-4.4 -15.4,-10.9 l -1.9,-5.4 H 188.7 c -4.5,0 -8.2,-3.7 -8.2,-8.2 v -32.8 c 0,-4.5 3.7,-8.2 8.2,-8.2 H 458 l 1.9,-5.4 c 2.3,-6.5 8.5,-10.9 15.4,-10.9 9,0 16.4,7.3 16.4,16.4 z"
             inkscape:connector-curvature="0"
             style="fill:#476c9b;fill-opacity:1" />
        </g>
      </g>
      <g
         id="g17265"
         style="fill:#476c9b;fill-opacity:1">
        <g
           id="g17263"
           style="fill:#476c9b;fill-opacity:1">
          <rect
             id="rect17261"
             height="16.4"
             width="16.4"
             y="159.85001"
             x="262.20001"
             style="fill:#476c9b;fill-opacity:1" />
        </g>
      </g>
      <g
         id="g17271"
         style="fill:#476c9b;fill-opacity:1">
        <g
           id="g17269"
           style="fill:#476c9b;fill-opacity:1">
          <rect
             id="rect17267"
             height="16.4"
             width="16.4"
             y="159.85001"
             x="229.39999"
             style="fill:#476c9b;fill-opacity:1" />
        </g>
      </g>
      <g
         id="g17277"
         style="fill:#476c9b;fill-opacity:1">
        <g
           id="g17275"
           style="fill:#476c9b;fill-opacity:1">
          <rect
             id="rect17273"
             height="16.4"
             width="16.4"
             y="159.85001"
             x="196.60001"
             style="fill:#476c9b;fill-opacity:1" />
        </g>
      </g>
      <g
         id="g17279"
         style="fill:#476c9b;fill-opacity:1" />
      <g
         id="g17281"
         style="fill:#476c9b;fill-opacity:1" />
      <g
         id="g17283"
         style="fill:#476c9b;fill-opacity:1" />
      <g
         id="g17285"
         style="fill:#476c9b;fill-opacity:1" />
      <g
         id="g17287"
         style="fill:#476c9b;fill-opacity:1" />
      <g
         id="g17289"
         style="fill:#476c9b;fill-opacity:1" />
      <g
         id="g17291"
         style="fill:#476c9b;fill-opacity:1" />
      <g
         id="g17293"
         style="fill:#476c9b;fill-opacity:1" />
      <g
         id="g17295"
         style="fill:#476c9b;fill-opacity:1" />
      <g
         id="g17297"
         style="fill:#476c9b;fill-opacity:1" />
      <g
         id="g17299"
         style="fill:#476c9b;fill-opacity:1" />
      <g
         id="g17301"
         style="fill:#476c9b;fill-opacity:1" />
      <g
         id="g17303"
         style="fill:#476c9b;fill-opacity:1" />
      <g
         id="g17305"
         style="fill:#476c9b;fill-opacity:1" />
      <g
         id="g17307"
         style="fill:#476c9b;fill-opacity:1" />
    </g>
  </g>
</svg>
