<?xml version="1.0" encoding="UTF-8" standalone="no"?>
<!-- Created with Inkscape (http://www.inkscape.org/) -->

<svg
   xmlns:dc="http://purl.org/dc/elements/1.1/"
   xmlns:cc="http://creativecommons.org/ns#"
   xmlns:rdf="http://www.w3.org/1999/02/22-rdf-syntax-ns#"
   xmlns:svg="http://www.w3.org/2000/svg"
   xmlns="http://www.w3.org/2000/svg"
   xmlns:sodipodi="http://sodipodi.sourceforge.net/DTD/sodipodi-0.dtd"
   xmlns:inkscape="http://www.inkscape.org/namespaces/inkscape"
   width="5.4077311mm"
   height="7.2887435mm"
   viewBox="0 0 5.407731 7.2887434"
   version="1.1"
   id="svg8343"
   inkscape:version="0.92.5 (2060ec1f9f, 2020-04-08)"
   sodipodi:docname="icono9.svg">
  <defs
     id="defs8337">
    <clipPath
       id="clipPath6657"
       clipPathUnits="userSpaceOnUse">
      <path
         inkscape:connector-curvature="0"
         id="path6655"
         d="M 0,500 H 750 V 0 H 0 Z" />
    </clipPath>
  </defs>
  <sodipodi:namedview
     id="base"
     pagecolor="#ffffff"
     bordercolor="#666666"
     borderopacity="1.0"
     inkscape:pageopacity="0.0"
     inkscape:pageshadow="2"
     inkscape:zoom="2.8"
     inkscape:cx="-83.088234"
     inkscape:cy="-0.72201314"
     inkscape:document-units="mm"
     inkscape:current-layer="layer1"
     showgrid="false"
     fit-margin-top="0"
     fit-margin-left="0"
     fit-margin-right="0"
     fit-margin-bottom="0"
     inkscape:window-width="1920"
     inkscape:window-height="986"
     inkscape:window-x="-11"
     inkscape:window-y="-11"
     inkscape:window-maximized="1" />
  <metadata
     id="metadata8340">
    <rdf:RDF>
      <cc:Work
         rdf:about="">
        <dc:format>image/svg+xml</dc:format>
        <dc:type
           rdf:resource="http://purl.org/dc/dcmitype/StillImage" />
        <dc:title></dc:title>
      </cc:Work>
    </rdf:RDF>
  </metadata>
  <g
     inkscape:label="Capa 1"
     inkscape:groupmode="layer"
     id="layer1"
     transform="translate(-111.13752,-94.653772)">
    <g
       id="g17634"
       transform="matrix(0.01434792,0,0,0.01434792,110.19701,94.653772)"
       style="fill:#476c9b;fill-opacity:1">
      <g
         id="g17487"
         style="fill:#476c9b;fill-opacity:1">
        <g
           id="g17485"
           style="fill:#476c9b;fill-opacity:1">
          <path
             id="path17483"
             d="m 306.55,0 h -241 v 508 h 376.9 V 135.9 Z m 4.8,28 103.1,103.1 h -103.1 z m 114.6,463.6 H 81.85 V 16.4 h 213 v 131.1 h 131.1 z"
             inkscape:connector-curvature="0"
             style="fill:#476c9b;fill-opacity:1" />
        </g>
      </g>
      <g
         id="g17493"
         style="fill:#476c9b;fill-opacity:1">
        <g
           id="g17491"
           style="fill:#476c9b;fill-opacity:1">
          <rect
             id="rect17489"
             height="16.4"
             width="16.4"
             y="458.79999"
             x="393.25"
             style="fill:#476c9b;fill-opacity:1" />
        </g>
      </g>
      <g
         id="g17499"
         style="fill:#476c9b;fill-opacity:1">
        <g
           id="g17497"
           style="fill:#476c9b;fill-opacity:1">
          <rect
             id="rect17495"
             height="16.4"
             width="16.4"
             y="458.79999"
             x="360.45001"
             style="fill:#476c9b;fill-opacity:1" />
        </g>
      </g>
      <g
         id="g17505"
         style="fill:#476c9b;fill-opacity:1">
        <g
           id="g17503"
           style="fill:#476c9b;fill-opacity:1">
          <rect
             id="rect17501"
             height="16.4"
             width="16.4"
             y="458.79999"
             x="327.64999"
             style="fill:#476c9b;fill-opacity:1" />
        </g>
      </g>
      <g
         id="g17511"
         style="fill:#476c9b;fill-opacity:1">
        <g
           id="g17509"
           style="fill:#476c9b;fill-opacity:1">
          <path
             id="path17507-8"
             d="m 404.15,340.6 v -13.5 l -11.7,-6.8 -6.8,-11.7 h -13.5 l -11.7,-6.8 -11.7,6.8 h -13.5 l -6.8,11.7 -11.7,6.8 v 13.5 l -6.8,11.7 6.8,11.7 v 13.5 l 11.7,6.8 6.8,11.7 h 13.5 l 11.7,6.8 11.7,-6.8 h 13.5 l 6.8,-11.7 11.7,-6.8 V 364 l 6.8,-11.7 z m -16.4,19 v 8.4 l -7.3,4.2 -4.2,7.3 h -8.4 l -7.3,4.2 -7.3,-4.2 h -8.4 l -4.2,-7.3 -7.3,-4.2 v -8.4 l -4.2,-7.3 4.2,-7.3 v -8.4 l 7.3,-4.2 4.2,-7.3 h 8.4 l 7.3,-4.2 7.3,4.2 h 8.4 l 4.2,7.3 7.3,4.2 v 8.4 l 4.2,7.3 z"
             inkscape:connector-curvature="0"
             style="fill:#476c9b;fill-opacity:1" />
        </g>
      </g>
      <g
         id="g17517"
         style="fill:#476c9b;fill-opacity:1">
        <g
           id="g17515"
           style="fill:#476c9b;fill-opacity:1">
          <path
             id="path17513"
             d="m 216.55,346.4 33.6,-33.7 -45.2,-45.2 -101.4,101.3 45.3,45.3 33.7,-33.7 98.2,98.2 34,-34 z m -67.7,44.5 -22.1,-22.1 78.2,-78.2 22.1,22.1 z m 131.8,64.6 -86.6,-86.6 10.9,-10.9 86.6,86.6 z"
             inkscape:connector-curvature="0"
             style="fill:#476c9b;fill-opacity:1" />
        </g>
      </g>
      <g
         id="g17523"
         style="fill:#476c9b;fill-opacity:1">
        <g
           id="g17521"
           style="fill:#476c9b;fill-opacity:1">
          <path
             id="path17519"
             d="m 147.45,426.1 h -24.6 c -13.6,0 -24.6,11 -24.6,24.6 v 24.6 h 73.7 v -24.6 c 0.1,-13.6 -11,-24.6 -24.5,-24.6 z m 8.2,32.7 h -41 v -8.2 c 0,-4.5 3.7,-8.2 8.2,-8.2 h 24.6 c 4.5,0 8.2,3.7 8.2,8.2 z"
             inkscape:connector-curvature="0"
             style="fill:#476c9b;fill-opacity:1" />
        </g>
      </g>
      <g
         id="g17529"
         style="fill:#476c9b;fill-opacity:1">
        <g
           id="g17527"
           style="fill:#476c9b;fill-opacity:1">
          <path
             id="path17525"
             d="m 204.75,41 h -97.8 v 106.5 h 97.9 V 41 Z m -16.3,90.1 h -65.1 V 57.4 h 65.1 z"
             inkscape:connector-curvature="0"
             style="fill:#476c9b;fill-opacity:1" />
        </g>
      </g>
      <g
         id="g17535"
         style="fill:#476c9b;fill-opacity:1">
        <g
           id="g17533"
           style="fill:#476c9b;fill-opacity:1">
          <rect
             id="rect17531"
             height="16.4"
             width="295"
             y="172.10001"
             x="106.45"
             style="fill:#476c9b;fill-opacity:1" />
        </g>
      </g>
      <g
         id="g17541"
         style="fill:#476c9b;fill-opacity:1">
        <g
           id="g17539"
           style="fill:#476c9b;fill-opacity:1">
          <rect
             id="rect17537"
             height="16.4"
             width="295"
             y="213"
             x="106.45"
             style="fill:#476c9b;fill-opacity:1" />
        </g>
      </g>
      <g
         id="g17547"
         style="fill:#476c9b;fill-opacity:1">
        <g
           id="g17545"
           style="fill:#476c9b;fill-opacity:1">
          <rect
             id="rect17543-0"
             height="16.4"
             width="122.9"
             y="254"
             x="278.54999"
             style="fill:#476c9b;fill-opacity:1" />
        </g>
      </g>
      <g
         id="g17549"
         style="fill:#476c9b;fill-opacity:1" />
      <g
         id="g17551"
         style="fill:#476c9b;fill-opacity:1" />
      <g
         id="g17553"
         style="fill:#476c9b;fill-opacity:1" />
      <g
         id="g17555"
         style="fill:#476c9b;fill-opacity:1" />
      <g
         id="g17557"
         style="fill:#476c9b;fill-opacity:1" />
      <g
         id="g17559"
         style="fill:#476c9b;fill-opacity:1" />
      <g
         id="g17561"
         style="fill:#476c9b;fill-opacity:1" />
      <g
         id="g17563"
         style="fill:#476c9b;fill-opacity:1" />
      <g
         id="g17565"
         style="fill:#476c9b;fill-opacity:1" />
      <g
         id="g17567"
         style="fill:#476c9b;fill-opacity:1" />
      <g
         id="g17569"
         style="fill:#476c9b;fill-opacity:1" />
      <g
         id="g17571"
         style="fill:#476c9b;fill-opacity:1" />
      <g
         id="g17573"
         style="fill:#476c9b;fill-opacity:1" />
      <g
         id="g17575"
         style="fill:#476c9b;fill-opacity:1" />
      <g
         id="g17577"
         style="fill:#476c9b;fill-opacity:1" />
    </g>
  </g>
</svg>
