<?xml version="1.0" encoding="UTF-8" standalone="no"?>
<!-- Created with Inkscape (http://www.inkscape.org/) -->

<svg
   xmlns:dc="http://purl.org/dc/elements/1.1/"
   xmlns:cc="http://creativecommons.org/ns#"
   xmlns:rdf="http://www.w3.org/1999/02/22-rdf-syntax-ns#"
   xmlns:svg="http://www.w3.org/2000/svg"
   xmlns="http://www.w3.org/2000/svg"
   xmlns:sodipodi="http://sodipodi.sourceforge.net/DTD/sodipodi-0.dtd"
   xmlns:inkscape="http://www.inkscape.org/namespaces/inkscape"
   width="14.223206mm"
   height="14.427692mm"
   viewBox="0 0 14.223206 14.427692"
   version="1.1"
   id="svg11022"
   inkscape:version="0.92.5 (2060ec1f9f, 2020-04-08)"
   sodipodi:docname="icon5.svg">
  <defs
     id="defs11016" />
  <sodipodi:namedview
     id="base"
     pagecolor="#ffffff"
     bordercolor="#666666"
     borderopacity="1.0"
     inkscape:pageopacity="0.0"
     inkscape:pageshadow="2"
     inkscape:zoom="5.6"
     inkscape:cx="-14.284802"
     inkscape:cy="94.445127"
     inkscape:document-units="mm"
     inkscape:current-layer="layer1"
     showgrid="false"
     fit-margin-top="0"
     fit-margin-left="0"
     fit-margin-right="0"
     fit-margin-bottom="0"
     inkscape:window-width="2400"
     inkscape:window-height="1271"
     inkscape:window-x="2391"
     inkscape:window-y="-9"
     inkscape:window-maximized="1" />
  <metadata
     id="metadata11019">
    <rdf:RDF>
      <cc:Work
         rdf:about="">
        <dc:format>image/svg+xml</dc:format>
        <dc:type
           rdf:resource="http://purl.org/dc/dcmitype/StillImage" />
        <dc:title></dc:title>
      </cc:Work>
    </rdf:RDF>
  </metadata>
  <g
     inkscape:label="Capa 1"
     inkscape:groupmode="layer"
     id="layer1"
     transform="translate(90.116634,36.470198)">
    <g
       style="fill:#ffffff"
       transform="matrix(0.02840097,0,0,0.02840097,-90.218877,-36.470198)"
       id="g10182">
      <g
         style="fill:#ffffff"
         id="g10116">
        <g
           style="fill:#ffffff"
           id="g10114">
          <path
             style="fill:#ffffff"
             inkscape:connector-curvature="0"
             d="m 392.8,278.9 -32.6,70.4 -98.3,-195.6 v -39 H 414.4 L 385.7,57.3 414.4,0 H 245.5 v 8.2 106.5 39.2 L 145.4,375.1 96.9,291.4 3.6,508 H 504.4 Z M 261.9,16.4 h 126 l -20.5,41 20.5,41 h -126 z m -7.9,158.3 33.6,66.9 -11.7,3.3 -21.7,-18 -21.4,17.7 -9,-3.1 z M 28.5,491.5 99.1,327.8 l 38,65.6 -44.4,98.1 z m 188.6,-234.9 19.1,6.8 18.2,-15 17.9,14.8 22.9,-6.6 56.2,111.9 -47.8,103.4 14.9,6.8 74.7,-161.5 85,174.5 H 110.7 Z"
             id="path10112" />
        </g>
      </g>
      <g
         style="fill:#ffffff"
         id="g10122">
        <g
           style="fill:#ffffff"
           id="g10120">
          <path
             style="fill:#ffffff"
             inkscape:connector-curvature="0"
             d="m 162.8,106.1 c 0.5,-2.6 0.8,-5.2 0.8,-7.7 0,-22.6 -18.4,-41 -41,-41 -9.3,0 -18.2,3.1 -25.4,8.8 -2.6,-0.4 -5,-0.6 -7.4,-0.6 -22.1,0 -41.1,14.6 -47.1,35.4 -15.9,5.9 -26.6,21 -26.6,38.3 0,22.6 18.3,41 40.9,41 h 82 c 22.6,0 41,-18.4 41,-41 0,-13.4 -6.4,-25.6 -17.2,-33.2 z m -23.7,57.8 H 57 c -13.6,0 -24.6,-11 -24.6,-24.6 0,-11.4 7.9,-21.3 19,-23.9 l 5.2,-1.2 1,-5.3 c 2.8,-15.6 16.3,-27 32.2,-27 2.4,0 4.8,0.3 7.8,1.1 l 4.5,1.1 3.3,-3.2 c 4.6,-4.6 10.8,-7.1 17.3,-7.1 13.6,0 24.6,11 24.6,24.6 0,2.8 -0.6,5.7 -1.7,8.6 l -2.7,7 6.8,3.3 c 8.6,4.2 14,12.6 14,22 0,13.6 -11,24.6 -24.6,24.6 z"
             id="path10118" />
        </g>
      </g>
      <g
         style="fill:#ffffff"
         id="g10124" />
      <g
         style="fill:#ffffff"
         id="g10126" />
      <g
         style="fill:#ffffff"
         id="g10128" />
      <g
         style="fill:#ffffff"
         id="g10130" />
      <g
         style="fill:#ffffff"
         id="g10132" />
      <g
         style="fill:#ffffff"
         id="g10134" />
      <g
         style="fill:#ffffff"
         id="g10136" />
      <g
         style="fill:#ffffff"
         id="g10138" />
      <g
         style="fill:#ffffff"
         id="g10140" />
      <g
         style="fill:#ffffff"
         id="g10142" />
      <g
         style="fill:#ffffff"
         id="g10144" />
      <g
         style="fill:#ffffff"
         id="g10146" />
      <g
         style="fill:#ffffff"
         id="g10148" />
      <g
         style="fill:#ffffff"
         id="g10150" />
      <g
         style="fill:#ffffff"
         id="g10152" />
    </g>
  </g>
</svg>
