<?xml version="1.0" encoding="UTF-8" standalone="no"?>
<!-- Created with Inkscape (http://www.inkscape.org/) -->

<svg
   xmlns:dc="http://purl.org/dc/elements/1.1/"
   xmlns:cc="http://creativecommons.org/ns#"
   xmlns:rdf="http://www.w3.org/1999/02/22-rdf-syntax-ns#"
   xmlns:svg="http://www.w3.org/2000/svg"
   xmlns="http://www.w3.org/2000/svg"
   xmlns:sodipodi="http://sodipodi.sourceforge.net/DTD/sodipodi-0.dtd"
   xmlns:inkscape="http://www.inkscape.org/namespaces/inkscape"
   width="11.291687mm"
   height="12.066001mm"
   viewBox="0 0 11.291687 12.066001"
   version="1.1"
   id="svg2568"
   inkscape:version="0.92.5 (2060ec1f9f, 2020-04-08)"
   sodipodi:docname="icono1.svg">
  <defs
     id="defs2562">
    <clipPath
       id="clipPath5885-8"
       clipPathUnits="userSpaceOnUse">
      <path
         inkscape:connector-curvature="0"
         id="path5883-7"
         d="M 0,500 H 750 V 0 H 0 Z" />
    </clipPath>
    <clipPath
       id="clipPath5897"
       clipPathUnits="userSpaceOnUse">
      <path
         inkscape:connector-curvature="0"
         id="path5895"
         d="M 0,500 H 750 V 0 H 0 Z" />
    </clipPath>
    <clipPath
       id="clipPath5909"
       clipPathUnits="userSpaceOnUse">
      <path
         inkscape:connector-curvature="0"
         id="path5907"
         d="M 0,500 H 750 V 0 H 0 Z" />
    </clipPath>
    <clipPath
       id="clipPath5921"
       clipPathUnits="userSpaceOnUse">
      <path
         inkscape:connector-curvature="0"
         id="path5919"
         d="m 161.673,432.405 h 204.21 V 149.652 h -204.21 z" />
    </clipPath>
    <clipPath
       id="clipPath6091"
       clipPathUnits="userSpaceOnUse">
      <path
         inkscape:connector-curvature="0"
         id="path6089"
         d="M 0,500 H 750 V 0 H 0 Z" />
    </clipPath>
    <clipPath
       id="clipPath6103"
       clipPathUnits="userSpaceOnUse">
      <path
         inkscape:connector-curvature="0"
         id="path6101"
         d="m 610.919,27.8161 h 24.678 V 12.3449 h -24.678 z" />
    </clipPath>
    <clipPath
       id="clipPath6119"
       clipPathUnits="userSpaceOnUse">
      <path
         inkscape:connector-curvature="0"
         id="path6117"
         d="m 611.767,36.9772 h 2.924 v -2.9238 h -2.924 z" />
    </clipPath>
    <clipPath
       id="clipPath6159"
       clipPathUnits="userSpaceOnUse">
      <path
         inkscape:connector-curvature="0"
         id="path6157"
         d="m 605.026,51.7018 h 17.727 v -6.1013 h -17.727 z" />
    </clipPath>
    <clipPath
       id="clipPath6179"
       clipPathUnits="userSpaceOnUse">
      <path
         inkscape:connector-curvature="0"
         id="path6177"
         d="m 564.559,34.3769 h 2.683 v -2.6711 h -2.683 z" />
    </clipPath>
    <clipPath
       id="clipPath6195"
       clipPathUnits="userSpaceOnUse">
      <path
         inkscape:connector-curvature="0"
         id="path6193"
         d="m 537.93,25.8959 h 34.369 V 22.1103 H 537.93 Z" />
    </clipPath>
    <clipPath
       id="clipPath6227"
       clipPathUnits="userSpaceOnUse">
      <path
         inkscape:connector-curvature="0"
         id="path6225"
         d="m 554.526,50.0352 h 17.181 v -3.6203 h -17.181 z" />
    </clipPath>
    <clipPath
       id="clipPath6447"
       clipPathUnits="userSpaceOnUse">
      <path
         inkscape:connector-curvature="0"
         id="path6445"
         d="m 569.493,232.085 h 37.169 v -16.324 h -37.169 z" />
    </clipPath>
    <clipPath
       id="clipPath6463"
       clipPathUnits="userSpaceOnUse">
      <path
         inkscape:connector-curvature="0"
         id="path6461"
         d="m 541.318,233.134 h 27.267 v -16.96 h -27.267 z" />
    </clipPath>
    <clipPath
       id="clipPath6503"
       clipPathUnits="userSpaceOnUse">
      <path
         inkscape:connector-curvature="0"
         id="path6501"
         d="M 0,500 H 750 V 0 H 0 Z" />
    </clipPath>
    <clipPath
       id="clipPath6547"
       clipPathUnits="userSpaceOnUse">
      <path
         inkscape:connector-curvature="0"
         id="path6545"
         d="m 378.399,30.1993 h 24.678 V 14.7281 h -24.678 z" />
    </clipPath>
    <clipPath
       id="clipPath6563"
       clipPathUnits="userSpaceOnUse">
      <path
         inkscape:connector-curvature="0"
         id="path6561"
         d="m 399.304,39.3604 h 2.924 v -2.9238 h -2.924 z" />
    </clipPath>
    <clipPath
       id="clipPath6611"
       clipPathUnits="userSpaceOnUse">
      <path
         inkscape:connector-curvature="0"
         id="path6609"
         d="m 438.875,27.0799 h 37.336 v -4.262 h -37.336 z" />
    </clipPath>
    <clipPath
       id="clipPath6775"
       clipPathUnits="userSpaceOnUse">
      <path
         inkscape:connector-curvature="0"
         id="path6773"
         d="m 434.719,321.39 h 4.572 v -5.782 h -4.572 z" />
    </clipPath>
    <clipPath
       id="clipPath6815"
       clipPathUnits="userSpaceOnUse">
      <path
         inkscape:connector-curvature="0"
         id="path6813"
         d="m 413.99,269 h 43.406 V 243.968 H 413.99 Z" />
    </clipPath>
    <clipPath
       id="clipPath9404"
       clipPathUnits="userSpaceOnUse">
      <path
         inkscape:connector-curvature="0"
         id="path9402"
         d="M 0,500 H 750 V 0 H 0 Z" />
    </clipPath>
    <clipPath
       id="clipPath9416"
       clipPathUnits="userSpaceOnUse">
      <path
         inkscape:connector-curvature="0"
         id="path9414"
         d="M 0,500 H 750 V 0 H 0 Z" />
    </clipPath>
    <clipPath
       id="clipPath9440"
       clipPathUnits="userSpaceOnUse">
      <path
         inkscape:connector-curvature="0"
         id="path9438"
         d="M 119.836,184.567 H 228.101 V 109.529 H 119.836 Z" />
    </clipPath>
    <clipPath
       id="clipPath9456"
       clipPathUnits="userSpaceOnUse">
      <path
         inkscape:connector-curvature="0"
         id="path9454"
         d="M 500.039,182.406 H 610.034 V 107.357 H 500.039 Z" />
    </clipPath>
    <clipPath
       id="clipPath9512"
       clipPathUnits="userSpaceOnUse">
      <path
         inkscape:connector-curvature="0"
         id="path9510"
         d="M 76.7633,149.315 H 87.8334 V 131.164 H 76.7633 Z" />
    </clipPath>
    <clipPath
       id="clipPath9532"
       clipPathUnits="userSpaceOnUse">
      <path
         inkscape:connector-curvature="0"
         id="path9530"
         d="m 487.497,192.773 h 129.185 v -84.63 H 487.497 Z" />
    </clipPath>
    <clipPath
       id="clipPath9556"
       clipPathUnits="userSpaceOnUse">
      <path
         inkscape:connector-curvature="0"
         id="path9554"
         d="M 108.164,198.669 H 242.389 V 114.145 H 108.164 Z" />
    </clipPath>
    <clipPath
       id="clipPath8017-3"
       clipPathUnits="userSpaceOnUse">
      <path
         inkscape:connector-curvature="0"
         id="path8015-2-4"
         d="m 296.379,396.529 h 166.99 V 178.478 h -166.99 z" />
    </clipPath>
    <clipPath
       id="clipPath8037-6"
       clipPathUnits="userSpaceOnUse">
      <path
         inkscape:connector-curvature="0"
         id="path8035-4"
         d="m 338.34,377.477 h 83.069 V 267.918 H 338.34 Z" />
    </clipPath>
    <clipPath
       id="clipPath8057-9"
       clipPathUnits="userSpaceOnUse">
      <path
         inkscape:connector-curvature="0"
         id="path8055-6"
         d="m 370.517,280.98 h 18.715 v -32.307 h -18.715 z" />
    </clipPath>
  </defs>
  <sodipodi:namedview
     id="base"
     pagecolor="#ffffff"
     bordercolor="#666666"
     borderopacity="1.0"
     inkscape:pageopacity="0.0"
     inkscape:pageshadow="2"
     inkscape:zoom="5.6"
     inkscape:cx="55.551487"
     inkscape:cy="17.418735"
     inkscape:document-units="mm"
     inkscape:current-layer="layer1"
     showgrid="false"
     inkscape:window-width="2880"
     inkscape:window-height="1526"
     inkscape:window-x="2869"
     inkscape:window-y="-11"
     inkscape:window-maximized="1"
     fit-margin-top="0"
     fit-margin-left="0"
     fit-margin-right="0"
     fit-margin-bottom="0" />
  <metadata
     id="metadata2565">
    <rdf:RDF>
      <cc:Work
         rdf:about="">
        <dc:format>image/svg+xml</dc:format>
        <dc:type
           rdf:resource="http://purl.org/dc/dcmitype/StillImage" />
        <dc:title></dc:title>
      </cc:Work>
    </rdf:RDF>
  </metadata>
  <g
     inkscape:label="Capa 1"
     inkscape:groupmode="layer"
     id="layer1"
     transform="translate(185.74927,-82.349811)">
    <g
       style="fill:#476c9b;fill-opacity:1"
       transform="matrix(0.02375197,0,0,0.02375197,-186.13643,82.349811)"
       id="g4282">
      <g
         style="fill:#476c9b;fill-opacity:1"
         id="g4180">
        <g
           style="fill:#476c9b;fill-opacity:1"
           id="g4178">
          <path
             style="fill:#476c9b;fill-opacity:1"
             inkscape:connector-curvature="0"
             d="M 106.4,0.1 C 70.3,0 40.9,29.4 40.9,65.5 c 0,36.2 29.4,65.6 65.5,65.6 36.1,0 65.5,-29.4 65.5,-65.5 0,-36.1 -29.4,-65.5 -65.5,-65.5 z m 0,114.7 c -27.1,0 -49.1,-22.1 -49.1,-49.3 0,-27.2 22,-49.1 49.1,-49.1 27.1,0 49.2,22.1 49.2,49.2 0,27.1 -22.1,49.2 -49.2,49.2 z"
             id="path4176" />
        </g>
      </g>
      <g
         style="fill:#476c9b;fill-opacity:1"
         id="g4186">
        <g
           style="fill:#476c9b;fill-opacity:1"
           id="g4184">
          <path
             style="fill:#476c9b;fill-opacity:1"
             inkscape:connector-curvature="0"
             d="m 401.4,0 c -36.1,0 -65.5,29.4 -65.5,65.5 -0.1,36.2 29.3,65.6 65.5,65.6 36.1,0 65.5,-29.4 65.5,-65.5 C 466.9,29.4 437.5,0 401.4,0 Z m 0,114.8 c -27.1,0 -49.2,-22.1 -49.2,-49.2 0,-27.1 22.1,-49.2 49.2,-49.2 27.1,0 49.2,22.1 49.2,49.2 0,27.1 -22.1,49.2 -49.2,49.2 z"
             id="path4182" />
        </g>
      </g>
      <g
         style="fill:#476c9b;fill-opacity:1"
         id="g4192">
        <g
           style="fill:#476c9b;fill-opacity:1"
           id="g4190">
          <path
             style="fill:#476c9b;fill-opacity:1"
             inkscape:connector-curvature="0"
             d="M 450.5,155.7 H 333.6 c -17,0 -32,10.2 -38.1,26 L 253.9,288 212.3,181.8 c -6.2,-15.8 -21.2,-26 -38.2,-26 h -37 L 106.4,211.2 75.7,155.8 H 57.3 c -22.6,0 -41,18.4 -41,41 V 360.7 H 49.1 V 508 H 163.8 V 228.2 l 51.8,132.3 h 49.2 17.6 10 L 344.2,228.2 V 508 H 458.9 V 360.5 h 32.8 V 196.6 c -0.2,-22.5 -18.6,-40.9 -41.2,-40.9 z M 226.7,344 v 0.1 L 179,222.2 c -2.9,-7.4 -10.4,-11.6 -18.3,-10.1 -7.9,1.5 -13.3,8.1 -13.3,16.1 V 491.6 H 114.6 V 368.7 H 98.2 V 491.6 H 65.4 V 344.1 H 32.7 V 196.6 C 32.7,183 43.7,172 57.3,172 h 8.8 l 40.4,72.8 40.4,-72.8 h 27.4 c 10.2,0 19.2,6.1 22.9,15.6 L 258.4,344 Z m 248.4,0.1 H 442.3 V 491.6 H 409.5 V 368.7 H 393.1 V 491.6 H 360.3 V 228.2 c 0,-8 -5.5,-14.6 -13.3,-16.1 -7.9,-1.5 -15.4,2.7 -18.3,10.1 L 281,344.1 h -5.1 l -13.2,-33.7 48,-122.8 c 3.7,-9.5 12.7,-15.6 22.9,-15.6 h 116.9 c 13.6,0 24.6,11 24.6,24.6 z"
             id="path4188" />
        </g>
      </g>
      <g
         style="fill:#476c9b;fill-opacity:1"
         id="g4198">
        <g
           style="fill:#476c9b;fill-opacity:1"
           id="g4196">
          <rect
             style="fill:#476c9b;fill-opacity:1"
             x="393.20001"
             y="188.5"
             width="16.4"
             height="16.4"
             id="rect4194" />
        </g>
      </g>
      <g
         style="fill:#476c9b;fill-opacity:1"
         id="g4204">
        <g
           style="fill:#476c9b;fill-opacity:1"
           id="g4202">
          <rect
             style="fill:#476c9b;fill-opacity:1"
             x="393.20001"
             y="221.2"
             width="16.4"
             height="16.4"
             id="rect4200" />
        </g>
      </g>
      <g
         style="fill:#476c9b;fill-opacity:1"
         id="g4210">
        <g
           style="fill:#476c9b;fill-opacity:1"
           id="g4208">
          <rect
             style="fill:#476c9b;fill-opacity:1"
             x="393.20001"
             y="254"
             width="16.4"
             height="16.4"
             id="rect4206" />
        </g>
      </g>
      <g
         style="fill:#476c9b;fill-opacity:1"
         id="g4212" />
      <g
         style="fill:#476c9b;fill-opacity:1"
         id="g4214" />
      <g
         style="fill:#476c9b;fill-opacity:1"
         id="g4216" />
      <g
         style="fill:#476c9b;fill-opacity:1"
         id="g4218" />
      <g
         style="fill:#476c9b;fill-opacity:1"
         id="g4220" />
      <g
         style="fill:#476c9b;fill-opacity:1"
         id="g4222" />
      <g
         style="fill:#476c9b;fill-opacity:1"
         id="g4224" />
      <g
         style="fill:#476c9b;fill-opacity:1"
         id="g4226" />
      <g
         style="fill:#476c9b;fill-opacity:1"
         id="g4228" />
      <g
         style="fill:#476c9b;fill-opacity:1"
         id="g4230" />
      <g
         style="fill:#476c9b;fill-opacity:1"
         id="g4232" />
      <g
         style="fill:#476c9b;fill-opacity:1"
         id="g4234" />
      <g
         style="fill:#476c9b;fill-opacity:1"
         id="g4236" />
      <g
         style="fill:#476c9b;fill-opacity:1"
         id="g4238" />
      <g
         style="fill:#476c9b;fill-opacity:1"
         id="g4240" />
    </g>
  </g>
</svg>
