<?xml version="1.0" encoding="UTF-8" standalone="no"?>
<!-- Created with Inkscape (http://www.inkscape.org/) -->

<svg
   xmlns:dc="http://purl.org/dc/elements/1.1/"
   xmlns:cc="http://creativecommons.org/ns#"
   xmlns:rdf="http://www.w3.org/1999/02/22-rdf-syntax-ns#"
   xmlns:svg="http://www.w3.org/2000/svg"
   xmlns="http://www.w3.org/2000/svg"
   xmlns:sodipodi="http://sodipodi.sourceforge.net/DTD/sodipodi-0.dtd"
   xmlns:inkscape="http://www.inkscape.org/namespaces/inkscape"
   width="8.3105698mm"
   height="6.7040782mm"
   viewBox="0 0 8.3105698 6.7040777"
   version="1.1"
   id="svg6744"
   inkscape:version="0.92.5 (2060ec1f9f, 2020-04-08)"
   sodipodi:docname="icon5.svg">
  <defs
     id="defs6738" />
  <sodipodi:namedview
     id="base"
     pagecolor="#ffffff"
     bordercolor="#666666"
     borderopacity="1.0"
     inkscape:pageopacity="0.0"
     inkscape:pageshadow="2"
     inkscape:zoom="0.98994949"
     inkscape:cx="280.41821"
     inkscape:cy="84.940062"
     inkscape:document-units="mm"
     inkscape:current-layer="layer1"
     showgrid="false"
     fit-margin-top="0"
     fit-margin-left="0"
     fit-margin-right="0"
     fit-margin-bottom="0"
     inkscape:window-width="2880"
     inkscape:window-height="1526"
     inkscape:window-x="2869"
     inkscape:window-y="-11"
     inkscape:window-maximized="1" />
  <metadata
     id="metadata6741">
    <rdf:RDF>
      <cc:Work
         rdf:about="">
        <dc:format>image/svg+xml</dc:format>
        <dc:type
           rdf:resource="http://purl.org/dc/dcmitype/StillImage" />
        <dc:title></dc:title>
      </cc:Work>
    </rdf:RDF>
  </metadata>
  <g
     inkscape:label="Capa 1"
     inkscape:groupmode="layer"
     id="layer1"
     transform="translate(268.4327,-160.70231)">
    <g
       id="g9462"
       transform="matrix(0.01635939,0,0,0.01635939,-268.4327,159.89906)"
       style="fill:#10416d;fill-opacity:1">
      <g
         id="g9378"
         style="fill:#10416d;fill-opacity:1">
        <g
           id="g9376"
           style="fill:#10416d;fill-opacity:1">
          <path
             id="path9374-8"
             d="m 284.3,136.9 c 11.4,-9 18.8,-23 18.8,-38.6 0,-27.1 -22.1,-49.2 -49.2,-49.2 -27.1,0 -49.2,22.1 -49.2,49.2 0,15.7 7.4,29.6 18.9,38.6 -34.8,13.6 -59.8,49.9 -59.8,92.5 v 8.2 H 344 v -8.2 h 0.1 c 0,-42.6 -25,-78.9 -59.8,-92.5 z M 221.2,98.3 c 0,-18.1 14.7,-32.8 32.8,-32.8 18.1,0 32.8,14.7 32.8,32.8 0,18.1 -14.7,32.8 -32.8,32.8 -18.1,0 -32.8,-14.7 -32.8,-32.8 z m -40.5,122.9 c 3.7,-41.3 35.2,-73.8 73.4,-73.8 38.2,0 69.6,32.4 73.4,73.8 z"
             inkscape:connector-curvature="0"
             style="fill:#10416d;fill-opacity:1" />
        </g>
      </g>
      <g
         id="g9384"
         style="fill:#10416d;fill-opacity:1">
        <g
           id="g9382"
           style="fill:#10416d;fill-opacity:1">
          <path
             id="path9380"
             d="m 120.4,358.2 c 11.4,-9 18.8,-23 18.8,-38.6 0,-27.1 -22.1,-49.2 -49.2,-49.2 -27.1,0 -49.2,22.1 -49.2,49.2 0,15.7 7.4,29.6 18.9,38.6 C 25,371.8 0,408.1 0,450.7 v 8.2 h 180.2 v -8.2 c 0,-42.6 -25,-78.9 -59.8,-92.5 z M 57.3,319.6 c 0,-18.1 14.7,-32.8 32.8,-32.8 18.1,0 32.8,14.7 32.8,32.8 0,18.1 -14.7,32.8 -32.8,32.8 -18.1,0 -32.8,-14.7 -32.8,-32.8 z M 16.8,442.5 c 3.7,-41.3 35.2,-73.8 73.4,-73.8 38.2,0 69.6,32.4 73.4,73.8 z"
             inkscape:connector-curvature="0"
             style="fill:#10416d;fill-opacity:1" />
        </g>
      </g>
      <g
         id="g9390"
         style="fill:#10416d;fill-opacity:1">
        <g
           id="g9388"
           style="fill:#10416d;fill-opacity:1">
          <path
             id="path9386"
             d="m 448.2,358.2 c 11.4,-9 18.8,-23 18.8,-38.6 0,-27.1 -22.1,-49.2 -49.2,-49.2 -27.1,0 -49.2,22.1 -49.2,49.2 0,15.7 7.4,29.6 18.9,38.6 -34.8,13.6 -59.8,49.9 -59.8,92.5 v 8.2 H 508 v -8.2 c 0,-42.6 -25,-78.9 -59.8,-92.5 z m -63.1,-38.6 c 0,-18.1 14.7,-32.8 32.8,-32.8 18.1,0 32.8,14.7 32.8,32.8 0,18.1 -14.7,32.8 -32.8,32.8 -18.1,0 -32.8,-14.7 -32.8,-32.8 z m -40.6,122.9 c 3.7,-41.3 35.2,-73.8 73.4,-73.8 38.2,0 69.6,32.4 73.4,73.8 z"
             inkscape:connector-curvature="0"
             style="fill:#10416d;fill-opacity:1" />
        </g>
      </g>
      <g
         id="g9396"
         style="fill:#10416d;fill-opacity:1">
        <g
           id="g9394"
           style="fill:#10416d;fill-opacity:1">
          <polygon
             id="polygon9392"
             points="182.6,403.9 194.2,415.5 254,355.7 313.8,415.5 325.4,403.9 262.2,340.7 262.2,254 245.8,254 245.8,340.7 "
             style="fill:#10416d;fill-opacity:1" />
        </g>
      </g>
      <g
         id="g9398"
         style="fill:#10416d;fill-opacity:1" />
      <g
         id="g9400"
         style="fill:#10416d;fill-opacity:1" />
      <g
         id="g9402"
         style="fill:#10416d;fill-opacity:1" />
      <g
         id="g9404"
         style="fill:#10416d;fill-opacity:1" />
      <g
         id="g9406"
         style="fill:#10416d;fill-opacity:1" />
      <g
         id="g9408"
         style="fill:#10416d;fill-opacity:1" />
      <g
         id="g9410"
         style="fill:#10416d;fill-opacity:1" />
      <g
         id="g9412"
         style="fill:#10416d;fill-opacity:1" />
      <g
         id="g9414"
         style="fill:#10416d;fill-opacity:1" />
      <g
         id="g9416"
         style="fill:#10416d;fill-opacity:1" />
      <g
         id="g9418"
         style="fill:#10416d;fill-opacity:1" />
      <g
         id="g9420"
         style="fill:#10416d;fill-opacity:1" />
      <g
         id="g9422"
         style="fill:#10416d;fill-opacity:1" />
      <g
         id="g9424"
         style="fill:#10416d;fill-opacity:1" />
      <g
         id="g9426"
         style="fill:#10416d;fill-opacity:1" />
    </g>
  </g>
</svg>
