<?xml version="1.0" encoding="UTF-8" standalone="no"?>
<!-- Created with Inkscape (http://www.inkscape.org/) -->

<svg
   xmlns:dc="http://purl.org/dc/elements/1.1/"
   xmlns:cc="http://creativecommons.org/ns#"
   xmlns:rdf="http://www.w3.org/1999/02/22-rdf-syntax-ns#"
   xmlns:svg="http://www.w3.org/2000/svg"
   xmlns="http://www.w3.org/2000/svg"
   xmlns:sodipodi="http://sodipodi.sourceforge.net/DTD/sodipodi-0.dtd"
   xmlns:inkscape="http://www.inkscape.org/namespaces/inkscape"
   width="17.6362mm"
   height="17.6362mm"
   viewBox="0 0 17.6362 17.6362"
   version="1.1"
   id="svg16166"
   inkscape:version="0.92.5 (2060ec1f9f, 2020-04-08)"
   sodipodi:docname="icono1.svg">
  <defs
     id="defs16160" />
  <sodipodi:namedview
     id="base"
     pagecolor="#ffffff"
     bordercolor="#666666"
     borderopacity="1.0"
     inkscape:pageopacity="0.0"
     inkscape:pageshadow="2"
     inkscape:zoom="1.4"
     inkscape:cx="193.79641"
     inkscape:cy="15.076314"
     inkscape:document-units="mm"
     inkscape:current-layer="layer1"
     showgrid="false"
     fit-margin-top="0"
     fit-margin-left="0"
     fit-margin-right="0"
     fit-margin-bottom="0"
     inkscape:window-width="2880"
     inkscape:window-height="1526"
     inkscape:window-x="2869"
     inkscape:window-y="-11"
     inkscape:window-maximized="1" />
  <metadata
     id="metadata16163">
    <rdf:RDF>
      <cc:Work
         rdf:about="">
        <dc:format>image/svg+xml</dc:format>
        <dc:type
           rdf:resource="http://purl.org/dc/dcmitype/StillImage" />
        <dc:title></dc:title>
      </cc:Work>
    </rdf:RDF>
  </metadata>
  <g
     inkscape:label="Capa 1"
     inkscape:groupmode="layer"
     id="layer1"
     transform="translate(-62.99738,-39.47357)">
    <g
       id="g6012-2-9-8-9-0"
       transform="translate(-194.37592,-217.5327)">
      <path
         inkscape:connector-curvature="0"
         d="m 275.0095,270.6601 v -10.0737 l -3.58013,-3.58013 h -10.0737 v 3.56444 l -1.52784,1.27324 c -1.19837,0.99878 -1.88562,2.4662 -1.88562,4.02626 v 5.3588 h -0.56891 v 3.41346 h 5.6891 v -3.41346 h -0.56891 v -0.56891 z m -3.41346,-12.68268 2.44232,2.44231 h -2.44232 z m -0.56891,-0.40224 v 3.41346 h 3.41346 v 9.10255 h -11.80515 c 0.0312,-0.0469 0.0674,-0.0913 0.10806,-0.13222 l 2.21675,-2.21675 c 0.24348,-0.24348 0.37779,-0.56752 0.37779,-0.91226 0,-0.71141 -0.57864,-1.29004 -1.29005,-1.29004 -0.34474,0 -0.66878,0.13431 -0.91226,0.37779 l -1.21115,1.21115 v -9.55368 z m -8.53364,14.22274 v 0.56891 h -4.55128 v -0.56891 z m -4.55128,2.27564 v -1.13782 h 4.55128 v 1.13782 z m 0.56891,-2.84455 v -5.3588 c 0,-1.39075 0.61266,-2.69871 1.68117,-3.58902 l 1.16338,-0.96935 v 6.19704 c -0.0608,0.0138 -0.1232,0.0222 -0.18695,0.0222 h -0.38196 v 0.56891 h 0.38196 c 0.38015,0 0.73739,-0.1482 1.00587,-0.41668 l 1.36338,-1.36338 c 0.13598,-0.13598 0.31723,-0.21112 0.51002,-0.21112 0.39737,0 0.72114,0.32376 0.72114,0.72113 0,0.19279 -0.0751,0.37377 -0.21112,0.51002 l -2.21675,2.21675 c -0.26848,0.26848 -0.41668,0.62572 -0.41668,1.00587 v 0.66641 z m 0,0"
         id="path5935-1-9-2-6-1-0"
         style="stroke-width:0.03555686" />
      <path
         style="fill:#476c9b;fill-opacity:1;stroke-width:0.13438813"
         d="m -83.648438,591.65625 v 2.15039 h 2.150391 v -2.15039 z m 4.300782,0 v 2.15039 h 25.802734 v -2.15039 z m -4.300782,4.30078 v 2.15039 h 30.103516 v -2.15039 z m 0,4.30078 v 2.15039 h 25.802735 v -2.15039 z m 27.953126,0 v 2.15039 h 2.15039 v -2.15039 z m -27.953126,4.30078 v 2.15039 h 43.003907 v -2.15039 z m 0,4.29883 v 2.15039 h 15.050782 v -2.15039 z m 23.652344,2.15039 v 6.45117 h -6.451172 v 17.20118 h 19.351563 v -6.44922 h 6.451172 v -17.20313 z m -23.652344,2.15039 v 2.15039 h 15.050782 v -2.15039 z m 25.802735,0 h 15.050781 v 12.90235 h -15.050781 z m 10.966797,1.50586 -5.707032,7.60938 -2.349609,-2.34961 -1.519531,1.52148 4.101562,4.10157 7.19336,-9.59376 z m -17.417969,4.94532 h 4.300781 v 8.60156 h 10.751953 v 4.29883 h -15.052734 z"
         transform="matrix(0.26458333,0,0,0.26458333,284.62546,101.60161)"
         id="path5937-5-7-4-4-1"
         inkscape:connector-curvature="0" />
    </g>
  </g>
</svg>
