<?xml version="1.0" encoding="UTF-8" standalone="no"?>
<!-- Created with Inkscape (http://www.inkscape.org/) -->

<svg
   xmlns:dc="http://purl.org/dc/elements/1.1/"
   xmlns:cc="http://creativecommons.org/ns#"
   xmlns:rdf="http://www.w3.org/1999/02/22-rdf-syntax-ns#"
   xmlns:svg="http://www.w3.org/2000/svg"
   xmlns="http://www.w3.org/2000/svg"
   xmlns:sodipodi="http://sodipodi.sourceforge.net/DTD/sodipodi-0.dtd"
   xmlns:inkscape="http://www.inkscape.org/namespaces/inkscape"
   width="7.2873087mm"
   height="6.8195662mm"
   viewBox="0 0 7.2873086 6.8195662"
   version="1.1"
   id="svg8343"
   inkscape:version="0.92.5 (2060ec1f9f, 2020-04-08)"
   sodipodi:docname="icono8.svg">
  <defs
     id="defs8337">
    <clipPath
       id="clipPath6657"
       clipPathUnits="userSpaceOnUse">
      <path
         inkscape:connector-curvature="0"
         id="path6655"
         d="M 0,500 H 750 V 0 H 0 Z" />
    </clipPath>
  </defs>
  <sodipodi:namedview
     id="base"
     pagecolor="#ffffff"
     bordercolor="#666666"
     borderopacity="1.0"
     inkscape:pageopacity="0.0"
     inkscape:pageshadow="2"
     inkscape:zoom="2.8"
     inkscape:cx="-64.378992"
     inkscape:cy="14.432554"
     inkscape:document-units="mm"
     inkscape:current-layer="layer1"
     showgrid="false"
     fit-margin-top="0"
     fit-margin-left="0"
     fit-margin-right="0"
     fit-margin-bottom="0"
     inkscape:window-width="2880"
     inkscape:window-height="1526"
     inkscape:window-x="2869"
     inkscape:window-y="-11"
     inkscape:window-maximized="1" />
  <metadata
     id="metadata8340">
    <rdf:RDF>
      <cc:Work
         rdf:about="">
        <dc:format>image/svg+xml</dc:format>
        <dc:type
           rdf:resource="http://purl.org/dc/dcmitype/StillImage" />
        <dc:title></dc:title>
      </cc:Work>
    </rdf:RDF>
  </metadata>
  <g
     inkscape:label="Capa 1"
     inkscape:groupmode="layer"
     id="layer1"
     transform="translate(-124.80269,-99.132595)">
    <g
       id="g19173"
       transform="matrix(0.01434792,0,0,0.01434792,124.80269,98.898724)"
       style="fill:#476c9b;fill-opacity:1">
      <g
         id="g19035"
         style="fill:#476c9b;fill-opacity:1">
        <g
           id="g19033"
           style="fill:#476c9b;fill-opacity:1">
          <rect
             id="rect19031"
             height="16.4"
             width="16.4"
             y="442.39999"
             x="409.70001"
             style="fill:#476c9b;fill-opacity:1" />
        </g>
      </g>
      <g
         id="g19041"
         style="fill:#476c9b;fill-opacity:1">
        <g
           id="g19039"
           style="fill:#476c9b;fill-opacity:1">
          <rect
             id="rect19037"
             height="16.4"
             width="16.4"
             y="442.39999"
             x="376.89999"
             style="fill:#476c9b;fill-opacity:1" />
        </g>
      </g>
      <g
         id="g19047"
         style="fill:#476c9b;fill-opacity:1">
        <g
           id="g19045"
           style="fill:#476c9b;fill-opacity:1">
          <rect
             id="rect19043"
             height="16.4"
             width="16.4"
             y="442.39999"
             x="344.10001"
             style="fill:#476c9b;fill-opacity:1" />
        </g>
      </g>
      <g
         id="g19053"
         style="fill:#476c9b;fill-opacity:1">
        <g
           id="g19051"
           style="fill:#476c9b;fill-opacity:1">
          <rect
             id="rect19049"
             height="16.4"
             width="114.7"
             y="442.39999"
             x="57.400002"
             style="fill:#476c9b;fill-opacity:1" />
        </g>
      </g>
      <g
         id="g19059"
         style="fill:#476c9b;fill-opacity:1">
        <g
           id="g19057"
           style="fill:#476c9b;fill-opacity:1">
          <path
             id="path19055"
             d="m 65.5,311.4 h 98.3 V 180.3 H 65.5 Z M 81.9,196.7 h 65.5 V 295 H 81.9 Z"
             inkscape:connector-curvature="0"
             style="fill:#476c9b;fill-opacity:1" />
        </g>
      </g>
      <g
         id="g19065"
         style="fill:#476c9b;fill-opacity:1">
        <g
           id="g19063"
           style="fill:#476c9b;fill-opacity:1">
          <rect
             id="rect19061"
             height="16.4"
             width="360.5"
             y="352.29999"
             x="65.5"
             style="fill:#476c9b;fill-opacity:1" />
        </g>
      </g>
      <g
         id="g19071"
         style="fill:#476c9b;fill-opacity:1">
        <g
           id="g19069"
           style="fill:#476c9b;fill-opacity:1">
          <rect
             id="rect19067"
             height="16.4"
             width="16.4"
             y="204.8"
             x="188.39999"
             style="fill:#476c9b;fill-opacity:1" />
        </g>
      </g>
      <g
         id="g19077"
         style="fill:#476c9b;fill-opacity:1">
        <g
           id="g19075"
           style="fill:#476c9b;fill-opacity:1">
          <rect
             id="rect19073"
             height="16.4"
             width="16.4"
             y="204.8"
             x="221.2"
             style="fill:#476c9b;fill-opacity:1" />
        </g>
      </g>
      <g
         id="g19083"
         style="fill:#476c9b;fill-opacity:1">
        <g
           id="g19081"
           style="fill:#476c9b;fill-opacity:1">
          <rect
             id="rect19079"
             height="16.4"
             width="16.4"
             y="204.8"
             x="254"
             style="fill:#476c9b;fill-opacity:1" />
        </g>
      </g>
      <g
         id="g19089"
         style="fill:#476c9b;fill-opacity:1">
        <g
           id="g19087"
           style="fill:#476c9b;fill-opacity:1">
          <path
             id="path19085"
             d="M 499.8,83 C 472.7,83 450.6,60.9 450.6,33.8 V 27.9 L 445,26 c -19.3,-6.4 -39.4,-9.7 -59.9,-9.7 h -8.2 v 0.4 c -17.6,0.7 -35.1,3.8 -51.8,9.3 l -5.6,1.9 v 5.9 c 0,13.1 -5.1,25.5 -14.4,34.8 -9.3,9.3 -21.6,14.4 -34.8,14.4 h -8.2 v 36.9 c 0,3.8 0.1,7.5 0.3,11.2 H 16.4 V 409.7 H 0 V 454 l 37.6,37.6 H 454 L 491.6,454 V 409.6 H 475.2 V 229.5 C 485.9,213.1 495.1,194 501,172.1 h 0.1 l 1.5,-6.3 c 3.5,-14.6 5.3,-30.1 5.3,-45.9 V 83 Z M 278.6,98.9 c 14.4,-1.8 27.7,-8.3 38.2,-18.7 10.9,-10.9 17.5,-25.1 18.9,-40.3 13.3,-4 27.2,-6.2 41.2,-6.8 v 122.6 h -94.8 c -1.1,-5.5 -2,-11.2 -2.5,-17 -0.6,-6.2 -1,-12.5 -1,-18.8 z M 377,172 v 115.2 h -0.1 c -0.1,-0.1 -0.3,-0.2 -0.4,-0.3 -0.9,-0.6 -1.9,-1.2 -2.8,-1.9 -1.1,-0.7 -2.2,-1.5 -3.4,-2.3 -0.7,-0.5 -1.5,-1.1 -2.3,-1.7 -1.5,-1.1 -3.1,-2.3 -4.8,-3.5 -0.6,-0.5 -1.3,-1 -2,-1.5 -1.9,-1.5 -3.9,-3 -5.9,-4.6 -0.5,-0.4 -1.1,-0.9 -1.6,-1.3 -2.2,-1.9 -4.5,-3.8 -6.8,-5.9 -0.4,-0.3 -0.7,-0.7 -1.1,-1 -2.6,-2.3 -5.2,-4.8 -7.8,-7.4 -0.1,-0.1 -0.3,-0.3 -0.4,-0.4 C 317.6,235.5 297,207.8 286.3,172 Z M 32.8,147.5 h 231.3 c 0.1,0.4 0.1,0.7 0.2,1.1 0.4,3 0.9,5.9 1.4,8.9 0,0.1 0,0.1 0,0.2 0.5,2.7 1,5.4 1.7,8.1 1.6,6.7 3.5,13.1 5.7,19.3 0.2,0.7 0.5,1.3 0.7,2 0.7,2.1 1.5,4.1 2.3,6.2 0.4,1.1 0.9,2.2 1.4,3.3 0.6,1.5 1.3,3 1.9,4.5 0.6,1.4 1.3,2.8 2,4.2 0.5,1.1 1,2.2 1.6,3.3 0.8,1.6 1.7,3.3 2.5,4.9 0.4,0.8 0.8,1.5 1.2,2.3 1,1.8 2,3.6 3,5.3 0.3,0.5 0.6,1 0.9,1.5 1.2,1.9 2.3,3.8 3.5,5.7 0.2,0.3 0.3,0.5 0.5,0.8 1.3,2.1 2.7,4.1 4.1,6.1 7,10.1 14.5,19.1 22.1,27.1 H 188.4 v 16.4 H 338 c 22.4,19.5 41.6,29.4 43.4,30.3 l 3.7,1.8 1.8,-0.9 1.8,-0.9 c 2.3,-1.2 38.2,-19.6 70,-57.3 v 158 H 278.6 V 426 H 213 V 409.6 H 32.8 Z m 442.4,299.7 -28,28 H 44.4 l -28,-28 V 426 h 180.3 v 16.4 H 295 V 426 H 475.2 Z M 458.7,224.3 c -0.3,0.5 -0.6,0.9 -0.9,1.3 -2.3,3.2 -4.6,6.3 -6.9,9.3 -5.1,6.4 -10.3,12.3 -15.5,17.6 -0.1,0.1 -0.2,0.2 -0.3,0.3 -5.1,5.2 -10.2,9.9 -15.1,14.2 -0.3,0.2 -0.5,0.4 -0.8,0.7 -4.7,4 -9.3,7.6 -13.4,10.7 -0.4,0.3 -0.9,0.6 -1.3,0.9 -1.6,1.2 -3.1,2.3 -4.6,3.3 -0.5,0.3 -0.9,0.7 -1.4,1 -1.7,1.1 -3.2,2.2 -4.7,3.2 -0.2,0.1 -0.3,0.2 -0.5,0.3 v -115 h 90.6 c -5.9,19.8 -14.9,37.3 -25.2,52.2 z m 32.9,-104.4 c 0,5.6 -0.3,11 -0.8,16.5 -0.1,0.9 -0.1,1.9 -0.2,2.8 -0.5,5.1 -1.3,10.2 -2.2,15.1 -0.1,0.5 -0.2,0.9 -0.3,1.4 H 393.3 V 33.1 c 1,0 2,0 3,0.1 1,0.1 2,0.1 3,0.2 3,0.2 6,0.6 9,1 1,0.1 2,0.3 3.1,0.4 3,0.5 6,1 9,1.6 0.9,0.2 1.9,0.4 2.8,0.6 3.8,0.9 7.6,1.8 11.4,2.9 2.8,30.6 26.7,55.2 57,59 z"
             inkscape:connector-curvature="0"
             style="fill:#476c9b;fill-opacity:1" />
        </g>
      </g>
      <g
         id="g19091"
         style="fill:#476c9b;fill-opacity:1" />
      <g
         id="g19093"
         style="fill:#476c9b;fill-opacity:1" />
      <g
         id="g19095"
         style="fill:#476c9b;fill-opacity:1" />
      <g
         id="g19097"
         style="fill:#476c9b;fill-opacity:1" />
      <g
         id="g19099"
         style="fill:#476c9b;fill-opacity:1" />
      <g
         id="g19101"
         style="fill:#476c9b;fill-opacity:1" />
      <g
         id="g19103"
         style="fill:#476c9b;fill-opacity:1" />
      <g
         id="g19105"
         style="fill:#476c9b;fill-opacity:1" />
      <g
         id="g19107"
         style="fill:#476c9b;fill-opacity:1" />
      <g
         id="g19109"
         style="fill:#476c9b;fill-opacity:1" />
      <g
         id="g19111"
         style="fill:#476c9b;fill-opacity:1" />
      <g
         id="g19113"
         style="fill:#476c9b;fill-opacity:1" />
      <g
         id="g19115"
         style="fill:#476c9b;fill-opacity:1" />
      <g
         id="g19117"
         style="fill:#476c9b;fill-opacity:1" />
      <g
         id="g19119"
         style="fill:#476c9b;fill-opacity:1" />
    </g>
  </g>
</svg>
