<?xml version="1.0" encoding="UTF-8" standalone="no"?>
<!-- Created with Inkscape (http://www.inkscape.org/) -->

<svg
   xmlns:dc="http://purl.org/dc/elements/1.1/"
   xmlns:cc="http://creativecommons.org/ns#"
   xmlns:rdf="http://www.w3.org/1999/02/22-rdf-syntax-ns#"
   xmlns:svg="http://www.w3.org/2000/svg"
   xmlns="http://www.w3.org/2000/svg"
   xmlns:sodipodi="http://sodipodi.sourceforge.net/DTD/sodipodi-0.dtd"
   xmlns:inkscape="http://www.inkscape.org/namespaces/inkscape"
   width="14.313653mm"
   height="14.427692mm"
   viewBox="0 0 14.313653 14.427692"
   version="1.1"
   id="svg11022"
   inkscape:version="0.92.5 (2060ec1f9f, 2020-04-08)"
   sodipodi:docname="icon1.svg">
  <defs
     id="defs11016" />
  <sodipodi:namedview
     id="base"
     pagecolor="#ffffff"
     bordercolor="#666666"
     borderopacity="1.0"
     inkscape:pageopacity="0.0"
     inkscape:pageshadow="2"
     inkscape:zoom="5.6"
     inkscape:cx="68.341151"
     inkscape:cy="-31.757457"
     inkscape:document-units="mm"
     inkscape:current-layer="layer1"
     showgrid="false"
     fit-margin-top="0"
     fit-margin-left="0"
     fit-margin-right="0"
     fit-margin-bottom="0"
     inkscape:window-width="2400"
     inkscape:window-height="1271"
     inkscape:window-x="2391"
     inkscape:window-y="-9"
     inkscape:window-maximized="1" />
  <metadata
     id="metadata11019">
    <rdf:RDF>
      <cc:Work
         rdf:about="">
        <dc:format>image/svg+xml</dc:format>
        <dc:type
           rdf:resource="http://purl.org/dc/dcmitype/StillImage" />
        <dc:title></dc:title>
      </cc:Work>
    </rdf:RDF>
  </metadata>
  <g
     inkscape:label="Capa 1"
     inkscape:groupmode="layer"
     id="layer1"
     transform="translate(111.97808,69.861297)">
    <g
       style="fill:#ffffff"
       transform="matrix(0.02840097,0,0,0.02840097,-112.03509,-69.861297)"
       id="g11217">
      <g
         style="fill:#ffffff"
         id="g11088">
        <g
           style="fill:#ffffff"
           id="g11086">
          <path
             style="fill:#ffffff"
             inkscape:connector-curvature="0"
             d="M 452.592,162.2 V 95.5 c 19.1,-6.8 32.8,-24.9 32.8,-46.3 0,-27.1 -22.1,-49.2 -49.2,-49.2 h -254 -0.5 -0.1 -7.6 l -8.2,0.4 V 0.9 C 76.292,9 4.892,84 2.092,174.5 c -1.8,58.8 25.2,114.9 72.4,150 27.8,20.8 40.8,42.7 42,70.3 -9.4,3.5 -16.2,12.4 -16.2,23 0,4.4 1.3,8.5 3.3,12.1 -6.9,4.4 -11.5,12 -11.5,20.7 0,8.7 4.6,16.4 11.5,20.7 -2,3.6 -3.3,7.7 -3.3,12.1 0,13.6 11,24.6 24.6,24.6 h 114.7 c 13.6,0 24.6,-11 24.6,-24.6 0,-4.4 -1.3,-8.5 -3.3,-12.1 6.9,-4.4 11.5,-12 11.5,-20.7 0,-8.7 -4.6,-16.4 -11.5,-20.7 2,-3.6 3.3,-7.7 3.3,-12.1 0,-10.6 -6.8,-19.5 -16.2,-23 1.2,-27.5 14.4,-49.5 42.6,-70.8 45.7,-34.4 71.9,-86.8 71.9,-143.8 0,-29.1 -6.8,-56.9 -19.6,-81.9 h 93.3 v 67.2 l 44.9,104.8 h -44.9 v 49.2 h -32.8 v 16.4 h 32.8 v 24.6 c 0,13.6 -11,24.6 -24.6,24.6 h -73.7 v 8.2 8.2 106.5 h 16.4 V 401.5 h 57.4 c 22.6,0 41,-18.4 41,-41 v -73.7 h 53.3 z m -213,329.4 h -114.7 c -4.5,0 -8.2,-3.7 -8.2,-8.2 0,-4.5 3.7,-8.2 8.2,-8.2 h 114.7 c 4.5,0 8.2,3.7 8.2,8.2 0,4.5 -3.7,8.2 -8.2,8.2 z m 16.4,-40.9 c 0,4.5 -3.7,8.2 -8.2,8.2 h -8.2 -114.7 -8.2 c -4.5,0 -8.2,-3.7 -8.2,-8.2 0,-4.5 3.7,-8.2 8.2,-8.2 h 8.2 114.7 8.2 c 4.5,0 8.2,3.7 8.2,8.2 z m -139.3,-32.8 c 0,-4.5 3.7,-8.2 8.2,-8.2 h 114.7 c 4.5,0 8.2,3.7 8.2,8.2 0,4.5 -3.7,8.2 -8.2,8.2 h -114.7 c -4.5,0 -8.2,-3.7 -8.2,-8.2 z m 229.4,-237.6 c 0,51.8 -23.8,99.5 -65.3,130.8 -31.8,24 -47.6,50.2 -49.2,82.3 h -98.6 c -1.6,-32.2 -17.2,-58.4 -48.7,-81.9 -42.9,-32 -67.5,-83 -65.8,-136.4 2.5,-83.1 68.5,-151.6 150.8,-158.1 l 7.9,-0.4 c 3.7,-0.1 7.3,-0.2 11,0 1,0 2,0 2.9,0.1 4.8,0.3 9.5,0.7 14.2,1.4 1.2,0.2 2.5,0.4 3.7,0.6 4,0.6 7.9,1.4 11.8,2.4 1,0.2 1.9,0.4 2.9,0.7 4.3,1.1 8.6,2.5 12.8,4 1.5,0.5 3,1.1 4.4,1.6 4.1,1.6 8.2,3.3 12.1,5.2 1.1,0.5 2.1,1.1 3.2,1.7 3.3,1.7 6.5,3.5 9.7,5.4 1.2,0.7 2.5,1.5 3.7,2.3 3.7,2.4 7.3,4.9 10.9,7.5 1.3,1 2.5,2 3.8,3 2.6,2.1 5.2,4.3 7.7,6.6 2.3,2.1 4.4,4.2 6.6,6.4 1.6,1.6 3.1,3.2 4.6,4.8 6.7,7.5 12.9,15.6 18.3,24.4 l 2.4,3.9 h 0.1 c 14.4,24.3 22.1,52.3 22.1,81.7 z m 90,-98.3 h -102.7 v -0.1 c -7.7,-11.7 -16.7,-22.6 -27.2,-32.5 -5.2,-4.9 -10.6,-9.4 -16.2,-13.6 -0.3,-0.2 -0.6,-0.4 -0.8,-0.6 -3,-2.2 -6.1,-4.4 -9.3,-6.4 -0.3,-0.2 -0.5,-0.4 -0.8,-0.5 -6.9,-4.4 -14.1,-8.4 -21.5,-11.8 -0.1,0 -0.1,-0.1 -0.2,-0.1 h 178.7 c 18.1,0 32.8,14.7 32.8,32.8 0,18.1 -14.7,32.8 -32.8,32.8 z"
             id="path11084" />
        </g>
      </g>
      <g
         style="fill:#ffffff"
         id="g11094">
        <g
           style="fill:#ffffff"
           id="g11092">
          <rect
             style="fill:#ffffff"
             x="387.09201"
             y="172.10001"
             width="32.799999"
             height="16.4"
             id="rect11090" />
        </g>
      </g>
      <g
         style="fill:#ffffff"
         id="g11100">
        <g
           style="fill:#ffffff"
           id="g11098">
          <path
             style="fill:#ffffff"
             inkscape:connector-curvature="0"
             d="m 305.092,147.6 c 0,-14.1 -6.1,-27.5 -16.5,-36.8 0.1,-1.4 0.2,-2.9 0.2,-4.3 0,-27.1 -22.1,-49.2 -49.2,-49.2 h -20.9 c -9.4,-10.4 -22.4,-16.3 -36.5,-16.3 -14,0 -27.1,5.9 -36.5,16.4 h -20.9 c -27.1,0 -49.2,22.1 -49.2,49.2 0,1.4 0.1,2.8 0.2,4.3 -10.5,9.3 -16.6,22.7 -16.6,36.7 0,11.7 4.1,22.7 11.6,31.6 -2.3,5.7 -3.4,11.6 -3.4,17.6 0,18.3 10,34.8 25.9,43.3 1.3,6 3.8,11.7 7.2,16.8 -0.2,1.9 -0.3,3.7 -0.3,5.4 0,25.8 19.9,47 45.3,49 9.4,10.6 22.5,16.5 36.6,16.5 14.1,0 27.2,-6 36.6,-16.5 25.3,-1.9 45.4,-23.2 45.4,-49 0,-1.7 -0.1,-3.5 -0.3,-5.4 3.4,-5.1 5.9,-10.8 7.2,-16.8 15.9,-8.5 25.9,-25 25.9,-43.3 0,-6 -1.1,-11.9 -3.4,-17.6 7.5,-8.8 11.6,-19.9 11.6,-31.6 z m -130.9,162.5 c -7.2,-1.7 -13.4,-5.8 -18,-11.9 l -2.6,-3.3 h -4.1 c -18.1,0 -32.8,-14.7 -32.8,-32.8 0,-1.8 0.2,-3.7 0.6,-6 l 0.7,-3.7 -2.3,-2.9 c -3.7,-4.7 -6,-10.3 -6.7,-16.2 l -0.6,-4.7 -4.4,-1.8 c -12.2,-5.1 -20.1,-17 -20.1,-30.2 0,-5.2 1.4,-10.4 4,-15.3 l 3,-5.6 -4.6,-4.3 c -6.8,-6.3 -10.6,-14.8 -10.6,-23.9 0,-10.5 5.1,-20.4 13.8,-26.6 l 4.3,-3.1 -1,-5.1 c -0.4,-2.2 -0.6,-4.3 -0.6,-6.2 0,-18.1 14.7,-32.8 32.8,-32.8 h 28.8 l 2.5,-3.3 c 4.6,-6.1 10.9,-10.2 17.9,-12 z m 104,-138.7 -4.6,4.3 3,5.6 c 2.7,5 4,10.1 4,15.3 0,13.2 -7.9,25.1 -20.1,30.2 l -4.4,1.8 -0.6,4.7 c -0.7,5.9 -3.1,11.5 -6.7,16.2 l -2.3,2.9 0.7,3.7 c 0.4,2.3 0.6,4.2 0.6,6 0,18.1 -14.7,32.8 -33,32.8 h -4.1 l -2.5,3.3 c -4.6,6.1 -10.9,10.2 -17.9,12 V 58.5 c 7,1.8 13.3,6 17.9,12 l 2.5,3.3 h 28.9 c 18.1,0 32.8,14.7 32.8,32.8 0,2 -0.2,4 -0.6,6.2 l -1,5.2 4.3,3.1 c 8.6,6.2 13.8,16.1 13.8,26.6 -0.1,8.9 -3.9,17.4 -10.7,23.7 z"
             id="path11096" />
        </g>
      </g>
      <g
         style="fill:#ffffff"
         id="g11106">
        <g
           style="fill:#ffffff"
           id="g11104">
          <path
             style="fill:#ffffff"
             inkscape:connector-curvature="0"
             d="m 223.192,90.1 c -4.5,0 -8.2,3.7 -8.2,8.2 0,4.5 3.7,8.2 8.2,8.2 9,0 16.4,7.3 16.4,16.4 0,4.5 3.7,8.2 8.2,8.2 4.5,0 8.2,-3.7 8.2,-8.2 0,-18.1 -14.7,-32.8 -32.8,-32.8 z"
             id="path11102" />
        </g>
      </g>
      <g
         style="fill:#ffffff"
         id="g11112">
        <g
           style="fill:#ffffff"
           id="g11110">
          <path
             style="fill:#ffffff"
             inkscape:connector-curvature="0"
             d="m 221.292,231.8 c -3.2,-3.2 -8.4,-3.2 -11.6,0 -3.2,3.2 -3.2,8.4 0,11.6 5.8,5.8 5.8,15.3 0,21.2 -3.2,3.2 -3.2,8.4 0,11.6 1.6,1.6 3.7,2.4 5.8,2.4 2.1,0 4.2,-0.8 5.8,-2.4 12.2,-12.2 12.2,-32.1 0,-44.4 z"
             id="path11108" />
        </g>
      </g>
      <g
         style="fill:#ffffff"
         id="g11118">
        <g
           style="fill:#ffffff"
           id="g11116">
          <path
             style="fill:#ffffff"
             inkscape:connector-curvature="0"
             d="m 239.592,163.9 c -4.5,0 -8.2,3.7 -8.2,8.2 0,9 -7.3,16.4 -16.4,16.4 -4.5,0 -8.2,3.7 -8.2,8.2 0,4.5 3.7,8.2 8.2,8.2 18.1,0 32.8,-14.7 32.8,-32.8 0,-4.6 -3.7,-8.2 -8.2,-8.2 z"
             id="path11114" />
        </g>
      </g>
      <g
         style="fill:#ffffff"
         id="g11124">
        <g
           style="fill:#ffffff"
           id="g11122">
          <path
             style="fill:#ffffff"
             inkscape:connector-curvature="0"
             d="m 141.292,90.1 c -18.1,0 -32.8,14.7 -32.8,32.8 0,4.5 3.7,8.2 8.2,8.2 4.5,0 8.2,-3.7 8.2,-8.2 0,-9 7.3,-16.4 16.4,-16.4 4.5,0 8.2,-3.7 8.2,-8.2 0,-4.5 -3.7,-8.2 -8.2,-8.2 z"
             id="path11120" />
        </g>
      </g>
      <g
         style="fill:#ffffff"
         id="g11130">
        <g
           style="fill:#ffffff"
           id="g11128">
          <path
             style="fill:#ffffff"
             inkscape:connector-curvature="0"
             d="m 154.792,243.4 c 3.2,-3.2 3.2,-8.4 0,-11.6 -3.2,-3.2 -8.4,-3.2 -11.6,0 -12.2,12.2 -12.2,32.1 0,44.4 1.6,1.6 3.7,2.4 5.8,2.4 2.1,0 4.2,-0.8 5.8,-2.4 3.2,-3.2 3.2,-8.4 0,-11.6 -5.8,-5.8 -5.8,-15.3 0,-21.2 z"
             id="path11126" />
        </g>
      </g>
      <g
         style="fill:#ffffff"
         id="g11136">
        <g
           style="fill:#ffffff"
           id="g11134">
          <path
             style="fill:#ffffff"
             inkscape:connector-curvature="0"
             d="m 149.492,188.5 c -9,0 -16.4,-7.3 -16.4,-16.4 0,-4.5 -3.7,-8.2 -8.2,-8.2 -4.5,0 -8.2,3.7 -8.2,8.2 0,18.1 14.7,32.8 32.8,32.8 4.5,0 8.2,-3.7 8.2,-8.2 0,-4.6 -3.7,-8.2 -8.2,-8.2 z"
             id="path11132" />
        </g>
      </g>
      <g
         style="fill:#ffffff"
         id="g11138" />
      <g
         style="fill:#ffffff"
         id="g11140" />
      <g
         style="fill:#ffffff"
         id="g11142" />
      <g
         style="fill:#ffffff"
         id="g11144" />
      <g
         style="fill:#ffffff"
         id="g11146" />
      <g
         style="fill:#ffffff"
         id="g11148" />
      <g
         style="fill:#ffffff"
         id="g11150" />
      <g
         style="fill:#ffffff"
         id="g11152" />
      <g
         style="fill:#ffffff"
         id="g11154" />
      <g
         style="fill:#ffffff"
         id="g11156" />
      <g
         style="fill:#ffffff"
         id="g11158" />
      <g
         style="fill:#ffffff"
         id="g11160" />
      <g
         style="fill:#ffffff"
         id="g11162" />
      <g
         style="fill:#ffffff"
         id="g11164" />
      <g
         style="fill:#ffffff"
         id="g11166" />
    </g>
  </g>
</svg>
