<?xml version="1.0" encoding="UTF-8" standalone="no"?>
<!-- Created with Inkscape (http://www.inkscape.org/) -->

<svg
   xmlns:dc="http://purl.org/dc/elements/1.1/"
   xmlns:cc="http://creativecommons.org/ns#"
   xmlns:rdf="http://www.w3.org/1999/02/22-rdf-syntax-ns#"
   xmlns:svg="http://www.w3.org/2000/svg"
   xmlns="http://www.w3.org/2000/svg"
   xmlns:sodipodi="http://sodipodi.sourceforge.net/DTD/sodipodi-0.dtd"
   xmlns:inkscape="http://www.inkscape.org/namespaces/inkscape"
   width="7.2887435mm"
   height="7.2887435mm"
   viewBox="0 0 7.2887434 7.2887435"
   version="1.1"
   id="svg8343"
   inkscape:version="0.92.5 (2060ec1f9f, 2020-04-08)"
   sodipodi:docname="icono6.svg">
  <defs
     id="defs8337">
    <clipPath
       id="clipPath6657"
       clipPathUnits="userSpaceOnUse">
      <path
         inkscape:connector-curvature="0"
         id="path6655"
         d="M 0,500 H 750 V 0 H 0 Z" />
    </clipPath>
  </defs>
  <sodipodi:namedview
     id="base"
     pagecolor="#ffffff"
     bordercolor="#666666"
     borderopacity="1.0"
     inkscape:pageopacity="0.0"
     inkscape:pageshadow="2"
     inkscape:zoom="2.8"
     inkscape:cx="-87.281417"
     inkscape:cy="11.09774"
     inkscape:document-units="mm"
     inkscape:current-layer="layer1"
     showgrid="false"
     fit-margin-top="0"
     fit-margin-left="0"
     fit-margin-right="0"
     fit-margin-bottom="0"
     inkscape:window-width="2880"
     inkscape:window-height="1526"
     inkscape:window-x="2869"
     inkscape:window-y="-11"
     inkscape:window-maximized="1" />
  <metadata
     id="metadata8340">
    <rdf:RDF>
      <cc:Work
         rdf:about="">
        <dc:format>image/svg+xml</dc:format>
        <dc:type
           rdf:resource="http://purl.org/dc/dcmitype/StillImage" />
        <dc:title></dc:title>
      </cc:Work>
    </rdf:RDF>
  </metadata>
  <g
     inkscape:label="Capa 1"
     inkscape:groupmode="layer"
     id="layer1"
     transform="translate(-130.86229,-97.781079)">
    <g
       id="g15564"
       transform="matrix(0.01434792,0,0,0.01434792,130.86229,97.781079)"
       style="fill:#476c9b;fill-opacity:1">
      <g
         id="g15408"
         style="fill:#476c9b;fill-opacity:1">
        <g
           id="g15406"
           style="fill:#476c9b;fill-opacity:1">
          <path
             id="path15404"
             d="m 344.1,373.5 v -75.2 l -39.5,-9.9 c -1.5,-4.2 -3.2,-8.4 -5.2,-12.6 l 21,-35 -53.2,-53.2 -35,21 c -4.2,-2 -8.4,-3.8 -12.6,-5.3 l -9.9,-39.5 h -75.2 l -9.9,39.5 c -4.2,1.5 -8.4,3.3 -12.6,5.3 l -35,-21 -53.2,53.2 21,35 c -2,4.2 -3.8,8.4 -5.3,12.7 L 0,298.3 v 75.2 l 39.5,9.9 c 1.5,4.2 3.3,8.5 5.3,12.7 l -21,35 53.2,53.1 34.9,-21 c 4.2,2 8.4,3.8 12.6,5.3 l 9.9,39.5 h 75.2 l 9.9,-39.5 c 4.2,-1.5 8.4,-3.3 12.6,-5.3 l 35,21 53.2,-53.2 -21,-35 c 2,-4.2 3.8,-8.4 5.3,-12.6 z m -44.5,54.8 -35.1,35.1 -31.7,-19 -4.1,2.1 c -6.2,3.2 -12.5,5.8 -18.6,7.8 l -4.3,1.4 -9,35.8 h -49.6 l -8.9,-35.8 -4.3,-1.4 c -6.2,-2 -12.5,-4.6 -18.6,-7.8 l -4.1,-2.1 -31.7,19 -35.1,-35.1 19,-31.7 -2.1,-4.1 C 58.2,386.3 55.6,380 53.6,373.8 l -1.4,-4.3 -35.8,-9 v -49.6 l 35.8,-9 1.4,-4.3 c 2,-6.2 4.6,-12.5 7.8,-18.7 l 2.1,-4.1 -19,-31.7 35.1,-35.1 31.7,19 4.1,-2.1 c 6.2,-3.2 12.5,-5.8 18.7,-7.8 l 4.3,-1.4 8.9,-35.8 h 49.6 l 9,35.8 4.3,1.4 c 6.1,2 12.4,4.6 18.6,7.8 l 4.1,2.1 31.7,-19 35.1,35.1 -19,31.7 2.1,4.1 c 3.2,6.2 5.8,12.5 7.8,18.7 l 1.4,4.3 35.8,9 v 49.8 h -0.1 l -35.8,9 -1.4,4.3 c -2,6.2 -4.6,12.5 -7.8,18.6 l -2.1,4 z"
             inkscape:connector-curvature="0"
             style="fill:#476c9b;fill-opacity:1" />
        </g>
      </g>
      <g
         id="g15414"
         style="fill:#476c9b;fill-opacity:1">
        <g
           id="g15412"
           style="fill:#476c9b;fill-opacity:1">
          <path
             id="path15410"
             d="m 172.1,245.8 c -49.7,0 -90.1,40.4 -90.1,90.1 0,49.7 40.4,90.1 90.1,90.1 49.7,0 90.1,-40.4 90.1,-90.1 0,-49.7 -40.4,-90.1 -90.1,-90.1 z m 0,163.9 c -40.7,0 -73.7,-33.1 -73.7,-73.7 0,-40.6 33.1,-73.7 73.7,-73.7 40.6,0 73.7,33.1 73.7,73.7 0,40.6 -33.1,73.7 -73.7,73.7 z"
             inkscape:connector-curvature="0"
             style="fill:#476c9b;fill-opacity:1" />
        </g>
      </g>
      <g
         id="g15420"
         style="fill:#476c9b;fill-opacity:1">
        <g
           id="g15418"
           style="fill:#476c9b;fill-opacity:1">
          <path
             id="path15416"
             d="M 508,141.4 V 88 l -26.4,-6.6 c -0.7,-1.9 -1.5,-3.8 -2.4,-5.6 l 14,-23.3 -37.7,-37.7 -23.3,14 c -1.9,-0.9 -3.7,-1.6 -5.6,-2.4 L 420,0 H 366.6 L 360,26.4 c -1.9,0.7 -3.8,1.5 -5.6,2.4 l -23.3,-14 -37.7,37.7 14,23.3 c -0.9,1.9 -1.6,3.8 -2.4,5.6 L 278.6,88 v 53.4 L 305,148 c 0.7,1.9 1.5,3.8 2.4,5.6 l -14,23.3 37.7,37.7 23.3,-14 c 1.9,0.9 3.7,1.6 5.6,2.4 l 6.6,26.4 H 420 l 6.6,-26.4 c 1.9,-0.7 3.8,-1.5 5.6,-2.4 l 23.3,14 37.7,-37.7 -14,-23.3 c 0.9,-1.9 1.6,-3.7 2.4,-5.6 z m -35.4,33 -19.6,19.7 -20.1,-12 -4.1,2.1 c -3.8,2 -7.8,3.6 -11.7,4.9 l -4.3,1.4 -5.7,22.7 h -27.8 l -5.7,-22.7 -4.3,-1.4 c -3.9,-1.3 -7.8,-2.9 -11.7,-4.9 l -4.1,-2.1 -20.1,12 -19.6,-19.6 12,-20.1 -2.1,-4.1 c -2,-3.9 -3.6,-7.8 -4.9,-11.7 l -1.4,-4.3 -22.7,-5.7 v -27.8 l 22.7,-5.7 1.4,-4.3 c 1.2,-3.9 2.9,-7.8 4.9,-11.7 l 2.1,-4.1 -12,-20.1 19.6,-19.6 20.1,12 4.1,-2.1 c 3.8,-2 7.8,-3.6 11.7,-4.9 l 4.3,-1.4 5.7,-22.6 h 27.8 l 5.7,22.6 4.3,1.4 c 3.9,1.3 7.8,2.9 11.7,4.9 l 4.1,2.1 20.1,-12 19.6,19.7 -12,20.1 2.1,4.1 c 2,3.9 3.6,7.8 4.9,11.7 l 1.4,4.3 22.7,5.7 v 27.8 l -22.7,5.7 -1.4,4.3 c -1.2,3.9 -2.9,7.8 -4.9,11.7 l -2.1,4.1 z"
             inkscape:connector-curvature="0"
             style="fill:#476c9b;fill-opacity:1" />
        </g>
      </g>
      <g
         id="g15426"
         style="fill:#476c9b;fill-opacity:1">
        <g
           id="g15424"
           style="fill:#476c9b;fill-opacity:1">
          <path
             id="path15422"
             d="m 393.3,53.3 c -33.9,0 -61.5,27.6 -61.5,61.5 0,33.9 27.6,61.5 61.5,61.5 33.9,0 61.5,-27.6 61.5,-61.5 -0.1,-34 -27.6,-61.5 -61.5,-61.5 z m 0,106.5 c -24.8,0 -45.1,-20.2 -45.1,-45.1 0,-24.9 20.2,-45.1 45.1,-45.1 24.9,0 45.1,20.2 45.1,45.1 0,24.9 -20.3,45.1 -45.1,45.1 z"
             inkscape:connector-curvature="0"
             style="fill:#476c9b;fill-opacity:1" />
        </g>
      </g>
      <g
         id="g15432"
         style="fill:#476c9b;fill-opacity:1">
        <g
           id="g15430"
           style="fill:#476c9b;fill-opacity:1">
          <rect
             id="rect15428"
             height="16.4"
             width="16.4"
             transform="matrix(0.7071,-0.7071,0.7071,0.7071,-94.4593,258.4238)"
             y="235.035"
             x="256.517"
             style="fill:#476c9b;fill-opacity:1" />
        </g>
      </g>
      <g
         id="g15438"
         style="fill:#476c9b;fill-opacity:1">
        <g
           id="g15436"
           style="fill:#476c9b;fill-opacity:1">
          <rect
             id="rect15434"
             height="16.4"
             width="16.4"
             transform="matrix(0.7071,-0.7071,0.7071,0.7071,-279.8627,181.6414)"
             y="420.44501"
             x="71.128998"
             style="fill:#476c9b;fill-opacity:1" />
        </g>
      </g>
      <g
         id="g15444"
         style="fill:#476c9b;fill-opacity:1">
        <g
           id="g15442"
           style="fill:#476c9b;fill-opacity:1">
          <rect
             id="rect15440-7"
             height="16.4"
             width="16.4"
             transform="matrix(0.7071,-0.7071,0.7071,0.7071,-225.5547,312.7398)"
             y="420.439"
             x="256.53299"
             style="fill:#476c9b;fill-opacity:1" />
        </g>
      </g>
      <g
         id="g15450"
         style="fill:#476c9b;fill-opacity:1">
        <g
           id="g15448"
           style="fill:#476c9b;fill-opacity:1">
          <rect
             id="rect15446"
             height="16.4"
             width="16.4"
             transform="matrix(0.7071,-0.7071,0.7071,0.7071,-148.7289,127.3885)"
             y="235.026"
             x="71.207001"
             style="fill:#476c9b;fill-opacity:1" />
        </g>
      </g>
      <g
         id="g15456"
         style="fill:#476c9b;fill-opacity:1">
        <g
           id="g15454"
           style="fill:#476c9b;fill-opacity:1">
          <rect
             id="rect15452"
             height="16.4"
             width="16.4"
             y="196.60001"
             x="163.89999"
             style="fill:#476c9b;fill-opacity:1" />
        </g>
      </g>
      <g
         id="g15462"
         style="fill:#476c9b;fill-opacity:1">
        <g
           id="g15460"
           style="fill:#476c9b;fill-opacity:1">
          <rect
             id="rect15458"
             height="16.4"
             width="16.4"
             y="458.79999"
             x="163.89999"
             style="fill:#476c9b;fill-opacity:1" />
        </g>
      </g>
      <g
         id="g15468"
         style="fill:#476c9b;fill-opacity:1">
        <g
           id="g15466"
           style="fill:#476c9b;fill-opacity:1">
          <rect
             id="rect15464"
             height="16.4"
             width="16.4"
             y="327.70001"
             x="295"
             style="fill:#476c9b;fill-opacity:1" />
        </g>
      </g>
      <g
         id="g15474"
         style="fill:#476c9b;fill-opacity:1">
        <g
           id="g15472"
           style="fill:#476c9b;fill-opacity:1">
          <rect
             id="rect15470-4"
             height="16.4"
             width="16.4"
             y="327.70001"
             x="32.799999"
             style="fill:#476c9b;fill-opacity:1" />
        </g>
      </g>
      <g
         id="g15476"
         style="fill:#476c9b;fill-opacity:1" />
      <g
         id="g15478"
         style="fill:#476c9b;fill-opacity:1" />
      <g
         id="g15480"
         style="fill:#476c9b;fill-opacity:1" />
      <g
         id="g15482"
         style="fill:#476c9b;fill-opacity:1" />
      <g
         id="g15484"
         style="fill:#476c9b;fill-opacity:1" />
      <g
         id="g15486"
         style="fill:#476c9b;fill-opacity:1" />
      <g
         id="g15488"
         style="fill:#476c9b;fill-opacity:1" />
      <g
         id="g15490"
         style="fill:#476c9b;fill-opacity:1" />
      <g
         id="g15492"
         style="fill:#476c9b;fill-opacity:1" />
      <g
         id="g15494"
         style="fill:#476c9b;fill-opacity:1" />
      <g
         id="g15496"
         style="fill:#476c9b;fill-opacity:1" />
      <g
         id="g15498"
         style="fill:#476c9b;fill-opacity:1" />
      <g
         id="g15500"
         style="fill:#476c9b;fill-opacity:1" />
      <g
         id="g15502"
         style="fill:#476c9b;fill-opacity:1" />
      <g
         id="g15504"
         style="fill:#476c9b;fill-opacity:1" />
    </g>
  </g>
</svg>
