<?xml version="1.0" encoding="UTF-8" standalone="no"?>
<!-- Created with Inkscape (http://www.inkscape.org/) -->

<svg
   xmlns:dc="http://purl.org/dc/elements/1.1/"
   xmlns:cc="http://creativecommons.org/ns#"
   xmlns:rdf="http://www.w3.org/1999/02/22-rdf-syntax-ns#"
   xmlns:svg="http://www.w3.org/2000/svg"
   xmlns="http://www.w3.org/2000/svg"
   xmlns:sodipodi="http://sodipodi.sourceforge.net/DTD/sodipodi-0.dtd"
   xmlns:inkscape="http://www.inkscape.org/namespaces/inkscape"
   width="7.054872mm"
   height="7.2887435mm"
   viewBox="0 0 7.0548719 7.2887435"
   version="1.1"
   id="svg8343"
   inkscape:version="0.92.5 (2060ec1f9f, 2020-04-08)"
   sodipodi:docname="icono4.svg">
  <defs
     id="defs8337">
    <clipPath
       id="clipPath6657"
       clipPathUnits="userSpaceOnUse">
      <path
         inkscape:connector-curvature="0"
         id="path6655"
         d="M 0,500 H 750 V 0 H 0 Z" />
    </clipPath>
  </defs>
  <sodipodi:namedview
     id="base"
     pagecolor="#ffffff"
     bordercolor="#666666"
     borderopacity="1.0"
     inkscape:pageopacity="0.0"
     inkscape:pageshadow="2"
     inkscape:zoom="2.8"
     inkscape:cx="-56.514161"
     inkscape:cy="79.466619"
     inkscape:document-units="mm"
     inkscape:current-layer="layer1"
     showgrid="false"
     fit-margin-top="0"
     fit-margin-left="0"
     fit-margin-right="0"
     fit-margin-bottom="0"
     inkscape:window-width="2880"
     inkscape:window-height="1526"
     inkscape:window-x="2869"
     inkscape:window-y="-11"
     inkscape:window-maximized="1" />
  <metadata
     id="metadata8340">
    <rdf:RDF>
      <cc:Work
         rdf:about="">
        <dc:format>image/svg+xml</dc:format>
        <dc:type
           rdf:resource="http://purl.org/dc/dcmitype/StillImage" />
        <dc:title></dc:title>
      </cc:Work>
    </rdf:RDF>
  </metadata>
  <g
     inkscape:label="Capa 1"
     inkscape:groupmode="layer"
     id="layer1"
     transform="translate(-104.10646,-108.31082)">
    <g
       id="g15069"
       transform="matrix(0.01434792,0,0,0.01434792,103.98952,108.31082)"
       style="fill:#476c9b;fill-opacity:1">
      <g
         id="g14913"
         style="fill:#476c9b;fill-opacity:1">
        <g
           id="g14911"
           style="fill:#476c9b;fill-opacity:1">
          <path
             id="path14909"
             d="M 483.35,426 V 147.5 h -139.7 c -1.5,-16.1 -7.2,-30.9 -16,-43.4 V 24.6 h -16.4 v 61.6 c -15.6,-12.9 -35.6,-20.7 -57.4,-20.7 -21.8,0 -41.8,7.8 -57.3,20.7 V 24.6 h -16.4 V 104 c -8.8,12.5 -14.5,27.4 -16,43.5 H 24.55 V 426.1 H 8.15 v 44.4 l 37.6,37.5 h 416.5 l 37.6,-37.6 V 426 Z M 253.95,81.9 c 40.7,0 73.7,33.1 73.7,73.7 0,40.6 -33.1,73.7 -73.7,73.7 -40.7,0 -73.7,-33.1 -73.7,-73.7 0,-40.6 33,-73.7 73.7,-73.7 z m 0,163.9 c 31.6,0 59.3,-16.3 75.4,-41 h 88.4 V 385.1 H 81.85 V 204.8 h 96.6 c 16.2,24.7 43.9,41 75.5,41 z m -213,-81.9 h 123.3 c 0.8,8.6 2.8,16.8 5.8,24.6 H 65.55 v 213 h 368.7 v -213 h -96.4 c 3,-7.7 5.1,-16 5.8,-24.6 h 123.3 v 262.2 h -180.2 v 16.4 h -65.5 V 426.1 H 40.95 Z m 442.5,299.7 h -0.1 l -28,28 H 52.55 l -28,-28 v -21.2 h 180.3 v 16.4 h 98.3 v -16.4 h 180.3 z"
             inkscape:connector-curvature="0"
             style="fill:#476c9b;fill-opacity:1" />
        </g>
      </g>
      <g
         id="g14919"
         style="fill:#476c9b;fill-opacity:1">
        <g
           id="g14917"
           style="fill:#476c9b;fill-opacity:1">
          <rect
             id="rect14915"
             height="16.4"
             width="16.4"
             y="458.79999"
             x="417.85001"
             style="fill:#476c9b;fill-opacity:1" />
        </g>
      </g>
      <g
         id="g14925"
         style="fill:#476c9b;fill-opacity:1">
        <g
           id="g14923"
           style="fill:#476c9b;fill-opacity:1">
          <rect
             id="rect14921"
             height="16.4"
             width="16.4"
             y="458.79999"
             x="385.04999"
             style="fill:#476c9b;fill-opacity:1" />
        </g>
      </g>
      <g
         id="g14931"
         style="fill:#476c9b;fill-opacity:1">
        <g
           id="g14929"
           style="fill:#476c9b;fill-opacity:1">
          <rect
             id="rect14927"
             height="16.4"
             width="16.4"
             y="458.79999"
             x="352.25"
             style="fill:#476c9b;fill-opacity:1" />
        </g>
      </g>
      <g
         id="g14937"
         style="fill:#476c9b;fill-opacity:1">
        <g
           id="g14935"
           style="fill:#476c9b;fill-opacity:1">
          <rect
             id="rect14933"
             height="16.4"
             width="114.7"
             y="458.79999"
             x="65.449997"
             style="fill:#476c9b;fill-opacity:1" />
        </g>
      </g>
      <g
         id="g14943"
         style="fill:#476c9b;fill-opacity:1">
        <g
           id="g14941"
           style="fill:#476c9b;fill-opacity:1">
          <path
             id="path14939"
             d="m 106.55,245.8 v 114.7 h 81.9 V 245.8 Z m 65.5,98.3 h -49.2 v -81.9 h 49.2 z"
             inkscape:connector-curvature="0"
             style="fill:#476c9b;fill-opacity:1" />
        </g>
      </g>
      <g
         id="g14949"
         style="fill:#476c9b;fill-opacity:1">
        <g
           id="g14947"
           style="fill:#476c9b;fill-opacity:1">
          <path
             id="path14945-7"
             d="m 279.65,154.7 c -3.7,-4.4 -10.7,-8 -21,-10.8 v -25.1 c 4.1,1.8 6.7,5.2 7.7,10.3 l 16.2,-2.1 c -1.1,-6.4 -3.7,-11.5 -7.7,-15.4 -4,-3.9 -9.4,-6.1 -16.2,-7 v -6.3 h -9.3 v 6.3 c -7.4,0.7 -13.2,3.5 -17.7,8.2 -4.4,4.8 -6.6,10.7 -6.6,17.7 0,6.9 2,12.8 5.9,17.7 3.9,4.9 10.1,8.5 18.4,10.9 V 186 c -2.2,-1.1 -4.3,-2.9 -6.2,-5.4 -1.9,-2.5 -3.2,-5.4 -3.8,-8.8 l -16.7,1.8 c 1.3,8.4 4.2,14.9 8.8,19.6 4.6,4.6 10.6,7.4 18,8.3 V 213 h 9.3 v -12 c 8.3,-1.2 14.8,-4.4 19.5,-9.7 4.7,-5.3 7,-11.8 7,-19.6 0,-6.9 -1.9,-12.6 -5.6,-17 z m -30.3,-13.9 c -2.7,-1.2 -4.7,-2.7 -6.1,-4.7 -1.4,-1.9 -2.1,-4.1 -2.1,-6.3 0,-2.5 0.7,-4.7 2.2,-6.8 1.5,-2.1 3.5,-3.5 6,-4.4 z m 17.2,41.7 c -2,2.4 -4.6,3.9 -7.8,4.5 v -25.1 c 3.8,1.1 6.6,2.7 8.3,4.8 1.7,2.1 2.5,4.5 2.5,7.4 0,3.2 -1,6 -3,8.4 z"
             inkscape:connector-curvature="0"
             style="fill:#476c9b;fill-opacity:1" />
        </g>
      </g>
      <g
         id="g14955"
         style="fill:#476c9b;fill-opacity:1">
        <g
           id="g14953"
           style="fill:#476c9b;fill-opacity:1">
          <rect
             id="rect14951"
             height="49.200001"
             width="16.4"
             x="245.75"
             y="0"
             style="fill:#476c9b;fill-opacity:1" />
        </g>
      </g>
      <g
         id="g14961"
         style="fill:#476c9b;fill-opacity:1">
        <g
           id="g14959"
           style="fill:#476c9b;fill-opacity:1">
          <rect
             id="rect14957"
             height="16.4"
             width="16.4"
             y="262.20001"
             x="303.14999"
             style="fill:#476c9b;fill-opacity:1" />
        </g>
      </g>
      <g
         id="g14967"
         style="fill:#476c9b;fill-opacity:1">
        <g
           id="g14965"
           style="fill:#476c9b;fill-opacity:1">
          <rect
             id="rect14963-1"
             height="16.4"
             width="16.4"
             y="262.20001"
             x="335.85001"
             style="fill:#476c9b;fill-opacity:1" />
        </g>
      </g>
      <g
         id="g14973"
         style="fill:#476c9b;fill-opacity:1">
        <g
           id="g14971"
           style="fill:#476c9b;fill-opacity:1">
          <rect
             id="rect14969"
             height="16.4"
             width="16.4"
             y="262.20001"
             x="270.35001"
             style="fill:#476c9b;fill-opacity:1" />
        </g>
      </g>
      <g
         id="g14979"
         style="fill:#476c9b;fill-opacity:1">
        <g
           id="g14977"
           style="fill:#476c9b;fill-opacity:1">
          <rect
             id="rect14975"
             height="16.4"
             width="172.10001"
             y="344.10001"
             x="221.14999"
             style="fill:#476c9b;fill-opacity:1" />
        </g>
      </g>
      <g
         id="g14981"
         style="fill:#476c9b;fill-opacity:1" />
      <g
         id="g14983"
         style="fill:#476c9b;fill-opacity:1" />
      <g
         id="g14985"
         style="fill:#476c9b;fill-opacity:1" />
      <g
         id="g14987"
         style="fill:#476c9b;fill-opacity:1" />
      <g
         id="g14989"
         style="fill:#476c9b;fill-opacity:1" />
      <g
         id="g14991"
         style="fill:#476c9b;fill-opacity:1" />
      <g
         id="g14993"
         style="fill:#476c9b;fill-opacity:1" />
      <g
         id="g14995"
         style="fill:#476c9b;fill-opacity:1" />
      <g
         id="g14997"
         style="fill:#476c9b;fill-opacity:1" />
      <g
         id="g14999"
         style="fill:#476c9b;fill-opacity:1" />
      <g
         id="g15001"
         style="fill:#476c9b;fill-opacity:1" />
      <g
         id="g15003"
         style="fill:#476c9b;fill-opacity:1" />
      <g
         id="g15005"
         style="fill:#476c9b;fill-opacity:1" />
      <g
         id="g15007"
         style="fill:#476c9b;fill-opacity:1" />
      <g
         id="g15009"
         style="fill:#476c9b;fill-opacity:1" />
    </g>
  </g>
</svg>
