<?xml version="1.0" encoding="UTF-8" standalone="no"?>
<!-- Created with Inkscape (http://www.inkscape.org/) -->

<svg
   xmlns:dc="http://purl.org/dc/elements/1.1/"
   xmlns:cc="http://creativecommons.org/ns#"
   xmlns:rdf="http://www.w3.org/1999/02/22-rdf-syntax-ns#"
   xmlns:svg="http://www.w3.org/2000/svg"
   xmlns="http://www.w3.org/2000/svg"
   xmlns:sodipodi="http://sodipodi.sourceforge.net/DTD/sodipodi-0.dtd"
   xmlns:inkscape="http://www.inkscape.org/namespaces/inkscape"
   width="7.2887435mm"
   height="7.2887435mm"
   viewBox="0 0 7.2887434 7.2887435"
   version="1.1"
   id="svg8343"
   inkscape:version="0.92.5 (2060ec1f9f, 2020-04-08)"
   sodipodi:docname="icono2.svg">
  <defs
     id="defs8337">
    <clipPath
       id="clipPath6657"
       clipPathUnits="userSpaceOnUse">
      <path
         inkscape:connector-curvature="0"
         id="path6655"
         d="M 0,500 H 750 V 0 H 0 Z" />
    </clipPath>
  </defs>
  <sodipodi:namedview
     id="base"
     pagecolor="#ffffff"
     bordercolor="#666666"
     borderopacity="1.0"
     inkscape:pageopacity="0.0"
     inkscape:pageshadow="2"
     inkscape:zoom="2.8"
     inkscape:cx="3.4002618"
     inkscape:cy="48.858907"
     inkscape:document-units="mm"
     inkscape:current-layer="layer1"
     showgrid="false"
     fit-margin-top="0"
     fit-margin-left="0"
     fit-margin-right="0"
     fit-margin-bottom="0"
     inkscape:window-width="2880"
     inkscape:window-height="1526"
     inkscape:window-x="2869"
     inkscape:window-y="-11"
     inkscape:window-maximized="1" />
  <metadata
     id="metadata8340">
    <rdf:RDF>
      <cc:Work
         rdf:about="">
        <dc:format>image/svg+xml</dc:format>
        <dc:type
           rdf:resource="http://purl.org/dc/dcmitype/StillImage" />
        <dc:title></dc:title>
      </cc:Work>
    </rdf:RDF>
  </metadata>
  <g
     inkscape:label="Capa 1"
     inkscape:groupmode="layer"
     id="layer1"
     transform="translate(-106.86943,-100.21253)">
    <g
       id="g13764"
       transform="matrix(0.01434792,0,0,0.01434792,106.86943,100.21253)"
       style="fill:#476c9b;fill-opacity:1">
      <g
         id="g13626"
         style="fill:#476c9b;fill-opacity:1">
        <g
           id="g13624"
           style="fill:#476c9b;fill-opacity:1">
          <path
             id="path13622"
             d="M 0,0 V 278.6 H 508 V 0 Z M 491.6,262.2 H 16.4 V 16.4 h 475.2 z"
             inkscape:connector-curvature="0"
             style="fill:#476c9b;fill-opacity:1" />
        </g>
      </g>
      <g
         id="g13632"
         style="fill:#476c9b;fill-opacity:1">
        <g
           id="g13630"
           style="fill:#476c9b;fill-opacity:1">
          <path
             id="path13628"
             d="m 49.2,90.1 v 98.3 h 81.9 V 90.1 Z m 65.5,82 H 65.5 v -65.5 h 49.2 z"
             inkscape:connector-curvature="0"
             style="fill:#476c9b;fill-opacity:1" />
        </g>
      </g>
      <g
         id="g13638"
         style="fill:#476c9b;fill-opacity:1">
        <g
           id="g13636"
           style="fill:#476c9b;fill-opacity:1">
          <path
             id="path13634"
             d="m 376.9,90.1 v 98.3 h 81.9 V 90.1 Z m 65.5,82 h -49.2 v -65.5 h 49.2 z"
             inkscape:connector-curvature="0"
             style="fill:#476c9b;fill-opacity:1" />
        </g>
      </g>
      <g
         id="g13644"
         style="fill:#476c9b;fill-opacity:1">
        <g
           id="g13642"
           style="fill:#476c9b;fill-opacity:1">
          <path
             id="path13640"
             d="m 213,90.1 v 98.3 h 82 V 90.1 Z m 65.6,82 h -49.2 v -65.5 h 49.2 z"
             inkscape:connector-curvature="0"
             style="fill:#476c9b;fill-opacity:1" />
        </g>
      </g>
      <g
         id="g13650"
         style="fill:#476c9b;fill-opacity:1">
        <g
           id="g13648"
           style="fill:#476c9b;fill-opacity:1">
          <polygon
             id="polygon13646"
             points="172.1,131.1 147.5,131.1 147.5,147.5 172.1,147.5 172.1,167.3 200,139.3 172.1,111.3 "
             style="fill:#476c9b;fill-opacity:1" />
        </g>
      </g>
      <g
         id="g13656"
         style="fill:#476c9b;fill-opacity:1">
        <g
           id="g13654"
           style="fill:#476c9b;fill-opacity:1">
          <polygon
             id="polygon13652"
             points="335.9,131.1 311.3,131.1 311.3,147.5 335.9,147.5 335.9,167.3 363.9,139.3 335.9,111.3 "
             style="fill:#476c9b;fill-opacity:1" />
        </g>
      </g>
      <g
         id="g13662"
         style="fill:#476c9b;fill-opacity:1">
        <g
           id="g13660"
           style="fill:#476c9b;fill-opacity:1">
          <path
             id="path13658"
             d="m 94.3,311.3 c -24.9,0 -45.1,20.3 -45.1,45.1 0,24.8 20.2,45.1 45.1,45.1 24.9,0 45.1,-20.2 45.1,-45.1 0,-24.9 -20.2,-45.1 -45.1,-45.1 z m -0.1,73.8 c -15.8,0 -28.7,-12.9 -28.7,-28.7 0,-15.8 12.9,-28.7 28.7,-28.7 15.8,0 28.7,12.9 28.7,28.7 0,15.8 -12.9,28.7 -28.7,28.7 z"
             inkscape:connector-curvature="0"
             style="fill:#476c9b;fill-opacity:1" />
        </g>
      </g>
      <g
         id="g13668"
         style="fill:#476c9b;fill-opacity:1">
        <g
           id="g13666"
           style="fill:#476c9b;fill-opacity:1">
          <path
             id="path13664"
             d="m 254,311.3 c -24.9,0 -45.1,20.3 -45.1,45.1 0,24.8 20.2,45.1 45.1,45.1 24.9,0 45.1,-20.2 45.1,-45.1 0,-24.9 -20.2,-45.1 -45.1,-45.1 z m 0,73.8 c -15.8,0 -28.7,-12.9 -28.7,-28.7 0,-15.8 12.9,-28.7 28.7,-28.7 15.8,0 28.7,12.9 28.7,28.7 0,15.8 -12.9,28.7 -28.7,28.7 z"
             inkscape:connector-curvature="0"
             style="fill:#476c9b;fill-opacity:1" />
        </g>
      </g>
      <g
         id="g13674"
         style="fill:#476c9b;fill-opacity:1">
        <g
           id="g13672"
           style="fill:#476c9b;fill-opacity:1">
          <path
             id="path13670"
             d="m 413.8,311.3 c -24.9,0 -45.1,20.3 -45.1,45.1 0,24.8 20.2,45.1 45.1,45.1 24.9,0 45.1,-20.2 45.1,-45.1 0,-24.9 -20.2,-45.1 -45.1,-45.1 z m 0,73.8 c -15.8,0 -28.7,-12.9 -28.7,-28.7 0,-15.8 12.9,-28.7 28.7,-28.7 15.8,0 28.7,12.9 28.7,28.7 0,15.8 -12.9,28.7 -28.7,28.7 z"
             inkscape:connector-curvature="0"
             style="fill:#476c9b;fill-opacity:1" />
        </g>
      </g>
      <g
         id="g13680"
         style="fill:#476c9b;fill-opacity:1">
        <g
           id="g13678"
           style="fill:#476c9b;fill-opacity:1">
          <path
             id="path13676"
             d="m 413.8,405.6 c -33.1,0 -62.9,17 -79.9,44.5 -16.7,-26.6 -46.2,-44.5 -79.9,-44.5 -33.7,0 -63.2,17.8 -79.9,44.4 -17,-27.4 -46.8,-44.4 -79.9,-44.4 -52,0 -94.2,42.3 -94.2,94.2 v 8.2 h 159.8 16.4 155.7 16.4 159.7 v -8.2 c 0,-52 -42.3,-94.2 -94.2,-94.2 z M 165.1,469 c -1.2,3.3 -2.1,6.7 -2.9,10.2 -0.1,0.3 -0.1,0.5 -0.2,0.8 -0.8,3.6 -1.4,7.4 -1.7,11.1 0,0.2 -0.1,0.4 -0.1,0.5 H 16.8 C 20.9,452.5 54.1,422 94.2,422 c 31,0 58.5,18 71.1,46.2 -0.1,0.3 -0.1,0.6 -0.2,0.8 z m 11.5,22.6 c 0.2,-1.8 0.5,-3.5 0.8,-5.3 0.1,-0.4 0.1,-0.8 0.2,-1.2 0.9,-4.8 2.3,-9.5 4.1,-14.1 l 0.5,-1.2 C 194,441.7 221.7,422 254,422 c 32.3,0 60,19.8 71.8,47.8 l 0.5,1.2 c 1.8,4.6 3.2,9.3 4.1,14.1 0.1,0.4 0.1,0.8 0.2,1.2 0.3,1.8 0.6,3.5 0.8,5.3 z m 171.3,0 c 0,-0.2 -0.1,-0.4 -0.1,-0.5 -0.3,-3.8 -0.9,-7.5 -1.7,-11.1 -0.1,-0.3 -0.1,-0.5 -0.2,-0.8 -0.8,-3.5 -1.8,-6.8 -2.9,-10.2 -0.1,-0.3 -0.1,-0.6 -0.2,-0.8 12.5,-28.2 40.1,-46.2 71.1,-46.2 40.2,0 73.3,30.6 77.4,69.6 z"
             inkscape:connector-curvature="0"
             style="fill:#476c9b;fill-opacity:1" />
        </g>
      </g>
      <g
         id="g13682"
         style="fill:#476c9b;fill-opacity:1" />
      <g
         id="g13684"
         style="fill:#476c9b;fill-opacity:1" />
      <g
         id="g13686"
         style="fill:#476c9b;fill-opacity:1" />
      <g
         id="g13688"
         style="fill:#476c9b;fill-opacity:1" />
      <g
         id="g13690"
         style="fill:#476c9b;fill-opacity:1" />
      <g
         id="g13692"
         style="fill:#476c9b;fill-opacity:1" />
      <g
         id="g13694"
         style="fill:#476c9b;fill-opacity:1" />
      <g
         id="g13696"
         style="fill:#476c9b;fill-opacity:1" />
      <g
         id="g13698"
         style="fill:#476c9b;fill-opacity:1" />
      <g
         id="g13700"
         style="fill:#476c9b;fill-opacity:1" />
      <g
         id="g13702"
         style="fill:#476c9b;fill-opacity:1" />
      <g
         id="g13704"
         style="fill:#476c9b;fill-opacity:1" />
      <g
         id="g13706"
         style="fill:#476c9b;fill-opacity:1" />
      <g
         id="g13708"
         style="fill:#476c9b;fill-opacity:1" />
      <g
         id="g13710"
         style="fill:#476c9b;fill-opacity:1" />
    </g>
  </g>
</svg>
