<?xml version="1.0" encoding="UTF-8" standalone="no"?>
<!-- Created with Inkscape (http://www.inkscape.org/) -->

<svg
   xmlns:dc="http://purl.org/dc/elements/1.1/"
   xmlns:cc="http://creativecommons.org/ns#"
   xmlns:rdf="http://www.w3.org/1999/02/22-rdf-syntax-ns#"
   xmlns:svg="http://www.w3.org/2000/svg"
   xmlns="http://www.w3.org/2000/svg"
   xmlns:sodipodi="http://sodipodi.sourceforge.net/DTD/sodipodi-0.dtd"
   xmlns:inkscape="http://www.inkscape.org/namespaces/inkscape"
   width="17.593018mm"
   height="17.593042mm"
   viewBox="0 0 17.593017 17.593043"
   version="1.1"
   id="svg16166"
   inkscape:version="0.92.5 (2060ec1f9f, 2020-04-08)"
   sodipodi:docname="icono4.svg">
  <defs
     id="defs16160" />
  <sodipodi:namedview
     id="base"
     pagecolor="#ffffff"
     bordercolor="#666666"
     borderopacity="1.0"
     inkscape:pageopacity="0.0"
     inkscape:pageshadow="2"
     inkscape:zoom="1.4"
     inkscape:cx="268.20824"
     inkscape:cy="-19.767569"
     inkscape:document-units="mm"
     inkscape:current-layer="layer1"
     showgrid="false"
     fit-margin-top="0"
     fit-margin-left="0"
     fit-margin-right="0"
     fit-margin-bottom="0"
     inkscape:window-width="2880"
     inkscape:window-height="1526"
     inkscape:window-x="2869"
     inkscape:window-y="-11"
     inkscape:window-maximized="1" />
  <metadata
     id="metadata16163">
    <rdf:RDF>
      <cc:Work
         rdf:about="">
        <dc:format>image/svg+xml</dc:format>
        <dc:type
           rdf:resource="http://purl.org/dc/dcmitype/StillImage" />
        <dc:title></dc:title>
      </cc:Work>
    </rdf:RDF>
  </metadata>
  <g
     inkscape:label="Capa 1"
     inkscape:groupmode="layer"
     id="layer1"
     transform="translate(-43.309254,-30.297618)">
    <g
       transform="matrix(0.29321696,0,0,0.29321696,42.72282,29.711184)"
       id="Outline-8-9-5-9-6">
      <path
         id="path6063-2-2-6-6-7"
         transform="matrix(0.90234659,0,0,0.90234659,-740.65195,-525.86803)"
         d="m 834.10547,589.42773 a 1.1082216,1.1082216 0 0 0 -1.10938,1.10743 v 6.65039 a 1.1082216,1.1082216 0 0 0 1.10938,1.10742 h 24.38086 a 1.1082216,1.1082216 0 0 0 1.10742,-1.10742 v -6.65039 a 1.1082216,1.1082216 0 0 0 -1.10742,-1.10743 z m 1.10742,2.2168 h 22.16406 v 4.43164 h -22.16406 z m 14.4082,12.18945 v 2.2168 h 14.40625 v -2.2168 z m 0,5.54102 v 2.2168 h 14.40625 v -2.2168 z m 33.57032,12.51562 -12.51563,12.51563 -5.86523,-5.86523 -1.56641,1.5664 6.64844,6.64844 a 1.1082216,1.1082216 0 0 0 1.56836,0 l 13.29687,-13.29883 z m -33.57032,0.78321 v 2.21679 h 6.64844 v -2.21679 z m 0,5.54101 v 2.2168 h 6.64844 v -2.2168 z m -11.08398,11.08204 v 2.21679 h 17.73242 v -2.21679 z m 9.97461,4.43359 v 2.2168 h 7.75781 v -2.2168 z"
         style="fill:#476c9b;fill-opacity:1;stroke-width:1.10822165"
         inkscape:connector-curvature="0" />
      <path
         id="path6065-6-8-6-3-0-5"
         transform="matrix(0.90234659,0,0,0.90234659,-740.65195,-525.86803)"
         d="m 829.67188,601.61719 a 1.1082216,1.1082216 0 0 0 -1.10743,1.10937 v 13.29883 a 1.1082216,1.1082216 0 0 0 1.10743,1.10742 h 13.29882 a 1.1082216,1.1082216 0 0 0 1.10938,-1.10742 v -6.38086 l -2.2168,2.21485 v 3.05664 h -11.08203 v -11.08204 h 9.70508 l 2.21679,-2.21679 z m 15.83984,0.32617 -8.08203,8.08203 -2.54102,-2.54101 -1.5664,1.5664 3.32421,3.32422 a 1.1082216,1.1082216 0 0 0 1.56641,0 l 8.86719,-8.86523 z m -15.83984,18.51367 a 1.1082216,1.1082216 0 0 0 -1.10743,1.10938 v 13.29882 a 1.1082216,1.1082216 0 0 0 1.10743,1.10743 h 13.29882 a 1.1082216,1.1082216 0 0 0 1.10938,-1.10743 v -6.38085 l -2.2168,2.21484 v 3.05664 h -11.08203 v -11.08203 h 9.70508 l 2.21679,-2.2168 z m 15.83984,0.32617 -8.08203,8.08203 -2.54102,-2.54101 -1.5664,1.5664 3.32421,3.32422 a 1.1082216,1.1082216 0 0 0 1.56641,0 l 8.86719,-8.86523 z"
         style="fill:#476c9b;fill-opacity:1;stroke-width:1.10822165"
         inkscape:connector-curvature="0" />
      <path
         inkscape:connector-curvature="0"
         d="M 4,60 V 4 h 38 v 21.356 q 1.012,-0.354 2,-0.773 V 3 A 1,1 0 0 0 43,2 H 3 A 1,1 0 0 0 2,3 v 58 a 1,1 0 0 0 1,1 H 43 A 0.987,0.987 0 0 0 43.308,61.938 24.3,24.3 0 0 1 40.606,60 Z"
         id="path6081-9-1-3-6-8-7" />
      <path
         inkscape:connector-curvature="0"
         d="m 61.109,29.006 a 34.916,34.916 0 0 1 -12.639,-3.889 1,1 0 0 0 -0.94,0 A 34.916,34.916 0 0 1 34.891,29.006 1,1 0 0 0 34,30 v 11.845 a 21.818,21.818 0 0 0 13.615,20.078 1,1 0 0 0 0.77,0 A 21.818,21.818 0 0 0 62,41.845 V 30 A 1,1 0 0 0 61.109,29.006 Z M 60,41.845 A 19.808,19.808 0 0 1 48,59.912 19.808,19.808 0 0 1 36,41.845 v -10.96 a 36.882,36.882 0 0 0 12,-3.756 36.874,36.874 0 0 0 12,3.756 z"
         id="path6083-2-2-8-8-9" />
    </g>
  </g>
</svg>
