<?xml version="1.0" encoding="UTF-8" standalone="no"?>
<!-- Created with Inkscape (http://www.inkscape.org/) -->

<svg
   xmlns:dc="http://purl.org/dc/elements/1.1/"
   xmlns:cc="http://creativecommons.org/ns#"
   xmlns:rdf="http://www.w3.org/1999/02/22-rdf-syntax-ns#"
   xmlns:svg="http://www.w3.org/2000/svg"
   xmlns="http://www.w3.org/2000/svg"
   xmlns:sodipodi="http://sodipodi.sourceforge.net/DTD/sodipodi-0.dtd"
   xmlns:inkscape="http://www.inkscape.org/namespaces/inkscape"
   width="11.474577mm"
   height="12.066001mm"
   viewBox="0 0 11.474577 12.066001"
   version="1.1"
   id="svg2568"
   inkscape:version="0.92.5 (2060ec1f9f, 2020-04-08)"
   sodipodi:docname="icono4.svg">
  <defs
     id="defs2562">
    <clipPath
       id="clipPath5885-8"
       clipPathUnits="userSpaceOnUse">
      <path
         inkscape:connector-curvature="0"
         id="path5883-7"
         d="M 0,500 H 750 V 0 H 0 Z" />
    </clipPath>
    <clipPath
       id="clipPath5897"
       clipPathUnits="userSpaceOnUse">
      <path
         inkscape:connector-curvature="0"
         id="path5895"
         d="M 0,500 H 750 V 0 H 0 Z" />
    </clipPath>
    <clipPath
       id="clipPath5909"
       clipPathUnits="userSpaceOnUse">
      <path
         inkscape:connector-curvature="0"
         id="path5907"
         d="M 0,500 H 750 V 0 H 0 Z" />
    </clipPath>
    <clipPath
       id="clipPath5921"
       clipPathUnits="userSpaceOnUse">
      <path
         inkscape:connector-curvature="0"
         id="path5919"
         d="m 161.673,432.405 h 204.21 V 149.652 h -204.21 z" />
    </clipPath>
    <clipPath
       id="clipPath6091"
       clipPathUnits="userSpaceOnUse">
      <path
         inkscape:connector-curvature="0"
         id="path6089"
         d="M 0,500 H 750 V 0 H 0 Z" />
    </clipPath>
    <clipPath
       id="clipPath6103"
       clipPathUnits="userSpaceOnUse">
      <path
         inkscape:connector-curvature="0"
         id="path6101"
         d="m 610.919,27.8161 h 24.678 V 12.3449 h -24.678 z" />
    </clipPath>
    <clipPath
       id="clipPath6119"
       clipPathUnits="userSpaceOnUse">
      <path
         inkscape:connector-curvature="0"
         id="path6117"
         d="m 611.767,36.9772 h 2.924 v -2.9238 h -2.924 z" />
    </clipPath>
    <clipPath
       id="clipPath6159"
       clipPathUnits="userSpaceOnUse">
      <path
         inkscape:connector-curvature="0"
         id="path6157"
         d="m 605.026,51.7018 h 17.727 v -6.1013 h -17.727 z" />
    </clipPath>
    <clipPath
       id="clipPath6179"
       clipPathUnits="userSpaceOnUse">
      <path
         inkscape:connector-curvature="0"
         id="path6177"
         d="m 564.559,34.3769 h 2.683 v -2.6711 h -2.683 z" />
    </clipPath>
    <clipPath
       id="clipPath6195"
       clipPathUnits="userSpaceOnUse">
      <path
         inkscape:connector-curvature="0"
         id="path6193"
         d="m 537.93,25.8959 h 34.369 V 22.1103 H 537.93 Z" />
    </clipPath>
    <clipPath
       id="clipPath6227"
       clipPathUnits="userSpaceOnUse">
      <path
         inkscape:connector-curvature="0"
         id="path6225"
         d="m 554.526,50.0352 h 17.181 v -3.6203 h -17.181 z" />
    </clipPath>
    <clipPath
       id="clipPath6447"
       clipPathUnits="userSpaceOnUse">
      <path
         inkscape:connector-curvature="0"
         id="path6445"
         d="m 569.493,232.085 h 37.169 v -16.324 h -37.169 z" />
    </clipPath>
    <clipPath
       id="clipPath6463"
       clipPathUnits="userSpaceOnUse">
      <path
         inkscape:connector-curvature="0"
         id="path6461"
         d="m 541.318,233.134 h 27.267 v -16.96 h -27.267 z" />
    </clipPath>
    <clipPath
       id="clipPath6503"
       clipPathUnits="userSpaceOnUse">
      <path
         inkscape:connector-curvature="0"
         id="path6501"
         d="M 0,500 H 750 V 0 H 0 Z" />
    </clipPath>
    <clipPath
       id="clipPath6547"
       clipPathUnits="userSpaceOnUse">
      <path
         inkscape:connector-curvature="0"
         id="path6545"
         d="m 378.399,30.1993 h 24.678 V 14.7281 h -24.678 z" />
    </clipPath>
    <clipPath
       id="clipPath6563"
       clipPathUnits="userSpaceOnUse">
      <path
         inkscape:connector-curvature="0"
         id="path6561"
         d="m 399.304,39.3604 h 2.924 v -2.9238 h -2.924 z" />
    </clipPath>
    <clipPath
       id="clipPath6611"
       clipPathUnits="userSpaceOnUse">
      <path
         inkscape:connector-curvature="0"
         id="path6609"
         d="m 438.875,27.0799 h 37.336 v -4.262 h -37.336 z" />
    </clipPath>
    <clipPath
       id="clipPath6775"
       clipPathUnits="userSpaceOnUse">
      <path
         inkscape:connector-curvature="0"
         id="path6773"
         d="m 434.719,321.39 h 4.572 v -5.782 h -4.572 z" />
    </clipPath>
    <clipPath
       id="clipPath6815"
       clipPathUnits="userSpaceOnUse">
      <path
         inkscape:connector-curvature="0"
         id="path6813"
         d="m 413.99,269 h 43.406 V 243.968 H 413.99 Z" />
    </clipPath>
    <clipPath
       id="clipPath9404"
       clipPathUnits="userSpaceOnUse">
      <path
         inkscape:connector-curvature="0"
         id="path9402"
         d="M 0,500 H 750 V 0 H 0 Z" />
    </clipPath>
    <clipPath
       id="clipPath9416"
       clipPathUnits="userSpaceOnUse">
      <path
         inkscape:connector-curvature="0"
         id="path9414"
         d="M 0,500 H 750 V 0 H 0 Z" />
    </clipPath>
    <clipPath
       id="clipPath9440"
       clipPathUnits="userSpaceOnUse">
      <path
         inkscape:connector-curvature="0"
         id="path9438"
         d="M 119.836,184.567 H 228.101 V 109.529 H 119.836 Z" />
    </clipPath>
    <clipPath
       id="clipPath9456"
       clipPathUnits="userSpaceOnUse">
      <path
         inkscape:connector-curvature="0"
         id="path9454"
         d="M 500.039,182.406 H 610.034 V 107.357 H 500.039 Z" />
    </clipPath>
    <clipPath
       id="clipPath9512"
       clipPathUnits="userSpaceOnUse">
      <path
         inkscape:connector-curvature="0"
         id="path9510"
         d="M 76.7633,149.315 H 87.8334 V 131.164 H 76.7633 Z" />
    </clipPath>
    <clipPath
       id="clipPath9532"
       clipPathUnits="userSpaceOnUse">
      <path
         inkscape:connector-curvature="0"
         id="path9530"
         d="m 487.497,192.773 h 129.185 v -84.63 H 487.497 Z" />
    </clipPath>
    <clipPath
       id="clipPath9556"
       clipPathUnits="userSpaceOnUse">
      <path
         inkscape:connector-curvature="0"
         id="path9554"
         d="M 108.164,198.669 H 242.389 V 114.145 H 108.164 Z" />
    </clipPath>
    <clipPath
       id="clipPath8017-3"
       clipPathUnits="userSpaceOnUse">
      <path
         inkscape:connector-curvature="0"
         id="path8015-2-4"
         d="m 296.379,396.529 h 166.99 V 178.478 h -166.99 z" />
    </clipPath>
    <clipPath
       id="clipPath8037-6"
       clipPathUnits="userSpaceOnUse">
      <path
         inkscape:connector-curvature="0"
         id="path8035-4"
         d="m 338.34,377.477 h 83.069 V 267.918 H 338.34 Z" />
    </clipPath>
    <clipPath
       id="clipPath8057-9"
       clipPathUnits="userSpaceOnUse">
      <path
         inkscape:connector-curvature="0"
         id="path8055-6"
         d="m 370.517,280.98 h 18.715 v -32.307 h -18.715 z" />
    </clipPath>
  </defs>
  <sodipodi:namedview
     id="base"
     pagecolor="#ffffff"
     bordercolor="#666666"
     borderopacity="1.0"
     inkscape:pageopacity="0.0"
     inkscape:pageshadow="2"
     inkscape:zoom="5.6"
     inkscape:cx="102.30382"
     inkscape:cy="-11.846415"
     inkscape:document-units="mm"
     inkscape:current-layer="layer1"
     showgrid="false"
     inkscape:window-width="2880"
     inkscape:window-height="1526"
     inkscape:window-x="2869"
     inkscape:window-y="-11"
     inkscape:window-maximized="1"
     fit-margin-top="0"
     fit-margin-left="0"
     fit-margin-right="0"
     fit-margin-bottom="0" />
  <metadata
     id="metadata2565">
    <rdf:RDF>
      <cc:Work
         rdf:about="">
        <dc:format>image/svg+xml</dc:format>
        <dc:type
           rdf:resource="http://purl.org/dc/dcmitype/StillImage" />
        <dc:title></dc:title>
      </cc:Work>
    </rdf:RDF>
  </metadata>
  <g
     inkscape:label="Capa 1"
     inkscape:groupmode="layer"
     id="layer1"
     transform="translate(198.11916,-74.60674)">
    <g
       style="fill:#476c9b;fill-opacity:1"
       transform="matrix(0.02375197,0,0,0.02375197,-198.41487,74.60674)"
       id="g7814">
      <g
         style="fill:#476c9b;fill-opacity:1"
         id="g7730">
        <g
           style="fill:#476c9b;fill-opacity:1"
           id="g7728">
          <path
             style="fill:#476c9b;fill-opacity:1"
             inkscape:connector-curvature="0"
             d="m 272.35,232.4 c -2.7,-3.2 -7.7,-5.7 -15,-7.7 v -17.9 c 3,1.3 4.8,3.7 5.5,7.3 l 11.6,-1.5 c -0.8,-4.6 -2.6,-8.2 -5.5,-11 -2.9,-2.7 -6.7,-4.4 -11.6,-5 v -4.5 h -6.6 v 4.5 c -5.3,0.5 -9.5,2.5 -12.6,5.9 -3.2,3.4 -4.7,7.6 -4.7,12.6 0,4.9 1.4,9.2 4.2,12.6 2.8,3.4 7.2,6.1 13.2,7.8 v 19.2 c -1.8,-0.7 -3.3,-1.9 -4.6,-3.7 -1.3,-1.8 -2.3,-3.9 -2.7,-6.3 l -12,1.3 c 0.9,6 3,10.7 6.3,14 3.3,3.3 7.6,5.3 12.9,5.9 v 8.3 h 6.6 v -8.6 c 6,-0.9 10.6,-3.2 14,-7 3.3,-3.8 5,-8.4 5,-14 0,-4.9 -1.3,-9 -4,-12.2 z m -21.7,-9.8 c -1.9,-0.9 -3.4,-2 -4.4,-3.4 -1,-1.4 -1.5,-2.9 -1.5,-4.5 0,-1.8 0.5,-3.4 1.6,-4.9 1.1,-1.5 2.5,-2.5 4.3,-3.1 z m 12.2,29.7 c -1.4,1.7 -3.3,2.8 -5.6,3.2 v -17.9 h 0.1 c 2.7,0.8 4.7,1.9 5.9,3.4 1.2,1.5 1.8,3.2 1.8,5.3 0,2.3 -0.7,4.3 -2.2,6 z"
             id="path7726-7" />
        </g>
      </g>
      <g
         style="fill:#476c9b;fill-opacity:1"
         id="g7736">
        <g
           style="fill:#476c9b;fill-opacity:1"
           id="g7734">
          <path
             style="fill:#476c9b;fill-opacity:1"
             inkscape:connector-curvature="0"
             d="m 495.45,0 h -483 v 491.3 h 83.3 V 508 h 16.7 v -16.7 h 283.1 V 508 h 16.7 v -16.7 h 83.3 V 0 Z M 29.05,474.7 v -458 h 449.7 v 458 z"
             id="path7732" />
        </g>
      </g>
      <g
         style="fill:#476c9b;fill-opacity:1"
         id="g7742">
        <g
           style="fill:#476c9b;fill-opacity:1"
           id="g7740">
          <path
             style="fill:#476c9b;fill-opacity:1"
             inkscape:connector-curvature="0"
             d="m 62.45,50 v 33.3 h -16.7 v 83.3 h 16.7 v 133.2 h -16.7 v 83.3 h 16.7 v 58.3 h 383.1 V 50 Z m 0,54.3 h 16.7 v 45.6 h -16.7 z m 0,212.2 h 16.7 v 48.3 h -16.7 z m 366.4,108.2 H 79.05 v -41.6 h 16.7 V 299.8 H 79.05 V 166.6 h 16.7 V 83.3 H 79.05 V 66.6 h 349.8 z"
             id="path7738" />
        </g>
      </g>
      <g
         style="fill:#476c9b;fill-opacity:1"
         id="g7748">
        <g
           style="fill:#476c9b;fill-opacity:1"
           id="g7746">
          <path
             style="fill:#476c9b;fill-opacity:1"
             inkscape:connector-curvature="0"
             d="m 354.05,241.5 v -16.7 h -25.5 c -1.6,-14.4 -7.3,-27.6 -16,-38.4 l 18,-18.1 -11.8,-11.8 -18,18 c -10.8,-8.6 -24,-14.4 -38.4,-16 V 133 h -16.7 v 25.5 c -14.4,1.6 -27.6,7.3 -38.4,16 l -18,-18 -11.8,11.8 18,18.1 c -8.6,10.8 -14.4,24 -16,38.4 h -25.5 v 16.7 h 25.5 c 1.6,14.4 7.4,27.6 16,38.4 l -18,18 11.8,11.8 18,-18 c 10.8,8.6 24,14.4 38.4,16 v 25.5 h 16.7 v -25.5 c 14.4,-1.6 27.6,-7.3 38.4,-16 l 18,18 11.8,-11.8 -18,-18 c 8.6,-10.8 14.4,-24 16,-38.4 z m -100.1,50 c -32.1,0 -58.3,-26.2 -58.3,-58.3 0,-32.2 26.2,-58.3 58.3,-58.3 32.1,0 58.3,26.2 58.3,58.3 0,32.1 -26.2,58.3 -58.3,58.3 z"
             id="path7744" />
        </g>
      </g>
      <g
         style="fill:#476c9b;fill-opacity:1"
         id="g7750" />
      <g
         style="fill:#476c9b;fill-opacity:1"
         id="g7752" />
      <g
         style="fill:#476c9b;fill-opacity:1"
         id="g7754" />
      <g
         style="fill:#476c9b;fill-opacity:1"
         id="g7756" />
      <g
         style="fill:#476c9b;fill-opacity:1"
         id="g7758" />
      <g
         style="fill:#476c9b;fill-opacity:1"
         id="g7760" />
      <g
         style="fill:#476c9b;fill-opacity:1"
         id="g7762" />
      <g
         style="fill:#476c9b;fill-opacity:1"
         id="g7764" />
      <g
         style="fill:#476c9b;fill-opacity:1"
         id="g7766" />
      <g
         style="fill:#476c9b;fill-opacity:1"
         id="g7768" />
      <g
         style="fill:#476c9b;fill-opacity:1"
         id="g7770" />
      <g
         style="fill:#476c9b;fill-opacity:1"
         id="g7772" />
      <g
         style="fill:#476c9b;fill-opacity:1"
         id="g7774" />
      <g
         style="fill:#476c9b;fill-opacity:1"
         id="g7776" />
      <g
         style="fill:#476c9b;fill-opacity:1"
         id="g7778" />
    </g>
  </g>
</svg>
