<?xml version="1.0" encoding="UTF-8" standalone="no"?>
<!-- Created with Inkscape (http://www.inkscape.org/) -->

<svg
   xmlns:dc="http://purl.org/dc/elements/1.1/"
   xmlns:cc="http://creativecommons.org/ns#"
   xmlns:rdf="http://www.w3.org/1999/02/22-rdf-syntax-ns#"
   xmlns:svg="http://www.w3.org/2000/svg"
   xmlns="http://www.w3.org/2000/svg"
   xmlns:sodipodi="http://sodipodi.sourceforge.net/DTD/sodipodi-0.dtd"
   xmlns:inkscape="http://www.inkscape.org/namespaces/inkscape"
   width="7.2887435mm"
   height="6.284389mm"
   viewBox="0 0 7.2887434 6.284389"
   version="1.1"
   id="svg8343"
   inkscape:version="0.92.5 (2060ec1f9f, 2020-04-08)"
   sodipodi:docname="icono7.svg">
  <defs
     id="defs8337">
    <clipPath
       id="clipPath6657"
       clipPathUnits="userSpaceOnUse">
      <path
         inkscape:connector-curvature="0"
         id="path6655"
         d="M 0,500 H 750 V 0 H 0 Z" />
    </clipPath>
  </defs>
  <sodipodi:namedview
     id="base"
     pagecolor="#ffffff"
     bordercolor="#666666"
     borderopacity="1.0"
     inkscape:pageopacity="0.0"
     inkscape:pageshadow="2"
     inkscape:zoom="2.8"
     inkscape:cx="-145.65029"
     inkscape:cy="63.330901"
     inkscape:document-units="mm"
     inkscape:current-layer="layer1"
     showgrid="false"
     fit-margin-top="0"
     fit-margin-left="0"
     fit-margin-right="0"
     fit-margin-bottom="0"
     inkscape:window-width="2880"
     inkscape:window-height="1526"
     inkscape:window-x="2869"
     inkscape:window-y="-11"
     inkscape:window-maximized="1" />
  <metadata
     id="metadata8340">
    <rdf:RDF>
      <cc:Work
         rdf:about="">
        <dc:format>image/svg+xml</dc:format>
        <dc:type
           rdf:resource="http://purl.org/dc/dcmitype/StillImage" />
        <dc:title></dc:title>
      </cc:Work>
    </rdf:RDF>
  </metadata>
  <g
     inkscape:label="Capa 1"
     inkscape:groupmode="layer"
     id="layer1"
     transform="translate(-146.30572,-112.60546)">
    <g
       id="g16887"
       transform="matrix(0.01434792,0,0,0.01434792,146.30572,112.10328)"
       style="fill:#476c9b;fill-opacity:1">
      <g
         id="g16794"
         style="fill:#476c9b;fill-opacity:1">
        <g
           id="g16792"
           style="fill:#476c9b;fill-opacity:1">
          <path
             id="path16790"
             d="M 508,402.9 V 35 H 0 v 367.9 h 140.1 v 52.6 H 87.6 V 473 h 52.6 227.7 52.6 V 455.5 H 367.9 V 402.9 Z M 17.5,52.6 h 473 v 262.8 h -473 z m 332.9,402.8 h -0.1 -192.6 v -52.6 h 192.7 z m -210.3,-70 H 17.5 v -52.6 h 473 v 52.6 H 367.9 Z"
             inkscape:connector-curvature="0"
             style="fill:#476c9b;fill-opacity:1" />
        </g>
      </g>
      <g
         id="g16800"
         style="fill:#476c9b;fill-opacity:1">
        <g
           id="g16798"
           style="fill:#476c9b;fill-opacity:1">
          <rect
             id="rect16796"
             height="17.5"
             width="35"
             y="350.29999"
             x="236.5"
             style="fill:#476c9b;fill-opacity:1" />
        </g>
      </g>
      <g
         id="g16806"
         style="fill:#476c9b;fill-opacity:1">
        <g
           id="g16804"
           style="fill:#476c9b;fill-opacity:1">
          <path
             id="path16802"
             d="m 332.8,150 c -23.5,0 -42.7,19.1 -42.7,42.7 0,23.6 19.2,42.6 42.7,42.6 23.5,0 42.7,-19.1 42.7,-42.7 0,-23.6 -19.2,-42.6 -42.7,-42.6 z m 0,67.7 c -13.8,0 -25.1,-11.3 -25.1,-25.1 0,-13.8 11.3,-25.1 25.1,-25.1 13.9,0 25.1,11.3 25.1,25.1 0,13.8 -11.3,25.1 -25.1,25.1 z"
             inkscape:connector-curvature="0"
             style="fill:#476c9b;fill-opacity:1" />
        </g>
      </g>
      <g
         id="g16812"
         style="fill:#476c9b;fill-opacity:1">
        <g
           id="g16810"
           style="fill:#476c9b;fill-opacity:1">
          <path
             id="path16808"
             d="m 437.7,217 v -48.7 l -27.5,-6.9 c -0.2,-0.5 -0.4,-1 -0.6,-1.6 l 14.6,-24.3 -34.4,-34.4 -24.3,14.6 c -0.5,-0.2 -1,-0.4 -1.5,-0.7 l -6.9,-27.5 h -48.7 l -6.9,27.5 c -0.5,0.2 -1,0.4 -1.6,0.7 l -24.3,-14.6 -34.4,34.4 14.6,24.3 c -0.2,0.5 -0.4,1 -0.6,1.6 l -27.5,6.9 v -39 L 208,124.4 218.4,107 190.7,79.3 173.3,89.7 168.4,70 H 129.2 L 124.3,89.7 107,79.3 79.3,107 89.7,124.4 70,129.3 v 39.2 l 19.7,4.9 -10.4,17.4 27.7,27.7 17.4,-10.4 4.9,19.7 h 39.2 l 4.9,-19.7 17.4,10.4 27.7,-27.7 -10.5,-17.4 19.7,-4.9 V 217 l 27.5,6.9 c 0.2,0.5 0.4,1 0.6,1.5 l -14.6,24.3 34.4,34.4 24.3,-14.6 c 0.5,0.2 1,0.4 1.6,0.7 l 6.9,27.5 h 48.7 l 6.9,-27.5 c 0.5,-0.2 1,-0.4 1.5,-0.7 l 24.3,14.6 34.4,-34.4 -14.6,-24.3 c 0.2,-0.5 0.4,-1 0.6,-1.5 z M 210,154.8 l -16.4,4.1 -1.5,4.5 c -0.7,2 -1.5,3.9 -2.4,5.8 l -2.1,4.3 8.7,14.6 -8.3,8.3 -14.6,-8.7 -4.3,2.1 c -1.9,0.9 -3.8,1.7 -5.8,2.4 l -4.5,1.5 -4.1,16.4 H 143 l -4.1,-16.4 -4.5,-1.5 c -2,-0.7 -3.9,-1.5 -5.8,-2.4 l -4.3,-2.1 -14.6,8.7 -8.3,-8.3 8.7,-14.6 -2.1,-4.3 c -0.9,-1.9 -1.7,-3.8 -2.4,-5.8 l -1.5,-4.5 -16.5,-4.1 V 143 l 16.4,-4.1 1.5,-4.5 c 0.7,-2 1.5,-3.9 2.4,-5.8 l 2.1,-4.3 -8.7,-14.6 8.3,-8.3 14.6,8.7 4.3,-2.1 c 1.9,-0.9 3.8,-1.7 5.8,-2.4 l 4.5,-1.5 4.1,-16.4 h 11.8 l 4.1,16.4 4.5,1.5 c 2,0.7 3.9,1.5 5.8,2.4 l 4.3,2.1 14.6,-8.7 8.3,8.3 -8.7,14.6 2.1,4.3 c 0.9,1.9 1.7,3.8 2.4,5.8 l 1.5,4.5 16.4,4.1 z m 192.3,92.4 -15.1,15.1 -20.7,-12.4 -4.3,2.1 c -2.8,1.4 -5.6,2.6 -8.3,3.5 l -4.6,1.5 -5.8,23.4 h -21.4 l -5.8,-23.4 -4.6,-1.5 c -2.7,-0.9 -5.6,-2.1 -8.4,-3.5 l -4.3,-2.1 -20.7,12.4 -15.1,-15.1 12.4,-20.7 -2.1,-4.3 c -1.4,-2.8 -2.6,-5.6 -3.5,-8.3 l -1.5,-4.6 -23.4,-5.8 V 182 h 0.1 l 23.4,-5.8 1.5,-4.6 c 0.9,-2.7 2.1,-5.6 3.5,-8.4 l 2.1,-4.3 -12.4,-20.7 15.1,-15.1 20.7,12.4 4.3,-2.1 c 2.8,-1.4 5.6,-2.6 8.4,-3.5 l 4.6,-1.5 5.8,-23.4 h 21.4 l 5.8,23.4 4.6,1.5 c 2.7,0.9 5.6,2.1 8.3,3.5 l 4.3,2.1 20.7,-12.4 15.1,15.1 -12.5,20.8 2.1,4.3 c 1.4,2.8 2.6,5.6 3.5,8.4 l 1.5,4.6 23.4,5.8 v 21.4 l -23.4,5.8 -1.5,4.6 c -0.9,2.7 -2.1,5.6 -3.5,8.3 l -2.1,4.3 z"
             inkscape:connector-curvature="0"
             style="fill:#476c9b;fill-opacity:1" />
        </g>
      </g>
      <g
         id="g16818"
         style="fill:#476c9b;fill-opacity:1">
        <g
           id="g16816"
           style="fill:#476c9b;fill-opacity:1">
          <path
             id="path16814"
             d="m 148.9,115.5 c -18.4,0 -33.4,15 -33.4,33.4 0,18.4 15,33.4 33.4,33.4 18.4,0 33.4,-15 33.4,-33.4 0,-18.4 -15,-33.4 -33.4,-33.4 z m 0,49.3 c -8.8,0 -15.9,-7.1 -15.9,-15.9 0,-8.8 7.1,-15.9 15.9,-15.9 8.8,0 15.9,7.1 15.9,15.9 0,8.8 -7.1,15.9 -15.9,15.9 z"
             inkscape:connector-curvature="0"
             style="fill:#476c9b;fill-opacity:1" />
        </g>
      </g>
      <g
         id="g16820"
         style="fill:#476c9b;fill-opacity:1" />
      <g
         id="g16822"
         style="fill:#476c9b;fill-opacity:1" />
      <g
         id="g16824"
         style="fill:#476c9b;fill-opacity:1" />
      <g
         id="g16826"
         style="fill:#476c9b;fill-opacity:1" />
      <g
         id="g16828"
         style="fill:#476c9b;fill-opacity:1" />
      <g
         id="g16830"
         style="fill:#476c9b;fill-opacity:1" />
      <g
         id="g16832"
         style="fill:#476c9b;fill-opacity:1" />
      <g
         id="g16834"
         style="fill:#476c9b;fill-opacity:1" />
      <g
         id="g16836"
         style="fill:#476c9b;fill-opacity:1" />
      <g
         id="g16838"
         style="fill:#476c9b;fill-opacity:1" />
      <g
         id="g16840"
         style="fill:#476c9b;fill-opacity:1" />
      <g
         id="g16842"
         style="fill:#476c9b;fill-opacity:1" />
      <g
         id="g16844"
         style="fill:#476c9b;fill-opacity:1" />
      <g
         id="g16846"
         style="fill:#476c9b;fill-opacity:1" />
      <g
         id="g16848"
         style="fill:#476c9b;fill-opacity:1" />
    </g>
  </g>
</svg>
