<?xml version="1.0" encoding="UTF-8" standalone="no"?>
<!-- Created with Inkscape (http://www.inkscape.org/) -->

<svg
   xmlns:dc="http://purl.org/dc/elements/1.1/"
   xmlns:cc="http://creativecommons.org/ns#"
   xmlns:rdf="http://www.w3.org/1999/02/22-rdf-syntax-ns#"
   xmlns:svg="http://www.w3.org/2000/svg"
   xmlns="http://www.w3.org/2000/svg"
   xmlns:sodipodi="http://sodipodi.sourceforge.net/DTD/sodipodi-0.dtd"
   xmlns:inkscape="http://www.inkscape.org/namespaces/inkscape"
   width="18.473001mm"
   height="18.473001mm"
   viewBox="0 0 18.473001 18.473002"
   version="1.1"
   id="svg16166"
   inkscape:version="0.92.5 (2060ec1f9f, 2020-04-08)"
   sodipodi:docname="icono3.svg">
  <defs
     id="defs16160" />
  <sodipodi:namedview
     id="base"
     pagecolor="#ffffff"
     bordercolor="#666666"
     borderopacity="1.0"
     inkscape:pageopacity="0.0"
     inkscape:pageshadow="2"
     inkscape:zoom="1.4"
     inkscape:cx="-62.181264"
     inkscape:cy="178.41431"
     inkscape:document-units="mm"
     inkscape:current-layer="layer1"
     showgrid="false"
     fit-margin-top="0"
     fit-margin-left="0"
     fit-margin-right="0"
     fit-margin-bottom="0"
     inkscape:window-width="2880"
     inkscape:window-height="1526"
     inkscape:window-x="2869"
     inkscape:window-y="-11"
     inkscape:window-maximized="1" />
  <metadata
     id="metadata16163">
    <rdf:RDF>
      <cc:Work
         rdf:about="">
        <dc:format>image/svg+xml</dc:format>
        <dc:type
           rdf:resource="http://purl.org/dc/dcmitype/StillImage" />
        <dc:title></dc:title>
      </cc:Work>
    </rdf:RDF>
  </metadata>
  <g
     inkscape:label="Capa 1"
     inkscape:groupmode="layer"
     id="layer1"
     transform="translate(-130.72481,-81.85328)">
    <g
       transform="matrix(0.30788335,0,0,0.30788335,130.10904,81.237513)"
       id="Cheque-5-5-4-9-6">
      <path
         inkscape:connector-curvature="0"
         d="M 61,26 H 56 V 7 A 5,5 0 0 0 46,7 v 5 a 3.009,3.009 0 0 0 -3,3 v 8 a 1,1 0 0 0 2,0 v -8 a 1,1 0 0 1 1,-1 V 26 H 11.9 A 5,5 0 0 0 2,27 v 30 a 5,5 0 0 0 5,5 h 50 a 1,1 0 0 0 1,-1 v -3 h 3 a 1,1 0 0 0 1,-1 V 27 A 1,1 0 0 0 61,26 Z M 48,7 a 3,3 0 0 1 6,0 v 1 h -6 z m 0,3 h 6 v 2 h -6 z m 0,4 h 6 v 24 h -6 z m 1,28 v -2 h 4 v 2 z M 51.72,44 51,46.88 50.28,44 Z M 4,27 a 3,3 0 0 1 6,0 v 26.03 a 4.884,4.884 0 0 0 -6,0 z M 56,60 H 7 a 3,3 0 1 1 3,-3 1,1 0 0 0 1,1 h 45 z m 4,-4 H 12 V 28 h 34 v 11 a 1,1 0 0 0 1,1 v 3 a 1,1 0 0 0 1,1 h 0.22 l 1.81,7.24 a 1,1 0 0 0 1.94,0 L 53.78,44 H 54 a 1,1 0 0 0 1,-1 v -3 a 1,1 0 0 0 1,-1 V 28 h 4 z"
         id="path6144-4-2-5-8-0" />
      <path
         style="fill:#476c9b;fill-opacity:1"
         inkscape:connector-curvature="0"
         d="m 20,39 c 1.221,0 2,0.592 2,1 a 1,1 0 0 0 2,0 c 0,-1.421 -1.259,-2.571 -3,-2.9 V 36 a 1,1 0 0 0 -2,0 v 1.1 c -1.741,0.327 -3,1.477 -3,2.9 0,1.682 1.757,3 4,3 1.221,0 2,0.592 2,1 0,0.408 -0.779,1 -2,1 -1.221,0 -2,-0.592 -2,-1 a 1,1 0 0 0 -2,0 c 0,1.421 1.259,2.571 3,2.9 V 48 a 1,1 0 0 0 2,0 v -1.1 c 1.741,-0.327 3,-1.477 3,-2.9 0,-1.682 -1.757,-3 -4,-3 -1.221,0 -2,-0.592 -2,-1 0,-0.408 0.779,-1 2,-1 z"
         id="path6146-5-9-3-9-6" />
      <path
         style="fill:#476c9b;fill-opacity:1"
         inkscape:connector-curvature="0"
         d="m 29,34 h 14 a 1,1 0 0 0 0,-2 H 29 a 1,1 0 0 0 0,2 z"
         id="path6148-4-5-2-5-6" />
      <path
         style="fill:#476c9b;fill-opacity:1"
         inkscape:connector-curvature="0"
         d="m 29,38 h 14 a 1,1 0 0 0 0,-2 H 29 a 1,1 0 0 0 0,2 z"
         id="path6150-3-5-0-7-5" />
      <path
         style="fill:#476c9b;fill-opacity:1"
         inkscape:connector-curvature="0"
         d="m 29,48 h 17 a 1,1 0 0 0 0,-2 H 29 a 1,1 0 0 0 0,2 z"
         id="path6152-4-1-1-0-5" />
      <path
         style="fill:#476c9b;fill-opacity:1"
         inkscape:connector-curvature="0"
         d="M 47,50 H 29 a 1,1 0 0 0 0,2 h 18 a 1,1 0 0 0 0,-2 z"
         id="path6154-4-1-3-0-8" />
      <path
         style="fill:#476c9b;fill-opacity:1"
         inkscape:connector-curvature="0"
         d="m 55,50 a 1,1 0 0 0 0,2 h 2 a 1,1 0 0 0 0,-2 z"
         id="path6156-9-0-3-3-0" />
    </g>
  </g>
</svg>
