<?xml version="1.0" encoding="UTF-8" standalone="no"?>
<!-- Created with Inkscape (http://www.inkscape.org/) -->

<svg
   xmlns:dc="http://purl.org/dc/elements/1.1/"
   xmlns:cc="http://creativecommons.org/ns#"
   xmlns:rdf="http://www.w3.org/1999/02/22-rdf-syntax-ns#"
   xmlns:svg="http://www.w3.org/2000/svg"
   xmlns="http://www.w3.org/2000/svg"
   xmlns:sodipodi="http://sodipodi.sourceforge.net/DTD/sodipodi-0.dtd"
   xmlns:inkscape="http://www.inkscape.org/namespaces/inkscape"
   width="13.18941mm"
   height="14.427692mm"
   viewBox="0 0 13.18941 14.427692"
   version="1.1"
   id="svg11022"
   inkscape:version="0.92.5 (2060ec1f9f, 2020-04-08)"
   sodipodi:docname="icon3.svg">
  <defs
     id="defs11016" />
  <sodipodi:namedview
     id="base"
     pagecolor="#ffffff"
     bordercolor="#666666"
     borderopacity="1.0"
     inkscape:pageopacity="0.0"
     inkscape:pageshadow="2"
     inkscape:zoom="5.6"
     inkscape:cx="-91.397301"
     inkscape:cy="41.700978"
     inkscape:document-units="mm"
     inkscape:current-layer="layer1"
     showgrid="false"
     fit-margin-top="0"
     fit-margin-left="0"
     fit-margin-right="0"
     fit-margin-bottom="0"
     inkscape:window-width="2400"
     inkscape:window-height="1271"
     inkscape:window-x="2391"
     inkscape:window-y="-9"
     inkscape:window-maximized="1" />
  <metadata
     id="metadata11019">
    <rdf:RDF>
      <cc:Work
         rdf:about="">
        <dc:format>image/svg+xml</dc:format>
        <dc:type
           rdf:resource="http://purl.org/dc/dcmitype/StillImage" />
        <dc:title></dc:title>
      </cc:Work>
    </rdf:RDF>
  </metadata>
  <g
     inkscape:label="Capa 1"
     inkscape:groupmode="layer"
     id="layer1"
     transform="translate(69.713948,50.42542)">
    <g
       style="fill:#ffffff"
       id="g12049"
       transform="matrix(0.02840097,0,0,0.02840097,-70.333089,-50.42542)">
      <g
         style="fill:#ffffff"
         id="g11857">
        <g
           style="fill:#ffffff"
           id="g11855">
          <path
             style="fill:#ffffff"
             id="path11853"
             d="M 469.7,275.8 C 469.7,394.7 373,491.5 254,491.5 135.1,491.5 38.3,394.8 38.3,275.8 38.3,156.9 135,60.1 254,60.1 v 51.8 L 316.2,56 254,0 V 43.5 C 125.9,43.5 21.8,147.7 21.8,275.7 21.8,403.8 125.9,508 254,508 382.1,508 486.2,403.8 486.2,275.8 Z M 270.6,37.2 291.4,55.9 270.6,74.6 Z"
             inkscape:connector-curvature="0" />
        </g>
      </g>
      <g
         style="fill:#ffffff"
         id="g11863">
        <g
           style="fill:#ffffff"
           id="g11861">
          <path
             style="fill:#ffffff"
             id="path11859"
             d="m 483.1,237.1 -16.4,2.7 c 0.8,4.6 1.4,9.3 1.9,14 l 16.5,-1.7 c -0.5,-5 -1.2,-10 -2,-15 z"
             inkscape:connector-curvature="0" />
        </g>
      </g>
      <g
         style="fill:#ffffff"
         id="g11869">
        <g
           style="fill:#ffffff"
           id="g11867">
          <path
             style="fill:#ffffff"
             id="path11865"
             d="m 476.1,207.7 -15.9,4.9 c 1.4,4.4 2.6,8.9 3.7,13.5 l 16.1,-3.8 c -1.2,-4.9 -2.5,-9.8 -3.9,-14.6 z"
             inkscape:connector-curvature="0" />
        </g>
      </g>
      <g
         style="fill:#ffffff"
         id="g11875">
        <g
           style="fill:#ffffff"
           id="g11873">
          <path
             style="fill:#ffffff"
             id="path11871"
             d="m 336.5,58.6 -5.9,15.5 c 4.4,1.7 8.7,3.5 12.9,5.4 l 6.9,-15.1 c -4.6,-2.1 -9.2,-4 -13.9,-5.8 z"
             inkscape:connector-curvature="0" />
        </g>
      </g>
      <g
         style="fill:#ffffff"
         id="g11881">
        <g
           style="fill:#ffffff"
           id="g11879">
          <path
             style="fill:#ffffff"
             id="path11877"
             d="M 363.9,71.1 356,85.7 c 4.1,2.2 8.2,4.6 12.1,7 l 8.9,-14 c -4.3,-2.7 -8.6,-5.2 -13.1,-7.6 z"
             inkscape:connector-curvature="0" />
        </g>
      </g>
      <g
         style="fill:#ffffff"
         id="g11887">
        <g
           style="fill:#ffffff"
           id="g11885">
          <path
             style="fill:#ffffff"
             id="path11883"
             d="m 465.4,179.5 -15.1,6.9 c 1.9,4.2 3.7,8.5 5.4,12.9 l 15.5,-5.9 c -1.8,-4.7 -3.7,-9.4 -5.8,-13.9 z"
             inkscape:connector-curvature="0" />
        </g>
      </g>
      <g
         style="fill:#ffffff"
         id="g11893">
        <g
           style="fill:#ffffff"
           id="g11891">
          <path
             style="fill:#ffffff"
             id="path11889"
             d="m 433.5,128.3 -12.8,10.5 c 2.9,3.7 5.8,7.4 8.5,11.2 l 13.5,-9.7 c -2.9,-4.1 -6,-8.1 -9.2,-12 z"
             inkscape:connector-curvature="0" />
        </g>
      </g>
      <g
         style="fill:#ffffff"
         id="g11899">
        <g
           style="fill:#ffffff"
           id="g11897">
          <path
             style="fill:#ffffff"
             id="path11895"
             d="m 451.1,152.7 -14.1,8.8 c 2.5,4.1 4.8,8.1 7.1,12.2 l 14.6,-7.9 c -2.4,-4.4 -4.9,-8.8 -7.6,-13.1 z"
             inkscape:connector-curvature="0" />
        </g>
      </g>
      <g
         style="fill:#ffffff"
         id="g11905">
        <g
           style="fill:#ffffff"
           id="g11903">
          <path
             style="fill:#ffffff"
             id="path11901"
             d="m 412.8,106.3 -11.3,12.1 c 3.4,3.2 6.7,6.5 9.9,9.9 L 423.5,117 c -3.4,-3.7 -7,-7.2 -10.7,-10.7 z"
             inkscape:connector-curvature="0" />
        </g>
      </g>
      <g
         style="fill:#ffffff"
         id="g11911">
        <g
           style="fill:#ffffff"
           id="g11909">
          <path
             style="fill:#ffffff"
             id="path11907"
             d="m 389.5,87.1 -9.7,13.5 c 3.8,2.7 7.5,5.6 11.1,8.6 l 10.6,-12.9 c -3.9,-3.2 -7.9,-6.3 -12,-9.2 z"
             inkscape:connector-curvature="0" />
        </g>
      </g>
      <g
         style="fill:#ffffff"
         id="g11917">
        <g
           style="fill:#ffffff"
           id="g11915">
          <path
             style="fill:#ffffff"
             id="path11913"
             d="m 254,134.8 c -77.8,-0.1 -141,63.2 -141,141 0,77.8 63.3,141 141,141 77.8,0 141,-63.3 141,-141 0,-77.8 -63.3,-141 -141,-141 z m 0,265.4 c -68.6,0 -124.4,-55.8 -124.4,-124.4 0,-68.6 55.8,-124.5 124.4,-124.5 68.6,0 124.4,55.8 124.4,124.5 0,68.6 -55.8,124.4 -124.4,124.4 z"
             inkscape:connector-curvature="0" />
        </g>
      </g>
      <g
         style="fill:#ffffff"
         id="g11923">
        <g
           style="fill:#ffffff"
           id="g11921">
          <rect
             style="fill:#ffffff"
             id="rect11919"
             height="16.6"
             width="16.6"
             y="167.89999"
             x="245.7" />
        </g>
      </g>
      <g
         style="fill:#ffffff"
         id="g11929">
        <g
           style="fill:#ffffff"
           id="g11927">
          <rect
             style="fill:#ffffff"
             id="rect11925"
             height="16.6"
             width="16.6"
             y="367"
             x="245.7" />
        </g>
      </g>
      <g
         style="fill:#ffffff"
         id="g11935">
        <g
           style="fill:#ffffff"
           id="g11933">
          <rect
             style="fill:#ffffff"
             id="rect11931"
             height="16.6"
             width="16.6"
             y="267.5"
             x="345.20001" />
        </g>
      </g>
      <g
         style="fill:#ffffff"
         id="g11941">
        <g
           style="fill:#ffffff"
           id="g11939">
          <rect
             style="fill:#ffffff"
             id="rect11937"
             height="16.6"
             width="16.6"
             y="267.5"
             x="146.2" />
        </g>
      </g>
      <g
         style="fill:#ffffff"
         id="g11947">
        <g
           style="fill:#ffffff"
           id="g11945">
          <path
             style="fill:#ffffff"
             id="path11943"
             d="m 262.3,252.3 v -51.2 h -16.6 v 51.3 c -7,2.5 -12.6,8 -15.1,15.1 H 195.9 V 284 h 34.7 c 3.4,9.6 12.6,16.6 23.4,16.6 13.7,0 24.9,-11.2 24.9,-24.9 0,-10.8 -7,-19.9 -16.6,-23.4 z M 254,284 c -4.6,0 -8.3,-3.7 -8.3,-8.3 0,-4.6 3.7,-8.3 8.3,-8.3 4.6,0 8.3,3.7 8.3,8.3 0,4.6 -3.7,8.3 -8.3,8.3 z"
             inkscape:connector-curvature="0" />
        </g>
      </g>
      <g
         style="fill:#ffffff"
         id="g11949" />
      <g
         style="fill:#ffffff"
         id="g11951" />
      <g
         style="fill:#ffffff"
         id="g11953" />
      <g
         style="fill:#ffffff"
         id="g11955" />
      <g
         style="fill:#ffffff"
         id="g11957" />
      <g
         style="fill:#ffffff"
         id="g11959" />
      <g
         style="fill:#ffffff"
         id="g11961" />
      <g
         style="fill:#ffffff"
         id="g11963" />
      <g
         style="fill:#ffffff"
         id="g11965" />
      <g
         style="fill:#ffffff"
         id="g11967" />
      <g
         style="fill:#ffffff"
         id="g11969" />
      <g
         style="fill:#ffffff"
         id="g11971" />
      <g
         style="fill:#ffffff"
         id="g11973" />
      <g
         style="fill:#ffffff"
         id="g11975" />
      <g
         style="fill:#ffffff"
         id="g11977" />
    </g>
  </g>
</svg>
