<?xml version="1.0" encoding="UTF-8" standalone="no"?>
<!-- Created with Inkscape (http://www.inkscape.org/) -->

<svg
   xmlns:dc="http://purl.org/dc/elements/1.1/"
   xmlns:cc="http://creativecommons.org/ns#"
   xmlns:rdf="http://www.w3.org/1999/02/22-rdf-syntax-ns#"
   xmlns:svg="http://www.w3.org/2000/svg"
   xmlns="http://www.w3.org/2000/svg"
   xmlns:sodipodi="http://sodipodi.sourceforge.net/DTD/sodipodi-0.dtd"
   xmlns:inkscape="http://www.inkscape.org/namespaces/inkscape"
   width="5.4077325mm"
   height="7.2887435mm"
   viewBox="0 0 5.4077324 7.2887435"
   version="1.1"
   id="svg8343"
   inkscape:version="0.92.5 (2060ec1f9f, 2020-04-08)"
   sodipodi:docname="icono5.svg">
  <defs
     id="defs8337">
    <clipPath
       id="clipPath6657"
       clipPathUnits="userSpaceOnUse">
      <path
         inkscape:connector-curvature="0"
         id="path6655"
         d="M 0,500 H 750 V 0 H 0 Z" />
    </clipPath>
  </defs>
  <sodipodi:namedview
     id="base"
     pagecolor="#ffffff"
     bordercolor="#666666"
     borderopacity="1.0"
     inkscape:pageopacity="0.0"
     inkscape:pageshadow="2"
     inkscape:zoom="2.8"
     inkscape:cx="-62.483975"
     inkscape:cy="46.966595"
     inkscape:document-units="mm"
     inkscape:current-layer="layer1"
     showgrid="false"
     fit-margin-top="0"
     fit-margin-left="0"
     fit-margin-right="0"
     fit-margin-bottom="0"
     inkscape:window-width="2880"
     inkscape:window-height="1526"
     inkscape:window-x="2869"
     inkscape:window-y="-11"
     inkscape:window-maximized="1" />
  <metadata
     id="metadata8340">
    <rdf:RDF>
      <cc:Work
         rdf:about="">
        <dc:format>image/svg+xml</dc:format>
        <dc:type
           rdf:resource="http://purl.org/dc/dcmitype/StillImage" />
        <dc:title></dc:title>
      </cc:Work>
    </rdf:RDF>
  </metadata>
  <g
     inkscape:label="Capa 1"
     inkscape:groupmode="layer"
     id="layer1"
     transform="translate(-124.3013,-107.27138)">
    <g
       id="g15915"
       transform="matrix(0.01434792,0,0,0.01434792,123.36079,107.27138)"
       style="fill:#476c9b;fill-opacity:1">
      <g
         id="g15570"
         style="fill:#476c9b;fill-opacity:1">
        <g
           id="g15568"
           style="fill:#476c9b;fill-opacity:1">
          <path
             id="path15566"
             d="m 352.35,211.3 v -45.6 l -25.7,-6.4 c -0.2,-0.5 -0.4,-1 -0.6,-1.5 l 13.7,-22.7 -32.2,-32.2 -22.8,13.7 c -0.5,-0.2 -1,-0.4 -1.4,-0.6 l -6.4,-25.7 h -45.6 l -6.4,25.7 c -0.5,0.2 -1,0.4 -1.5,0.6 l -22.7,-13.6 -32.3,32 13.7,22.7 c -0.2,0.5 -0.4,1 -0.6,1.5 l -25.7,6.4 v 45.6 l 25.7,6.4 c 0.2,0.5 0.4,1 0.6,1.4 l -13.7,22.8 32.2,32.2 22.7,-13.6 c 0.5,0.2 1,0.4 1.5,0.6 l 6.4,25.7 h 45.6 l 6.4,-25.7 c 0.5,-0.2 1,-0.4 1.4,-0.6 l 22.8,13.7 32.2,-32.2 -13.6,-22.8 c 0.2,-0.5 0.4,-1 0.6,-1.4 z m -33.4,28 -14.1,14.1 -19.3,-11.6 -4,2 c -2.6,1.3 -5.2,2.4 -7.8,3.3 l -4.3,1.4 -5.5,21.9 h -20 l -5.5,-21.9 -4.3,-1.4 c -2.6,-0.9 -5.2,-2 -7.8,-3.3 l -4,-2 -19.3,11.6 -14,-14.1 11.6,-19.3 -2,-4 c -1.3,-2.6 -2.4,-5.2 -3.3,-7.8 l -1.4,-4.3 -21.9,-5.5 v -20 l 21.9,-5.5 1.4,-4.3 c 0.9,-2.6 2,-5.2 3.3,-7.8 l 2,-4 -11.6,-19.2 14.1,-14.1 19.3,11.6 4,-2 c 2.6,-1.3 5.2,-2.4 7.8,-3.3 l 4.3,-1.4 5.5,-21.9 h 20 l 5.5,21.9 4.3,1.4 c 2.6,0.9 5.2,2 7.8,3.3 l 4,2 19.3,-11.6 14.1,14.1 -11.6,19.3 2,4 c 1.3,2.6 2.4,5.2 3.3,7.8 l 1.4,4.3 21.9,5.5 v 19.9 h -0.1 l -21.9,5.5 -1.4,4.3 c -0.9,2.6 -2,5.2 -3.3,7.8 l -2,4 z"
             inkscape:connector-curvature="0"
             style="fill:#476c9b;fill-opacity:1" />
        </g>
      </g>
      <g
         id="g15576"
         style="fill:#476c9b;fill-opacity:1">
        <g
           id="g15574"
           style="fill:#476c9b;fill-opacity:1">
          <path
             id="path15572"
             d="m 254.05,148.5 c -22,0 -39.9,17.9 -39.9,39.9 0,22 17.9,39.9 39.9,39.9 22,0 39.9,-17.9 39.9,-39.9 0,-22 -17.9,-39.9 -39.9,-39.9 z m 0,63.5 c -13,0 -23.5,-10.6 -23.5,-23.5 0,-12.9 10.6,-23.5 23.5,-23.5 13,0 23.5,10.6 23.5,23.5 0,12.9 -10.5,23.5 -23.5,23.5 z"
             inkscape:connector-curvature="0"
             style="fill:#476c9b;fill-opacity:1" />
        </g>
      </g>
      <g
         id="g15582"
         style="fill:#476c9b;fill-opacity:1">
        <g
           id="g15580"
           style="fill:#476c9b;fill-opacity:1">
          <path
             id="path15578"
             d="m 202.15,41.6 c -5.4,1.9 -10.9,4.2 -16.1,6.7 l 7.2,14.7 c 4.7,-2.2 9.6,-4.2 14.4,-5.9 z"
             inkscape:connector-curvature="0"
             style="fill:#476c9b;fill-opacity:1" />
        </g>
      </g>
      <g
         id="g15588"
         style="fill:#476c9b;fill-opacity:1">
        <g
           id="g15586"
           style="fill:#476c9b;fill-opacity:1">
          <path
             id="path15584-4"
             d="m 236.15,33.8 c -5.8,0.7 -11.6,1.7 -17.2,3 l 3.7,16 c 5,-1.2 10.2,-2.1 15.4,-2.7 z"
             inkscape:connector-curvature="0"
             style="fill:#476c9b;fill-opacity:1" />
        </g>
      </g>
      <g
         id="g15594"
         style="fill:#476c9b;fill-opacity:1">
        <g
           id="g15592"
           style="fill:#476c9b;fill-opacity:1">
          <path
             id="path15590"
             d="m 254.05,32.8 h -0.4 l 0.4,16.4 c 5.1,0 10.2,0.2 15.2,0.8 l 1.8,-16.3 c -5.6,-0.6 -11.3,-0.9 -17,-0.9 z"
             inkscape:connector-curvature="0"
             style="fill:#476c9b;fill-opacity:1" />
        </g>
      </g>
      <g
         id="g15600"
         style="fill:#476c9b;fill-opacity:1">
        <g
           id="g15598"
           style="fill:#476c9b;fill-opacity:1">
          <path
             id="path15596"
             d="m 106.95,137.3 c -1.9,5.5 -3.5,11.1 -4.8,16.8 l 16,3.6 c 1.2,-5.1 2.6,-10.1 4.3,-15 z"
             inkscape:connector-curvature="0"
             style="fill:#476c9b;fill-opacity:1" />
        </g>
      </g>
      <g
         id="g15606"
         style="fill:#476c9b;fill-opacity:1">
        <g
           id="g15604"
           style="fill:#476c9b;fill-opacity:1">
          <path
             id="path15602"
             d="m 99.25,171.3 c -0.6,5.7 -0.9,11.4 -0.9,17.1 v 0.3 l 16.4,-0.3 c 0,-5.1 0.3,-10.2 0.8,-15.3 z"
             inkscape:connector-curvature="0"
             style="fill:#476c9b;fill-opacity:1" />
        </g>
      </g>
      <g
         id="g15612"
         style="fill:#476c9b;fill-opacity:1">
        <g
           id="g15610"
           style="fill:#476c9b;fill-opacity:1">
          <path
             id="path15608"
             d="m 122.05,105.9 c -3.1,4.9 -5.9,10.1 -8.4,15.3 l 14.8,7.1 c 2.2,-4.7 4.7,-9.3 7.5,-13.7 z"
             inkscape:connector-curvature="0"
             style="fill:#476c9b;fill-opacity:1" />
        </g>
      </g>
      <g
         id="g15618"
         style="fill:#476c9b;fill-opacity:1">
        <g
           id="g15616"
           style="fill:#476c9b;fill-opacity:1">
          <path
             id="path15614-1"
             d="m 143.75,78.6 c -4.1,4.1 -8,8.5 -11.6,13 l 12.8,10.2 c 3.2,-4 6.7,-7.9 10.4,-11.6 z"
             inkscape:connector-curvature="0"
             style="fill:#476c9b;fill-opacity:1" />
        </g>
      </g>
      <g
         id="g15624"
         style="fill:#476c9b;fill-opacity:1">
        <g
           id="g15622"
           style="fill:#476c9b;fill-opacity:1">
          <path
             id="path15620"
             d="m 170.85,56.9 c -4.9,3.1 -9.7,6.5 -14.2,10.1 l 10.3,12.8 c 4,-3.3 8.3,-6.3 12.7,-9.1 z"
             inkscape:connector-curvature="0"
             style="fill:#476c9b;fill-opacity:1" />
        </g>
      </g>
      <g
         id="g15630"
         style="fill:#476c9b;fill-opacity:1">
        <g
           id="g15628"
           style="fill:#476c9b;fill-opacity:1">
          <path
             id="path15626"
             d="m 375.35,90.9 -12.8,10.3 c 3.4,4.1 6.4,8.4 9.2,12.7 l 13.8,-8.8 c -3.1,-4.9 -6.5,-9.7 -10.2,-14.2 z"
             inkscape:connector-curvature="0"
             style="fill:#476c9b;fill-opacity:1" />
        </g>
      </g>
      <g
         id="g15636"
         style="fill:#476c9b;fill-opacity:1">
        <g
           id="g15634"
           style="fill:#476c9b;fill-opacity:1">
          <path
             id="path15632"
             d="m 288.25,36.5 -3.6,16 c 5.1,1.1 10.1,2.6 15,4.3 l 5.4,-15.5 c -5.5,-1.9 -11.1,-3.5 -16.8,-4.8 z"
             inkscape:connector-curvature="0"
             style="fill:#476c9b;fill-opacity:1" />
        </g>
      </g>
      <g
         id="g15642"
         style="fill:#476c9b;fill-opacity:1">
        <g
           id="g15640"
           style="fill:#476c9b;fill-opacity:1">
          <path
             id="path15638"
             d="m 405.75,153.2 -16,3.7 c 1.2,5.1 2.1,10.2 2.7,15.4 l 16.3,-1.9 c -0.7,-5.8 -1.7,-11.6 -3,-17.2 z"
             inkscape:connector-curvature="0"
             style="fill:#476c9b;fill-opacity:1" />
        </g>
      </g>
      <g
         id="g15648"
         style="fill:#476c9b;fill-opacity:1">
        <g
           id="g15646"
           style="fill:#476c9b;fill-opacity:1">
          <path
             id="path15644"
             d="m 394.15,120.3 -14.7,7.2 c 2.2,4.7 4.2,9.6 5.9,14.4 l 15.5,-5.5 c -1.9,-5.5 -4.2,-10.9 -6.7,-16.1 z"
             inkscape:connector-curvature="0"
             style="fill:#476c9b;fill-opacity:1" />
        </g>
      </g>
      <g
         id="g15654"
         style="fill:#476c9b;fill-opacity:1">
        <g
           id="g15652"
           style="fill:#476c9b;fill-opacity:1">
          <path
             id="path15650"
             d="m 350.75,66.4 -10.2,12.8 c 4.1,3.2 8,6.7 11.7,10.4 L 363.75,78 c -4.1,-4.1 -8.5,-8 -13,-11.6 z"
             inkscape:connector-curvature="0"
             style="fill:#476c9b;fill-opacity:1" />
        </g>
      </g>
      <g
         id="g15660"
         style="fill:#476c9b;fill-opacity:1">
        <g
           id="g15658"
           style="fill:#476c9b;fill-opacity:1">
          <path
             id="path15656"
             d="m 321.15,48 -7.1,14.7 c 4.7,2.2 9.3,4.8 13.7,7.5 l 8.7,-13.8 c -4.9,-3.1 -10.1,-5.9 -15.3,-8.4 z"
             inkscape:connector-curvature="0"
             style="fill:#476c9b;fill-opacity:1" />
        </g>
      </g>
      <g
         id="g15666"
         style="fill:#476c9b;fill-opacity:1">
        <g
           id="g15664"
           style="fill:#476c9b;fill-opacity:1">
          <path
             id="path15662"
             d="m 340.95,297.4 c -4.1,3.2 -8.3,6.2 -12.7,9 l 8.7,13.9 c 4.9,-3.1 9.7,-6.5 14.2,-10.1 z"
             inkscape:connector-curvature="0"
             style="fill:#476c9b;fill-opacity:1" />
        </g>
      </g>
      <g
         id="g15672"
         style="fill:#476c9b;fill-opacity:1">
        <g
           id="g15670"
           style="fill:#476c9b;fill-opacity:1">
          <path
             id="path15668"
             d="m 379.55,248.8 c -2.2,4.7 -4.7,9.3 -7.5,13.7 l 13.9,8.7 c 3.1,-4.9 5.9,-10.1 8.4,-15.3 z"
             inkscape:connector-curvature="0"
             style="fill:#476c9b;fill-opacity:1" />
        </g>
      </g>
      <g
         id="g15678"
         style="fill:#476c9b;fill-opacity:1">
        <g
           id="g15676"
           style="fill:#476c9b;fill-opacity:1">
          <path
             id="path15674"
             d="m 115.65,204.3 -16.3,1.9 c 0.7,5.8 1.7,11.6 2.9,17.2 l 16,-3.7 c -1.1,-5 -2,-10.2 -2.6,-15.4 z"
             inkscape:connector-curvature="0"
             style="fill:#476c9b;fill-opacity:1" />
        </g>
      </g>
      <g
         id="g15684"
         style="fill:#476c9b;fill-opacity:1">
        <g
           id="g15682"
           style="fill:#476c9b;fill-opacity:1">
          <path
             id="path15680"
             d="m 314.55,313.9 c -4.6,2.3 -9.5,4.3 -14.4,6 l 5.4,15.5 c 5.5,-1.9 10.9,-4.2 16.1,-6.7 z"
             inkscape:connector-curvature="0"
             style="fill:#476c9b;fill-opacity:1" />
        </g>
      </g>
      <g
         id="g15690"
         style="fill:#476c9b;fill-opacity:1">
        <g
           id="g15688"
           style="fill:#476c9b;fill-opacity:1">
          <path
             id="path15686"
             d="m 389.85,219.4 c -1.1,5.1 -2.6,10.2 -4.3,15 l 15.5,5.4 c 1.9,-5.5 3.5,-11.1 4.8,-16.8 z"
             inkscape:connector-curvature="0"
             style="fill:#476c9b;fill-opacity:1" />
        </g>
      </g>
      <g
         id="g15696"
         style="fill:#476c9b;fill-opacity:1">
        <g
           id="g15694"
           style="fill:#476c9b;fill-opacity:1">
          <path
             id="path15692"
             d="m 404.95,188 -11.6,0.4 c 0,5.2 -0.3,10.5 -0.9,15.6 l 16.3,1.8 c 0.6,-5.7 1,-11.6 1,-17.6 z"
             inkscape:connector-curvature="0"
             style="fill:#476c9b;fill-opacity:1" />
        </g>
      </g>
      <g
         id="g15702"
         style="fill:#476c9b;fill-opacity:1">
        <g
           id="g15700"
           style="fill:#476c9b;fill-opacity:1">
          <path
             id="path15698"
             d="m 285.15,324.3 c -5,1.1 -10.2,2 -15.4,2.6 l 1.8,16.3 c 5.8,-0.7 11.6,-1.6 17.2,-2.9 z"
             inkscape:connector-curvature="0"
             style="fill:#476c9b;fill-opacity:1" />
        </g>
      </g>
      <g
         id="g15708"
         style="fill:#476c9b;fill-opacity:1">
        <g
           id="g15706"
           style="fill:#476c9b;fill-opacity:1">
          <path
             id="path15704"
             d="m 362.95,275.3 c -3.2,4 -6.7,7.9 -10.4,11.6 l 11.6,11.6 c 4.1,-4.1 8,-8.5 11.6,-13 z"
             inkscape:connector-curvature="0"
             style="fill:#476c9b;fill-opacity:1" />
        </g>
      </g>
      <g
         id="g15714"
         style="fill:#476c9b;fill-opacity:1">
        <g
           id="g15712"
           style="fill:#476c9b;fill-opacity:1">
          <path
             id="path15710"
             d="m 136.15,262.7 -13.9,8.8 c 3.1,4.9 6.5,9.7 10.1,14.2 l 12.8,-10.2 c -3.1,-4.1 -6.2,-8.4 -9,-12.8 z"
             inkscape:connector-curvature="0"
             style="fill:#476c9b;fill-opacity:1" />
        </g>
      </g>
      <g
         id="g15720"
         style="fill:#476c9b;fill-opacity:1">
        <g
           id="g15718"
           style="fill:#476c9b;fill-opacity:1">
          <path
             id="path15716"
             d="m 122.65,234.7 -15.5,5.4 c 1.9,5.5 4.2,10.9 6.7,16.1 l 14.7,-7.1 c -2.2,-4.7 -4.2,-9.5 -5.9,-14.4 z"
             inkscape:connector-curvature="0"
             style="fill:#476c9b;fill-opacity:1" />
        </g>
      </g>
      <g
         id="g15726"
         style="fill:#476c9b;fill-opacity:1">
        <g
           id="g15724"
           style="fill:#476c9b;fill-opacity:1">
          <path
             id="path15722"
             d="m 254.05,327.7 c -5.2,0 -10.4,-0.2 -15.5,-0.8 l -1.8,16.3 c 5.7,0.6 11.5,0.9 17.3,0.9 h 0.1 z"
             inkscape:connector-curvature="0"
             style="fill:#476c9b;fill-opacity:1" />
        </g>
      </g>
      <g
         id="g15732"
         style="fill:#476c9b;fill-opacity:1">
        <g
           id="g15730"
           style="fill:#476c9b;fill-opacity:1">
          <path
             id="path15728"
             d="m 155.65,287.1 -11.5,11.6 c 4.1,4.1 8.5,8 13,11.6 l 10.2,-12.8 c -4.1,-3.2 -8,-6.7 -11.7,-10.4 z"
             inkscape:connector-curvature="0"
             style="fill:#476c9b;fill-opacity:1" />
        </g>
      </g>
      <g
         id="g15738"
         style="fill:#476c9b;fill-opacity:1">
        <g
           id="g15736"
           style="fill:#476c9b;fill-opacity:1">
          <path
             id="path15734"
             d="m 208.25,320 -5.4,15.5 c 5.5,1.9 11.1,3.5 16.8,4.8 l 3.6,-16 c -5.1,-1.1 -10.1,-2.6 -15,-4.3 z"
             inkscape:connector-curvature="0"
             style="fill:#476c9b;fill-opacity:1" />
        </g>
      </g>
      <g
         id="g15744"
         style="fill:#476c9b;fill-opacity:1">
        <g
           id="g15742"
           style="fill:#476c9b;fill-opacity:1">
          <path
             id="path15740"
             d="m 180.05,306.4 -8.7,14 c 4.9,3.1 10.1,5.9 15.3,8.4 l 7.1,-14.8 c -4.7,-2.2 -9.3,-4.8 -13.7,-7.6 z"
             inkscape:connector-curvature="0"
             style="fill:#476c9b;fill-opacity:1" />
        </g>
      </g>
      <g
         id="g15750"
         style="fill:#476c9b;fill-opacity:1">
        <g
           id="g15748"
           style="fill:#476c9b;fill-opacity:1">
          <path
             id="path15746"
             d="m 254.05,0 c -103.9,0 -188.5,84.5 -188.5,188.5 0,69.4 37.5,132.4 98.3,165.5 v 47.6 h 180.3 V 354 c 60.8,-33.1 98.3,-96.1 98.3,-165.5 C 442.55,84.5 357.95,0 254.05,0 Z m 78.2,341.7 -4.5,2.3 v 41.1 H 180.35 V 344 l -4.5,-2.3 c -57.9,-29.6 -93.9,-88.3 -93.9,-153.2 0,-94.9 77.2,-172.1 172.1,-172.1 94.9,0 172.1,77.2 172.1,172.1 0,64.9 -36,123.6 -93.9,153.2 z"
             inkscape:connector-curvature="0"
             style="fill:#476c9b;fill-opacity:1" />
        </g>
      </g>
      <g
         id="g15756"
         style="fill:#476c9b;fill-opacity:1">
        <g
           id="g15754"
           style="fill:#476c9b;fill-opacity:1">
          <rect
             id="rect15752"
             height="16.4"
             width="180.3"
             y="417.89999"
             x="163.95"
             style="fill:#476c9b;fill-opacity:1" />
        </g>
      </g>
      <g
         id="g15762"
         style="fill:#476c9b;fill-opacity:1">
        <g
           id="g15760"
           style="fill:#476c9b;fill-opacity:1">
          <path
             id="path15758"
             d="m 311.25,450.6 h -114.6 -32.8 V 467 h 33.5 c 3.9,23.2 24.1,41 48.4,41 h 16.4 c 24.3,0 44.5,-17.8 48.4,-41 h 33.5 v -16.4 z m -49,41 h -16.4 c -15.2,0 -28.1,-10.5 -31.7,-24.6 h 79.9 c -3.7,14.2 -16.6,24.6 -31.8,24.6 z"
             inkscape:connector-curvature="0"
             style="fill:#476c9b;fill-opacity:1" />
        </g>
      </g>
      <g
         id="g15764"
         style="fill:#476c9b;fill-opacity:1" />
      <g
         id="g15766"
         style="fill:#476c9b;fill-opacity:1" />
      <g
         id="g15768"
         style="fill:#476c9b;fill-opacity:1" />
      <g
         id="g15770"
         style="fill:#476c9b;fill-opacity:1" />
      <g
         id="g15772"
         style="fill:#476c9b;fill-opacity:1" />
      <g
         id="g15774"
         style="fill:#476c9b;fill-opacity:1" />
      <g
         id="g15776"
         style="fill:#476c9b;fill-opacity:1" />
      <g
         id="g15778"
         style="fill:#476c9b;fill-opacity:1" />
      <g
         id="g15780"
         style="fill:#476c9b;fill-opacity:1" />
      <g
         id="g15782"
         style="fill:#476c9b;fill-opacity:1" />
      <g
         id="g15784"
         style="fill:#476c9b;fill-opacity:1" />
      <g
         id="g15786"
         style="fill:#476c9b;fill-opacity:1" />
      <g
         id="g15788"
         style="fill:#476c9b;fill-opacity:1" />
      <g
         id="g15790"
         style="fill:#476c9b;fill-opacity:1" />
      <g
         id="g15792"
         style="fill:#476c9b;fill-opacity:1" />
    </g>
  </g>
</svg>
