<?xml version="1.0" encoding="UTF-8" standalone="no"?>
<!-- Created with Inkscape (http://www.inkscape.org/) -->

<svg
   xmlns:dc="http://purl.org/dc/elements/1.1/"
   xmlns:cc="http://creativecommons.org/ns#"
   xmlns:rdf="http://www.w3.org/1999/02/22-rdf-syntax-ns#"
   xmlns:svg="http://www.w3.org/2000/svg"
   xmlns="http://www.w3.org/2000/svg"
   xmlns:sodipodi="http://sodipodi.sourceforge.net/DTD/sodipodi-0.dtd"
   xmlns:inkscape="http://www.inkscape.org/namespaces/inkscape"
   width="13.501822mm"
   height="14.427692mm"
   viewBox="0 0 13.501822 14.427692"
   version="1.1"
   id="svg11022"
   inkscape:version="0.92.5 (2060ec1f9f, 2020-04-08)"
   sodipodi:docname="icon2.svg">
  <defs
     id="defs11016" />
  <sodipodi:namedview
     id="base"
     pagecolor="#ffffff"
     bordercolor="#666666"
     borderopacity="1.0"
     inkscape:pageopacity="0.0"
     inkscape:pageshadow="2"
     inkscape:zoom="5.6"
     inkscape:cx="-26.679312"
     inkscape:cy="-5.2068117"
     inkscape:document-units="mm"
     inkscape:current-layer="layer1"
     showgrid="false"
     fit-margin-top="0"
     fit-margin-left="0"
     fit-margin-right="0"
     fit-margin-bottom="0"
     inkscape:window-width="2400"
     inkscape:window-height="1271"
     inkscape:window-x="2391"
     inkscape:window-y="-9"
     inkscape:window-maximized="1" />
  <metadata
     id="metadata11019">
    <rdf:RDF>
      <cc:Work
         rdf:about="">
        <dc:format>image/svg+xml</dc:format>
        <dc:type
           rdf:resource="http://purl.org/dc/dcmitype/StillImage" />
        <dc:title></dc:title>
      </cc:Work>
    </rdf:RDF>
  </metadata>
  <g
     inkscape:label="Capa 1"
     inkscape:groupmode="layer"
     id="layer1"
     transform="translate(86.837249,62.836439)">
    <g
       style="fill:#ffffff"
       id="g12157"
       transform="matrix(0.02840097,0,0,0.02840097,-87.300185,-62.836439)">
      <g
         style="fill:#ffffff"
         id="g12055">
        <g
           style="fill:#ffffff"
           id="g12053">
          <path
             style="fill:#ffffff"
             id="path12051"
             d="M 106.4,0.1 C 70.3,0 40.9,29.4 40.9,65.5 c 0,36.2 29.4,65.6 65.5,65.6 36.1,0 65.5,-29.4 65.5,-65.5 0,-36.1 -29.4,-65.5 -65.5,-65.5 z m 0,114.7 c -27.1,0 -49.1,-22.1 -49.1,-49.3 0,-27.2 22,-49.1 49.1,-49.1 27.1,0 49.2,22.1 49.2,49.2 0,27.1 -22.1,49.2 -49.2,49.2 z"
             inkscape:connector-curvature="0" />
        </g>
      </g>
      <g
         style="fill:#ffffff"
         id="g12061">
        <g
           style="fill:#ffffff"
           id="g12059">
          <path
             style="fill:#ffffff"
             id="path12057"
             d="m 401.4,0 c -36.1,0 -65.5,29.4 -65.5,65.5 -0.1,36.2 29.3,65.6 65.5,65.6 36.1,0 65.5,-29.4 65.5,-65.5 C 466.9,29.4 437.5,0 401.4,0 Z m 0,114.8 c -27.1,0 -49.2,-22.1 -49.2,-49.2 0,-27.1 22.1,-49.2 49.2,-49.2 27.1,0 49.2,22.1 49.2,49.2 0,27.1 -22.1,49.2 -49.2,49.2 z"
             inkscape:connector-curvature="0" />
        </g>
      </g>
      <g
         style="fill:#ffffff"
         id="g12067">
        <g
           style="fill:#ffffff"
           id="g12065">
          <path
             style="fill:#ffffff"
             id="path12063"
             d="M 450.5,155.7 H 333.6 c -17,0 -32,10.2 -38.1,26 L 253.9,288 212.3,181.8 c -6.2,-15.8 -21.2,-26 -38.2,-26 h -37 L 106.4,211.2 75.7,155.8 H 57.3 c -22.6,0 -41,18.4 -41,41 V 360.7 H 49.1 V 508 H 163.8 V 228.2 l 51.8,132.3 h 49.2 17.6 10 L 344.2,228.2 V 508 H 458.9 V 360.5 h 32.8 V 196.6 c -0.2,-22.5 -18.6,-40.9 -41.2,-40.9 z M 226.7,344 v 0.1 L 179,222.2 c -2.9,-7.4 -10.4,-11.6 -18.3,-10.1 -7.9,1.5 -13.3,8.1 -13.3,16.1 V 491.6 H 114.6 V 368.7 H 98.2 V 491.6 H 65.4 V 344.1 H 32.7 V 196.6 C 32.7,183 43.7,172 57.3,172 h 8.8 l 40.4,72.8 40.4,-72.8 h 27.4 c 10.2,0 19.2,6.1 22.9,15.6 L 258.4,344 Z m 248.4,0.1 H 442.3 V 491.6 H 409.5 V 368.7 H 393.1 V 491.6 H 360.3 V 228.2 c 0,-8 -5.5,-14.6 -13.3,-16.1 -7.9,-1.5 -15.4,2.7 -18.3,10.1 L 281,344.1 h -5.1 l -13.2,-33.7 48,-122.8 c 3.7,-9.5 12.7,-15.6 22.9,-15.6 h 116.9 c 13.6,0 24.6,11 24.6,24.6 z"
             inkscape:connector-curvature="0" />
        </g>
      </g>
      <g
         style="fill:#ffffff"
         id="g12073">
        <g
           style="fill:#ffffff"
           id="g12071">
          <rect
             style="fill:#ffffff"
             id="rect12069"
             height="16.4"
             width="16.4"
             y="188.5"
             x="393.20001" />
        </g>
      </g>
      <g
         style="fill:#ffffff"
         id="g12079">
        <g
           style="fill:#ffffff"
           id="g12077">
          <rect
             style="fill:#ffffff"
             id="rect12075"
             height="16.4"
             width="16.4"
             y="221.2"
             x="393.20001" />
        </g>
      </g>
      <g
         style="fill:#ffffff"
         id="g12085">
        <g
           style="fill:#ffffff"
           id="g12083">
          <rect
             style="fill:#ffffff"
             id="rect12081"
             height="16.4"
             width="16.4"
             y="254"
             x="393.20001" />
        </g>
      </g>
      <g
         style="fill:#ffffff"
         id="g12087" />
      <g
         style="fill:#ffffff"
         id="g12089" />
      <g
         style="fill:#ffffff"
         id="g12091" />
      <g
         style="fill:#ffffff"
         id="g12093" />
      <g
         style="fill:#ffffff"
         id="g12095" />
      <g
         style="fill:#ffffff"
         id="g12097" />
      <g
         style="fill:#ffffff"
         id="g12099" />
      <g
         style="fill:#ffffff"
         id="g12101" />
      <g
         style="fill:#ffffff"
         id="g12103" />
      <g
         style="fill:#ffffff"
         id="g12105" />
      <g
         style="fill:#ffffff"
         id="g12107" />
      <g
         style="fill:#ffffff"
         id="g12109" />
      <g
         style="fill:#ffffff"
         id="g12111" />
      <g
         style="fill:#ffffff"
         id="g12113" />
      <g
         style="fill:#ffffff"
         id="g12115" />
    </g>
  </g>
</svg>
