<?xml version="1.0" encoding="UTF-8" standalone="no"?>
<!-- Created with Inkscape (http://www.inkscape.org/) -->

<svg
   xmlns:dc="http://purl.org/dc/elements/1.1/"
   xmlns:cc="http://creativecommons.org/ns#"
   xmlns:rdf="http://www.w3.org/1999/02/22-rdf-syntax-ns#"
   xmlns:svg="http://www.w3.org/2000/svg"
   xmlns="http://www.w3.org/2000/svg"
   xmlns:sodipodi="http://sodipodi.sourceforge.net/DTD/sodipodi-0.dtd"
   xmlns:inkscape="http://www.inkscape.org/namespaces/inkscape"
   width="20.697153mm"
   height="16.55526mm"
   viewBox="0 0 20.697153 16.55526"
   version="1.1"
   id="svg16166"
   inkscape:version="0.92.5 (2060ec1f9f, 2020-04-08)"
   sodipodi:docname="icono2.svg">
  <defs
     id="defs16160" />
  <sodipodi:namedview
     id="base"
     pagecolor="#ffffff"
     bordercolor="#666666"
     borderopacity="1.0"
     inkscape:pageopacity="0.0"
     inkscape:pageshadow="2"
     inkscape:zoom="1.4"
     inkscape:cx="57.194853"
     inkscape:cy="69.218986"
     inkscape:document-units="mm"
     inkscape:current-layer="layer1"
     showgrid="false"
     fit-margin-top="0"
     fit-margin-left="0"
     fit-margin-right="0"
     fit-margin-bottom="0"
     inkscape:window-width="2880"
     inkscape:window-height="1526"
     inkscape:window-x="2869"
     inkscape:window-y="-11"
     inkscape:window-maximized="1" />
  <metadata
     id="metadata16163">
    <rdf:RDF>
      <cc:Work
         rdf:about="">
        <dc:format>image/svg+xml</dc:format>
        <dc:type
           rdf:resource="http://purl.org/dc/dcmitype/StillImage" />
        <dc:title></dc:title>
      </cc:Work>
    </rdf:RDF>
  </metadata>
  <g
     inkscape:label="Capa 1"
     inkscape:groupmode="layer"
     id="layer1"
     transform="translate(-99.139875,-54.879759)">
    <g
       transform="matrix(0.22662975,0,0,0.22662975,84.973848,11.499012)"
       id="g10947-8-7-8-9-1-7">
      <path
         inkscape:connector-curvature="0"
         d="m 140.82753,242.66372 -3.31238,-1.98451 c -1.00972,-0.60392 -2.16486,-0.92271 -3.3416,-0.92335 h -4.98508 c -1.02051,-0.002 -2.03658,0.12955 -3.02344,0.38992 l -15.02003,4.03188 c -1.64222,0.45342 -2.96121,1.67651 -3.53656,3.28 l -13.211442,-7.14741 c -1.071318,-0.60964 -2.325526,-0.81666 -3.535917,-0.58423 -0.456595,0.0806 -0.89922,0.22607 -1.315173,0.43182 -0.939227,0.44961 -1.718425,1.1761 -2.234079,2.08104 -0.45088,0.78808 -0.687751,1.68032 -0.687751,2.5878 -0.01397,1.85305 0.967805,3.5702 2.570652,4.49864 l 23.67823,14.16716 c 1.02877,0.63695 2.21376,0.97415 3.42352,0.97415 h 18.32478 c 0.81857,6.5e-4 1.62952,-0.15431 2.3903,-0.45532 l 3.81597,-1.50696 v 1.96228 H 153.8332 V 238.4553 h -13.00567 z m -4.77171,18.92871 c -0.45532,0.17972 -0.94113,0.27243 -1.43075,0.27307 h -18.32859 c -0.73284,-6.5e-4 -1.45108,-0.20703 -2.07215,-0.59567 L 90.513713,247.08616 c -0.805869,-0.46549 -1.299297,-1.32788 -1.292946,-2.25821 0.0019,-0.45596 0.121928,-0.9043 0.348638,-1.30057 0.259097,-0.44898 0.649013,-0.80904 1.11704,-1.03131 0.206388,-0.10034 0.424843,-0.17146 0.650283,-0.21083 0.164476,-0.0305 0.331492,-0.0464 0.498508,-0.0464 0.447069,-0.001 0.886519,0.11558 1.274531,0.33784 l 14.325943,7.74117 c 0.0165,0.0794 0.0165,0.15749 0.0375,0.23687 0.61599,2.27028 2.67544,3.84708 5.02828,3.84963 0.72395,-0.066 1.44091,-0.19433 2.14327,-0.3823 l 13.51243,-3.61593 -0.6706,-2.51286 -13.46862,3.60005 c -0.59313,0.13653 -1.35836,0.29276 -1.51648,0.30609 -1.17483,0.002 -2.20487,-0.783 -2.51414,-1.91592 -0.0419,-0.15749 -0.0667,-0.31879 -0.0756,-0.48136 0,0 -0.0102,-0.31498 0,-0.42548 0.0991,-1.08783 0.86112,-2.00102 1.91339,-2.29377 l 15.01367,-4.01665 c 0.7665,-0.20512 1.55649,-0.30926 2.34966,-0.30926 h 4.98508 c 0.70617,0 1.399,0.19178 2.0042,0.55439 l 4.64978,2.78402 v 14.01094 z m 7.37284,-20.536 h 7.8034 v 20.80907 h -7.8034 z m 0,0"
         id="path10762-7-8-5-1-3-8"
         style="stroke-width:0.16257086" />
      <path
         style="fill:#000000;stroke-width:0.16257085"
         d="m 62.507359,191.41689 v 28.61272 h 13.005408 v -3.90157 h 2.211255 l 0.78703,0.51987 c 2.201703,1.46187 4.765119,2.28731 7.406269,2.38383 v -2.60191 c -2.128493,-0.0947 -4.191767,-0.76707 -5.966566,-1.94562 v -5.1e-4 l -1.446953,-0.95705 h -2.991035 v -17.00051 l 1.226291,0.0439 c 1.089078,0.0387 2.169715,-0.1958 3.14452,-0.68161 l 2.91248,-1.45831 c 0.542317,-0.27116 1.141227,-0.41186 1.747679,-0.41186 H 100.8947 c 2.41569,-0.007 4.73413,0.95328 6.43733,2.66599 l 5.13766,5.13715 h 0.75964 5.3e-4 2.91817 l -6.97685,-6.9758 c -2.19025,-2.20296 -5.17051,-3.43762 -8.27648,-3.42873 H 84.543737 c -1.009068,0.001 -2.004166,0.23717 -2.907824,0.68678 l -2.915073,1.45779 c -0.584227,0.29402 -1.233249,0.43479 -1.886691,0.40876 l -1.321382,-0.0465 v -2.50682 z m 2.60088,2.60139 h 7.803674 v 23.40994 h -7.803674 z m 33.472384,4.64726 -1.838139,1.83813 1.317757,1.31775 2.600349,2.60088 2.60139,2.60139 2.60037,2.60088 0.0672,0.0672 c 1.0205,1.01607 1.02352,2.667 0.008,3.68815 -1.01671,1.02051 -2.66763,1.02397 -3.68816,0.008 l -2.472183,-2.4722 -2.172494,-2.17248 -3.028738,-3.02876 -0.910537,0.78032 c -1.46947,1.24787 -3.334888,1.77976 -5.146463,1.59938 v -0.0124 c -0.927603,-0.0942 -1.814857,-0.36188 -2.601384,-0.76274 v -0.0191 c -0.353642,-0.19203 -0.694531,-0.41681 -1.018037,-0.67541 l -0.753957,-0.61082 -1.639173,2.02055 0.762212,0.61805 c 0.796872,0.63684 1.691455,1.14113 2.648955,1.49293 v -0.0217 c 0.871141,0.32265 1.742308,0.4974 2.601384,0.54932 v 0.0171 c 2.061977,0.15495 4.117419,-0.37085 5.852345,-1.49551 l 2.007632,2.00711 2.071184,2.06292 c -0.01336,0.0163 -0.02577,0.0334 -0.03926,0.0496 0.01349,-0.0162 0.02752,-0.0317 0.04082,-0.0481 l 1.962154,1.96319 c 1.9468,1.91769 5.01877,2.00417 7.06831,0.25942 0.31544,-0.54077 0.71321,-1.04304 1.19113,-1.48932 0.73358,-1.34079 0.83206,-2.94681 0.25374,-4.37492 -0.20588,-0.44538 -0.63006,-1.24345 -1.24489,-1.85829 l -0.74208,-0.74259 h -5e-4 l -2.60089,-2.60088 c 0.003,0 0.005,10e-6 0.008,0 -0.003,0 -0.005,-3.7e-4 -0.008,-5.1e-4 l -2.60035,-2.60088 z"
         id="path10764-4-1-2-0-5-0-2"
         inkscape:connector-curvature="0" />
      <path
         inkscape:connector-curvature="0"
         id="path10764-3-5-4-6-7-0-71-3"
         transform="matrix(1.1674696,0,0,1.1674696,-242.53104,-496.68852)"
         d="m 294.88281,598.31055 2.22852,2.22851 h 7.61523 21.16602 v 24.50782 h -21.16602 -21.16601 v -19.1543 c -0.73526,-0.0446 -1.48101,-0.19467 -2.22657,-0.4707 v 0.0195 c 0,0 -0.002,0 -0.002,0 v 5.38281 2.22851 14.22266 h 23.39453 23.39453 v -28.96484 h -20.89453 -2.49804 -0.002 -0.65039 z m 4.45703,4.45703 0.63477,0.63672 c 0.52581,0.52581 0.88764,1.20799 1.06445,1.58984 h 3.6875 11.23242 c 0.47921,2.80294 2.67554,4.99927 5.47852,5.47852 v 4.64062 c -2.80298,0.47921 -4.99931,2.67359 -5.47852,5.47656 h -11.23242 -11.23242 c -0.47925,-2.80297 -2.67363,-4.99735 -5.47656,-5.47656 v -4.64062 c 1.62936,-0.2786 3.03804,-1.15057 4.03906,-2.3711 l -1.58398,-1.57812 c -0.81192,1.09486 -2.10271,1.81445 -3.57032,1.81445 h -1.11328 v 8.91016 h 1.11328 c 2.46081,0 4.45703,1.99622 4.45704,4.45703 v 1.11328 h 13.36718 13.36914 v -1.11328 c 0,-2.46081 1.99427,-4.45703 4.45508,-4.45703 h 1.11524 v -8.91016 h -1.11524 c -2.46081,0 -4.45508,-1.99622 -4.45508,-4.45703 v -1.11328 h -13.36914 z m 5.36914,4.45312 c -1.31516,-0.008 -2.63783,0.44233 -3.70898,1.36328 -0.0836,0.0719 -0.15992,0.14898 -0.23828,0.22461 -0.17039,0.16432 -0.33106,0.3355 -0.47656,0.51563 -0.009,0.0114 -0.0202,0.0216 -0.0293,0.0332 -0.14735,0.18538 -0.27746,0.38072 -0.39844,0.58008 -1.18493,1.95378 -1.10144,4.50621 0.38086,6.39844 1.11962,1.42888 2.79674,2.17474 4.49024,2.16015 v -0.0176 a 0.62631464,1.1692834 0 0 0 0.002,0 v 0.0176 c 1.69345,0.0151 3.37062,-0.73122 4.49023,-2.16015 1.85866,-2.37267 1.52395,-5.7872 -0.76172,-7.75196 -1.07115,-0.92095 -2.39382,-1.37129 -3.70898,-1.36328 h -0.002 c -0.008,4e-5 -0.0137,0.002 -0.0176,0.002 v 0.008 a 0.6263882,1.1068569 0 0 0 -0.002,0 v -0.008 c -0.008,0 -0.012,-0.002 -0.0195,-0.002 z m 0.0195,2.22461 a 0.6263882,1.1068569 0 0 0 0.002,0 v 0.006 c 1.84562,0 3.3418,1.49617 3.3418,3.3418 0,1.84558 -1.49618,3.3418 -3.3418,3.3418 v 0.006 a 0.62631464,1.1692834 0 0 0 -0.002,0 v -0.006 c -1.84562,0 -3.3418,-1.49622 -3.3418,-3.3418 0,-1.84563 1.49618,-3.3418 3.3418,-3.3418 z"
         style="fill:#476c9b;fill-opacity:1;stroke:none;stroke-width:0.13925061" />
    </g>
  </g>
</svg>
