<?xml version="1.0" encoding="UTF-8" standalone="no"?>
<!-- Created with Inkscape (http://www.inkscape.org/) -->

<svg
   xmlns:dc="http://purl.org/dc/elements/1.1/"
   xmlns:cc="http://creativecommons.org/ns#"
   xmlns:rdf="http://www.w3.org/1999/02/22-rdf-syntax-ns#"
   xmlns:svg="http://www.w3.org/2000/svg"
   xmlns="http://www.w3.org/2000/svg"
   xmlns:sodipodi="http://sodipodi.sourceforge.net/DTD/sodipodi-0.dtd"
   xmlns:inkscape="http://www.inkscape.org/namespaces/inkscape"
   width="10.707166mm"
   height="14.427692mm"
   viewBox="0 0 10.707166 14.427692"
   version="1.1"
   id="svg11022"
   inkscape:version="0.92.5 (2060ec1f9f, 2020-04-08)"
   sodipodi:docname="icon4.svg">
  <defs
     id="defs11016" />
  <sodipodi:namedview
     id="base"
     pagecolor="#ffffff"
     bordercolor="#666666"
     borderopacity="1.0"
     inkscape:pageopacity="0.0"
     inkscape:pageshadow="2"
     inkscape:zoom="5.6"
     inkscape:cx="50.0867"
     inkscape:cy="21.108768"
     inkscape:document-units="mm"
     inkscape:current-layer="layer1"
     showgrid="false"
     fit-margin-top="0"
     fit-margin-left="0"
     fit-margin-right="0"
     fit-margin-bottom="0"
     inkscape:window-width="2400"
     inkscape:window-height="1271"
     inkscape:window-x="2391"
     inkscape:window-y="-9"
     inkscape:window-maximized="1" />
  <metadata
     id="metadata11019">
    <rdf:RDF>
      <cc:Work
         rdf:about="">
        <dc:format>image/svg+xml</dc:format>
        <dc:type
           rdf:resource="http://purl.org/dc/dcmitype/StillImage" />
        <dc:title></dc:title>
      </cc:Work>
    </rdf:RDF>
  </metadata>
  <g
     inkscape:label="Capa 1"
     inkscape:groupmode="layer"
     id="layer1"
     transform="translate(107.14826,55.873776)">
    <g
       style="fill:#ffffff"
       transform="matrix(0.02840097,0,0,0.02840097,-109.00852,-55.873776)"
       id="g10677">
      <g
         style="fill:#ffffff"
         id="g10539">
        <g
           style="fill:#ffffff"
           id="g10537">
          <path
             style="fill:#ffffff"
             inkscape:connector-curvature="0"
             d="m 289.1,115.5 c -4.5,0 -8.2,3.7 -8.2,8.2 0,4.5 3.7,8.1 8.2,8.1 7.1,0 12.9,5.7 12.9,12.7 0,4.5 3.7,8.2 8.2,8.2 4.5,0 8.2,-3.7 8.2,-8.2 0,-16 -13.1,-29 -29.3,-29 z"
             id="path10535" />
        </g>
      </g>
      <g
         style="fill:#ffffff"
         id="g10545">
        <g
           style="fill:#ffffff"
           id="g10543">
          <path
             style="fill:#ffffff"
             inkscape:connector-curvature="0"
             d="m 303.2,178 c -4.5,0 -8.2,3.7 -8.2,8.2 0,7 -5.8,12.7 -12.9,12.7 -4.5,0 -8.2,3.7 -8.2,8.2 0,4.5 3.7,8.2 8.2,8.2 16.1,0 29.3,-13 29.3,-29.1 0,-4.5 -3.7,-8.2 -8.2,-8.2 z"
             id="path10541-0" />
        </g>
      </g>
      <g
         style="fill:#ffffff"
         id="g10551">
        <g
           style="fill:#ffffff"
           id="g10549">
          <path
             style="fill:#ffffff"
             inkscape:connector-curvature="0"
             d="m 218.9,115.4 c -16.1,0 -29.3,13 -29.3,29 0,4.5 3.7,8.2 8.2,8.2 4.5,0.1 8.2,-3.6 8.2,-8.1 0,-7 5.8,-12.7 12.9,-12.7 4.5,0 8.2,-3.7 8.2,-8.2 0,-4.5 -3.7,-8.2 -8.2,-8.2 z"
             id="path10547" />
        </g>
      </g>
      <g
         style="fill:#ffffff"
         id="g10557">
        <g
           style="fill:#ffffff"
           id="g10555">
          <path
             style="fill:#ffffff"
             inkscape:connector-curvature="0"
             d="m 225.9,198.9 c -7.1,0 -12.9,-5.7 -12.9,-12.7 0,-4.5 -3.7,-8.2 -8.2,-8.2 -4.5,0 -8.2,3.7 -8.2,8.2 0,16 13.1,29.1 29.3,29.1 4.5,0 8.2,-3.7 8.2,-8.2 0,-4.5 -3.7,-8.2 -8.2,-8.2 z"
             id="path10553" />
        </g>
      </g>
      <g
         style="fill:#ffffff"
         id="g10563">
        <g
           style="fill:#ffffff"
           id="g10561">
          <path
             style="fill:#ffffff"
             inkscape:connector-curvature="0"
             d="m 378,227.1 -2,-5.8 h -25 c 1.6,-4.6 2.5,-9.4 2.5,-14.2 0,-5 -0.9,-9.9 -2.7,-14.7 6.3,-7.6 9.8,-17 9.8,-27 0,-12.1 -5.2,-23.6 -14.2,-31.7 0.1,-1 0.1,-2.1 0.1,-3.1 0,-23.7 -19.4,-43 -43.3,-43 h -17.4 c -8.2,-8.9 -19.6,-13.9 -31.7,-13.9 -12.2,0 -23.5,5 -31.7,13.9 H 205 c -23.9,0 -43.3,19.3 -43.3,43 0,1 0,2 0.1,3.1 -9,8.1 -14.2,19.6 -14.2,31.7 0,10 3.4,19.4 9.8,27 -1.8,4.8 -2.7,9.7 -2.7,14.7 0,4.9 0.9,9.7 2.5,14.2 h -24.9 l -1.8,5.8 c -3.2,10.7 -5,21.4 -5.3,32 -1.3,41.9 18.1,81.9 51.9,106.9 19.8,14.7 28.7,30.1 28.7,50 v 1.8 8.2 24.6 H 188.7 V 467 h 17.7 c 3.6,23.2 23.7,41 47.9,41 24.2,0 44.2,-17.8 47.9,-41 h 17.6 v -16.4 h -17 V 426 h -0.1 v -10 c 0,-20 8.7,-35 29.1,-50.3 32.7,-24.5 51.5,-61.9 51.5,-102.5 0,-12 -1.8,-24.2 -5.3,-36.1 z M 262.3,91.6 c 5,1.6 9.7,4.7 13.1,9.2 l 2.5,3.2 h 25.3 c 14.8,0 26.9,11.9 26.9,26.6 0,1.6 -0.2,3.2 -0.5,5 l -1,5.2 4.3,3.1 c 7.2,5.1 11.3,12.9 11.3,21.5 0,7.4 -3.1,14.3 -8.6,19.4 l -4.7,4.3 3,5.6 c 2.2,4 3.3,8.2 3.3,12.4 0,5.1 -1.5,10 -4.2,14.2 h -70.7 z m -87.2,52.3 4.3,-3 -1,-5.2 c -0.4,-1.8 -0.5,-3.5 -0.5,-5 0,-14.6 12.1,-26.6 26.9,-26.6 h 25.3 l 2.5,-3.2 c 3.4,-4.5 8.1,-7.6 13.2,-9.2 v 129.7 h -70.7 c -2.7,-4.4 -4.2,-9.2 -4.2,-14.3 0,-4.2 1.1,-8.4 3.3,-12.4 l 3,-5.6 -4.7,-4.3 c -5.6,-5.1 -8.7,-12 -8.7,-19.4 0,-8.6 4.1,-16.4 11.3,-21.5 z M 254,491.6 c -15.1,0 -27.7,-10.5 -31.1,-24.6 h 62.3 c -3.4,14.1 -16.1,24.6 -31.2,24.6 z m 32.2,-41 H 221.9 V 426 h 64.3 z m 35.5,-97.9 c -22.2,16.6 -33.6,34.9 -35.4,57 h -24.1 v -90.1 h 32.2 V 303.2 H 262.2 245.8 213 v 16.4 h 32.8 v 90.1 h -24.1 c -1.8,-22.2 -13,-40.4 -35,-56.7 -29.5,-21.9 -46.4,-56.7 -45.2,-93.3 0.2,-7.2 1.3,-14.6 3.1,-22 h 22.9 173.4 22.9 c 2,8.5 3.1,17.1 3.1,25.6 -0.3,35.4 -16.6,68 -45.2,89.4 z"
             id="path10559" />
        </g>
      </g>
      <g
         style="fill:#ffffff"
         id="g10569">
        <g
           style="fill:#ffffff"
           id="g10567">
          <rect
             style="fill:#ffffff"
             y="0"
             x="245.8"
             width="16.4"
             height="32.799999"
             id="rect10565" />
        </g>
      </g>
      <g
         style="fill:#ffffff"
         id="g10575">
        <g
           style="fill:#ffffff"
           id="g10573">
          <rect
             style="fill:#ffffff"
             x="125.115"
             y="26.784"
             transform="matrix(0.7072,-0.7071,0.7071,0.7072,8.5061,106.9078)"
             width="16.400999"
             height="32.801998"
             id="rect10571" />
        </g>
      </g>
      <g
         style="fill:#ffffff"
         id="g10581">
        <g
           style="fill:#ffffff"
           id="g10579">
          <rect
             style="fill:#ffffff"
             x="65.5"
             y="155.7"
             width="32.799999"
             height="16.4"
             id="rect10577-4" />
        </g>
      </g>
      <g
         style="fill:#ffffff"
         id="g10587">
        <g
           style="fill:#ffffff"
           id="g10585">
          <rect
             style="fill:#ffffff"
             x="409.70001"
             y="155.7"
             width="32.799999"
             height="16.4"
             id="rect10583" />
        </g>
      </g>
      <g
         style="fill:#ffffff"
         id="g10593">
        <g
           style="fill:#ffffff"
           id="g10591">
          <rect
             style="fill:#ffffff"
             x="358.25699"
             y="34.985001"
             transform="matrix(0.7071,-0.7071,0.7071,0.7071,79.1982,277.5705)"
             width="32.799999"
             height="16.4"
             id="rect10589" />
        </g>
      </g>
      <g
         style="fill:#ffffff"
         id="g10595" />
      <g
         style="fill:#ffffff"
         id="g10597" />
      <g
         style="fill:#ffffff"
         id="g10599" />
      <g
         style="fill:#ffffff"
         id="g10601" />
      <g
         style="fill:#ffffff"
         id="g10603" />
      <g
         style="fill:#ffffff"
         id="g10605" />
      <g
         style="fill:#ffffff"
         id="g10607" />
      <g
         style="fill:#ffffff"
         id="g10609" />
      <g
         style="fill:#ffffff"
         id="g10611" />
      <g
         style="fill:#ffffff"
         id="g10613" />
      <g
         style="fill:#ffffff"
         id="g10615" />
      <g
         style="fill:#ffffff"
         id="g10617" />
      <g
         style="fill:#ffffff"
         id="g10619" />
      <g
         style="fill:#ffffff"
         id="g10621" />
      <g
         style="fill:#ffffff"
         id="g10623" />
    </g>
  </g>
</svg>
