<?xml version="1.0" encoding="UTF-8" standalone="no"?>
<!-- Generator: Adobe Illustrator 23.0.2, SVG Export Plug-In . SVG Version: 6.00 Build 0)  -->

<svg
   xmlns:dc="http://purl.org/dc/elements/1.1/"
   xmlns:cc="http://creativecommons.org/ns#"
   xmlns:rdf="http://www.w3.org/1999/02/22-rdf-syntax-ns#"
   xmlns:svg="http://www.w3.org/2000/svg"
   xmlns="http://www.w3.org/2000/svg"
   xmlns:sodipodi="http://sodipodi.sourceforge.net/DTD/sodipodi-0.dtd"
   xmlns:inkscape="http://www.inkscape.org/namespaces/inkscape"
   version="1.1"
   id="Layer_1"
   x="0px"
   y="0px"
   viewBox="0 0 300 299.99999"
   xml:space="preserve"
   sodipodi:docname="rueda-white.svg"
   inkscape:version="0.92.3 (2405546, 2018-03-11)"
   width="300"
   height="300"><metadata
   id="metadata24"><rdf:RDF><cc:Work
       rdf:about=""><dc:format>image/svg+xml</dc:format><dc:type
         rdf:resource="http://purl.org/dc/dcmitype/StillImage" /><dc:title></dc:title></cc:Work></rdf:RDF></metadata><defs
   id="defs22">
	
	

		
		
	
			
			
		
		
		
		
	</defs><sodipodi:namedview
   pagecolor="#ffffff"
   bordercolor="#666666"
   borderopacity="1"
   objecttolerance="10"
   gridtolerance="10"
   guidetolerance="10"
   inkscape:pageopacity="0"
   inkscape:pageshadow="2"
   inkscape:window-width="1920"
   inkscape:window-height="986"
   id="namedview20"
   showgrid="false"
   inkscape:zoom="1.4682204"
   inkscape:cx="4.3635377"
   inkscape:cy="17.548734"
   inkscape:window-x="-11"
   inkscape:window-y="-11"
   inkscape:window-maximized="1"
   inkscape:current-layer="Layer_1"
   fit-margin-top="0"
   fit-margin-left="0"
   fit-margin-right="0"
   fit-margin-bottom="0" />
<style
   type="text/css"
   id="style2">
	.st0{fill:#177CD6;}
	.st1{fill:#606060;}
	.st2{fill:#58595B;}
</style>
<g
   id="g819"
   transform="scale(16.515538,16.513158)"><path
     sodipodi:nodetypes="scccscccccccccccscccc"
     id="path4"
     d="M 9.1097696,4.9541778e-5 C 4.0965301,-0.01632468 0.00819947,4.0283201 1.2357765e-5,9.0197273 -0.00817475,14.071173 4.052695,18.167329 9.0713925,18.167329 14.030051,18.170058 18.186459,14.038467 18.164627,9.1316607 18.142794,4.0720275 14.123009,0.01642376 9.1097696,4.9541778e-5 Z M 9.0932461,1.629476 C 13.24411,1.6567664 16.549101,4.9995159 16.52454,9.1476509 16.502707,13.213915 13.118596,16.54594 9.0468741,16.521379 4.9969843,16.494088 1.5039032,13.238434 1.6294388,8.7628142 1.7386003,4.9094151 4.9751308,1.6049147 9.0932461,1.629476 Z m -0.00853,5.8562347 C 8.2196134,7.4802526 7.4830083,8.2033831 7.4830083,9.0575714 7.4857374,9.9581534 8.1951801,10.675932 9.0793878,10.670474 9.925389,10.665016 10.662314,9.9500304 10.667772,9.1231324 10.675959,8.2361956 9.9552804,7.4911685 9.0847179,7.4857107 Z m 0.00586,0.90346 C 9.4589997,8.3973578 9.7591083,8.7140114 9.7536502,9.0906184 9.7481922,9.4672254 9.4477212,9.7538168 9.060198,9.7483587 8.683591,9.7429006 8.3890044,9.4395726 8.3944625,9.0602366 8.3999206,8.6918167 8.724889,8.3809836 9.0905799,8.3891707 Z"
     style="fill:#ffffff;stroke-width:0.27290362"
     inkscape:connector-curvature="0" /><path
     sodipodi:nodetypes="ccccccccccccccccccccccccccccccccccc"
     id="path6"
     d="M 9.1342884,1.0943291 C 4.9233855,1.0179161 1.2010015,4.5466664 1.1054852,8.7084466 0.9990528,13.235918 4.472924,16.952801 8.8912336,17.034672 13.274066,17.116543 16.950035,13.610009 17.034635,9.2681125 17.121964,4.8088673 13.607179,1.1734711 9.1342884,1.0943291 Z m 0.051702,0.9253138 c 3.0756246,0.046394 5.4606956,2.0709975 6.3039676,4.221478 -0.734111,0.1200776 -1.470823,0.205104 -2.188559,0.3688462 C 12.605494,6.7682512 12.10881,6.6672768 11.527525,6.1323857 9.9801616,4.7050998 7.5620011,4.9451057 6.1701926,6.5252177 6.0746764,6.6316501 5.8975022,6.7489348 5.7746955,6.7325606 4.7758683,6.5933797 3.7795144,6.4239876 2.7834161,6.2629745 2.7479387,6.2575164 2.7155313,6.2305672 2.6554925,6.2032768 3.6106552,3.8863251 6.1403864,1.9705203 9.1859904,2.0196429 Z M 9.0713925,6.1350509 C 10.714272,6.1295928 12.02131,7.4418968 12.034955,9.1066089 12.045871,10.673076 10.700649,12.010495 9.0932461,12.032328 7.4530954,12.05416 6.1405995,10.7416 6.1296836,9.0714297 6.1187675,7.4421951 7.4257837,6.1377799 9.0713925,6.1350509 Z m -6.9782307,3.476856 c 1.1652985,0.4120841 2.2949915,0.8049161 3.4166254,1.2115431 0.1064324,0.03821 0.1857024,0.160992 0.2675735,0.25105 0.3192972,0.346587 0.6333283,0.69326 0.9471674,1.042577 0.073684,0.07914 0.1825682,0.166258 0.1934843,0.259045 0.1364518,1.151653 0.2593013,2.303626 0.384837,3.466196 C 4.5929164,15.293782 2.1750329,12.54835 2.0931618,9.6119069 Z m 13.8988962,0.01066 c 0.0191,-0.00819 0.04633,0.0084 0.07089,0.013858 -0.117349,3.1383911 -2.788798,5.8538251 -5.446879,6.2522641 0.114619,-1.07524 0.218195,-2.117945 0.346459,-3.15225 0.0191,-0.161013 0.14756,-0.327463 0.264909,-0.455728 0.390252,-0.433916 0.796452,-0.851502 1.200349,-1.271773 0.07641,-0.07914 0.152869,-0.177196 0.248385,-0.212673 1.102531,-0.398439 2.210626,-0.786176 3.315886,-1.1736982 z"
     style="fill:#cccccc;fill-opacity:1;stroke-width:0.27290362"
     inkscape:connector-curvature="0" /></g>
</svg>